<svg width="64" height="64" viewBox="0 0 64 64" fill="none" xmlns="http://www.w3.org/2000/svg">
<rect width="64" height="64" rx="10" fill="url(#paint0_linear_271_954)"/>
<path fill-rule="evenodd" clip-rule="evenodd" d="M31.9999 37.3333C31.2639 37.3333 30.6666 36.736 30.6666 36C30.6666 35.264 31.2639 34.6667 31.9999 34.6667C32.7359 34.6667 33.3333 35.264 33.3333 36C33.3333 36.736 32.7359 37.3333 31.9999 37.3333ZM31.9999 32C29.7946 32 27.9999 33.7947 27.9999 36C27.9999 38.2053 29.7946 40 31.9999 40C34.2053 40 35.9999 38.2053 35.9999 36C35.9999 33.7947 34.2053 32 31.9999 32ZM39.9999 41.3333C39.9999 42.0693 39.4026 42.6667 38.6666 42.6667H25.3333C24.5973 42.6667 23.9999 42.0693 23.9999 41.3333V30.6667C23.9999 29.9307 24.5973 29.3333 25.3333 29.3333H26.6666H29.3333H34.6666H37.3333H38.6666C39.4026 29.3333 39.9999 29.9307 39.9999 30.6667V41.3333ZM29.3333 24.148C29.3333 22.596 30.5293 21.3333 31.9999 21.3333C33.4706 21.3333 34.6666 22.596 34.6666 24.148V26.6667H29.3333V24.148ZM38.6666 26.6667H37.3333V24.148C37.3333 21.1267 34.9413 18.6667 31.9999 18.6667C29.0586 18.6667 26.6666 21.1267 26.6666 24.148V26.6667H25.3333C23.1279 26.6667 21.3333 28.4613 21.3333 30.6667V41.3333C21.3333 43.5387 23.1279 45.3333 25.3333 45.3333H38.6666C40.8719 45.3333 42.6666 43.5387 42.6666 41.3333V30.6667C42.6666 28.4613 40.8719 26.6667 38.6666 26.6667Z" fill="#03133D"/>
<mask id="mask0_271_954" style="mask-type:luminance" maskUnits="userSpaceOnUse" x="21" y="18" width="22" height="28">
<path fill-rule="evenodd" clip-rule="evenodd" d="M31.9999 37.3333C31.2639 37.3333 30.6666 36.736 30.6666 36C30.6666 35.264 31.2639 34.6667 31.9999 34.6667C32.7359 34.6667 33.3333 35.264 33.3333 36C33.3333 36.736 32.7359 37.3333 31.9999 37.3333ZM31.9999 32C29.7946 32 27.9999 33.7947 27.9999 36C27.9999 38.2053 29.7946 40 31.9999 40C34.2053 40 35.9999 38.2053 35.9999 36C35.9999 33.7947 34.2053 32 31.9999 32ZM39.9999 41.3333C39.9999 42.0693 39.4026 42.6667 38.6666 42.6667H25.3333C24.5973 42.6667 23.9999 42.0693 23.9999 41.3333V30.6667C23.9999 29.9307 24.5973 29.3333 25.3333 29.3333H26.6666H29.3333H34.6666H37.3333H38.6666C39.4026 29.3333 39.9999 29.9307 39.9999 30.6667V41.3333ZM29.3333 24.148C29.3333 22.596 30.5293 21.3333 31.9999 21.3333C33.4706 21.3333 34.6666 22.596 34.6666 24.148V26.6667H29.3333V24.148ZM38.6666 26.6667H37.3333V24.148C37.3333 21.1267 34.9413 18.6667 31.9999 18.6667C29.0586 18.6667 26.6666 21.1267 26.6666 24.148V26.6667H25.3333C23.1279 26.6667 21.3333 28.4613 21.3333 30.6667V41.3333C21.3333 43.5387 23.1279 45.3333 25.3333 45.3333H38.6666C40.8719 45.3333 42.6666 43.5387 42.6666 41.3333V30.6667C42.6666 28.4613 40.8719 26.6667 38.6666 26.6667Z" fill="white"/>
</mask>
<g mask="url(#mask0_271_954)">
<rect x="16" y="16" width="32" height="32" fill="white"/>
</g>
<defs>
<linearGradient id="paint0_linear_271_954" x1="-0.415645" y1="71.8441" x2="70.9528" y2="16.8239" gradientUnits="userSpaceOnUse">
<stop stop-color="#0097FE"/>
<stop offset="1" stop-color="#14358A"/>
</linearGradient>
</defs>
</svg>
