<svg width="701" height="598" viewBox="0 0 701 598" fill="none" xmlns="http://www.w3.org/2000/svg">
<g filter="url(#filter0_d_271_924)">
<g clip-path="url(#clip0_271_924)">
<rect x="88" y="72" width="509" height="315.624" rx="11.1135" fill="white"/>
<g clip-path="url(#clip1_271_924)">
<rect x="114.672" y="98.6725" width="455.655" height="104.467" rx="11.1135" fill="white"/>
<rect x="114.672" y="98.6725" width="455.655" height="104.467" rx="11.1135" fill="url(#paint0_linear_271_924)"/>
<mask id="mask0_271_924" style="mask-type:alpha" maskUnits="userSpaceOnUse" x="114" y="98" width="457" height="106">
<rect x="114.672" y="98.6725" width="455.655" height="104.467" rx="11.1135" fill="#7545FF"/>
</mask>
<g mask="url(#mask0_271_924)">
<path d="M142.318 181.555V178.816C140.018 178.555 138.145 177.749 136.699 176.398C135.253 175.047 134.506 173.233 134.458 170.957H139.259C139.307 171.905 139.591 172.735 140.113 173.446C140.658 174.157 141.393 174.644 142.318 174.904V167.4C142.105 167.329 141.879 167.258 141.642 167.187C141.429 167.116 141.204 167.045 140.966 166.974C139.046 166.31 137.576 165.456 136.557 164.413C135.561 163.37 135.063 161.983 135.063 160.252C135.039 158.213 135.703 156.577 137.055 155.344C138.406 154.088 140.16 153.365 142.318 153.175V150.294H144.701V153.211C146.834 153.424 148.553 154.171 149.857 155.451C151.185 156.708 151.884 158.332 151.956 160.323H147.083C147.06 159.636 146.834 159.007 146.408 158.438C146.005 157.846 145.436 157.431 144.701 157.194V163.809C144.89 163.88 145.08 163.951 145.27 164.022C145.459 164.069 145.649 164.129 145.839 164.2C147.072 164.627 148.198 165.124 149.217 165.693C150.237 166.262 151.055 167.021 151.671 167.969C152.287 168.894 152.596 170.091 152.596 171.561C152.596 172.794 152.287 173.944 151.671 175.011C151.078 176.078 150.189 176.967 149.004 177.678C147.842 178.366 146.408 178.757 144.701 178.852V181.555H142.318ZM139.828 159.932C139.828 160.691 140.054 161.307 140.504 161.781C140.955 162.232 141.559 162.623 142.318 162.955V157.052C141.583 157.194 140.978 157.514 140.504 158.012C140.054 158.51 139.828 159.15 139.828 159.932ZM147.759 171.881C147.759 170.933 147.475 170.186 146.906 169.641C146.337 169.096 145.602 168.633 144.701 168.254V175.011C145.649 174.869 146.396 174.525 146.941 173.98C147.486 173.434 147.759 172.735 147.759 171.881ZM154.896 178.461V175.153C156.413 173.897 157.883 172.652 159.306 171.419C160.752 170.186 162.032 168.965 163.147 167.756C164.285 166.547 165.186 165.373 165.849 164.235C166.537 163.074 166.881 161.947 166.881 160.857C166.881 159.837 166.596 158.936 166.027 158.154C165.482 157.372 164.569 156.98 163.289 156.98C161.985 156.98 161.001 157.407 160.337 158.261C159.673 159.114 159.341 160.146 159.341 161.355H154.931C154.979 159.529 155.382 158.012 156.141 156.803C156.899 155.57 157.907 154.657 159.164 154.064C160.42 153.448 161.831 153.14 163.396 153.14C165.932 153.14 167.9 153.839 169.299 155.238C170.722 156.613 171.433 158.403 171.433 160.608C171.433 161.983 171.113 163.323 170.473 164.626C169.856 165.93 169.038 167.187 168.019 168.396C166.999 169.605 165.897 170.743 164.711 171.81C163.526 172.853 162.376 173.826 161.262 174.726H172.037V178.461H154.896ZM183.677 178.887C181.851 178.887 180.275 178.567 178.947 177.927C177.643 177.287 176.612 176.41 175.853 175.295C175.118 174.157 174.691 172.877 174.573 171.455H179.018C179.232 172.474 179.753 173.328 180.583 174.015C181.413 174.679 182.444 175.011 183.677 175.011C185.005 175.011 186.083 174.525 186.913 173.553C187.767 172.581 188.193 171.372 188.193 169.925C188.193 168.432 187.767 167.246 186.913 166.369C186.083 165.492 185.028 165.053 183.748 165.053C182.681 165.053 181.757 165.314 180.974 165.836C180.192 166.357 179.635 167.009 179.303 167.792H174.928L177.062 153.566H190.861V157.549H180.476L179.338 163.311C179.86 162.742 180.571 162.279 181.472 161.924C182.373 161.544 183.381 161.355 184.495 161.355C186.273 161.355 187.755 161.758 188.94 162.564C190.126 163.346 191.027 164.389 191.643 165.693C192.26 166.974 192.568 168.373 192.568 169.89C192.568 171.621 192.188 173.162 191.43 174.513C190.695 175.865 189.652 176.931 188.3 177.714C186.972 178.496 185.431 178.887 183.677 178.887ZM193.817 182.586L195.844 173.731H200.254L196.804 182.586H193.817ZM202.297 178.461V175.153C203.814 173.897 205.284 172.652 206.706 171.419C208.153 170.186 209.433 168.965 210.547 167.756C211.685 166.547 212.586 165.373 213.25 164.235C213.938 163.074 214.281 161.947 214.281 160.857C214.281 159.837 213.997 158.936 213.428 158.154C212.883 157.372 211.97 156.98 210.69 156.98C209.386 156.98 208.402 157.407 207.738 158.261C207.074 159.114 206.742 160.146 206.742 161.355H202.332C202.38 159.529 202.783 158.012 203.541 156.803C204.3 155.57 205.308 154.657 206.564 154.064C207.821 153.448 209.231 153.14 210.796 153.14C213.333 153.14 215.301 153.839 216.7 155.238C218.122 156.613 218.834 158.403 218.834 160.608C218.834 161.983 218.513 163.323 217.873 164.626C217.257 165.93 216.439 167.187 215.419 168.396C214.4 169.605 213.297 170.743 212.112 171.81C210.927 172.853 209.777 173.826 208.662 174.726H219.438V178.461H202.297ZM224.854 178.461V158.759L220.764 159.719V156.234L226.774 153.566H229.584V178.461H224.854ZM242.27 178.887C240.445 178.887 238.868 178.567 237.54 177.927C236.236 177.287 235.205 176.41 234.446 175.295C233.711 174.157 233.285 172.877 233.166 171.455H237.611C237.825 172.474 238.346 173.328 239.176 174.015C240.006 174.679 241.037 175.011 242.27 175.011C243.598 175.011 244.677 174.525 245.507 173.553C246.36 172.581 246.787 171.372 246.787 169.925C246.787 168.432 246.36 167.246 245.507 166.369C244.677 165.492 243.622 165.053 242.341 165.053C241.275 165.053 240.35 165.314 239.567 165.836C238.785 166.357 238.228 167.009 237.896 167.792H233.522L235.656 153.566H249.454V157.549H239.07L237.932 163.311C238.453 162.742 239.164 162.279 240.065 161.924C240.966 161.544 241.974 161.355 243.088 161.355C244.866 161.355 246.348 161.758 247.534 162.564C248.719 163.346 249.62 164.389 250.236 165.693C250.853 166.974 251.161 168.373 251.161 169.89C251.161 171.621 250.782 173.162 250.023 174.513C249.288 175.865 248.245 176.931 246.894 177.714C245.566 178.496 244.025 178.887 242.27 178.887Z" fill="white"/>
<path d="M139.376 135.667C138.143 135.667 137.076 135.401 136.175 134.867C135.286 134.322 134.599 133.569 134.113 132.609C133.627 131.637 133.384 130.517 133.384 129.248C133.384 127.968 133.627 126.848 134.113 125.888C134.599 124.915 135.286 124.157 136.175 123.612C137.076 123.066 138.143 122.794 139.376 122.794C140.834 122.794 142.025 123.149 142.95 123.86C143.875 124.572 144.462 125.567 144.71 126.848H142.612C142.446 126.125 142.091 125.55 141.545 125.123C141 124.696 140.271 124.483 139.358 124.483C138.113 124.483 137.13 124.91 136.406 125.763C135.683 126.605 135.322 127.766 135.322 129.248C135.322 130.718 135.683 131.874 136.406 132.716C137.13 133.557 138.113 133.978 139.358 133.978C140.271 133.978 141 133.777 141.545 133.374C142.091 132.971 142.446 132.419 142.612 131.72H144.71C144.462 132.953 143.875 133.919 142.95 134.618C142.025 135.318 140.834 135.667 139.376 135.667ZM146.711 135.454V126.634H148.4L148.56 128.306C148.869 127.725 149.295 127.269 149.841 126.937C150.398 126.593 151.068 126.421 151.85 126.421V128.395H151.334C150.813 128.395 150.345 128.484 149.93 128.661C149.527 128.827 149.201 129.118 148.952 129.533C148.715 129.936 148.596 130.499 148.596 131.222V135.454H146.711ZM157.348 135.667C156.483 135.667 155.712 135.478 155.037 135.098C154.373 134.707 153.851 134.168 153.472 133.48C153.093 132.793 152.903 131.993 152.903 131.08C152.903 130.155 153.087 129.343 153.454 128.644C153.834 127.944 154.355 127.399 155.019 127.008C155.695 126.617 156.477 126.421 157.366 126.421C158.232 126.421 158.984 126.617 159.624 127.008C160.265 127.387 160.762 127.897 161.118 128.537C161.474 129.177 161.652 129.882 161.652 130.653C161.652 130.772 161.646 130.902 161.634 131.044C161.634 131.175 161.628 131.323 161.616 131.489H154.752C154.812 132.342 155.09 132.994 155.588 133.445C156.098 133.883 156.685 134.103 157.348 134.103C157.882 134.103 158.326 133.984 158.682 133.747C159.049 133.498 159.322 133.166 159.5 132.751H161.385C161.148 133.581 160.674 134.275 159.962 134.832C159.263 135.389 158.392 135.667 157.348 135.667ZM157.348 127.968C156.72 127.968 156.163 128.158 155.677 128.537C155.191 128.905 154.894 129.462 154.788 130.208H159.767C159.731 129.521 159.488 128.976 159.038 128.573C158.587 128.17 158.024 127.968 157.348 127.968ZM167.626 135.667C166.772 135.667 166.02 135.466 165.368 135.063C164.716 134.66 164.206 134.109 163.838 133.409C163.471 132.71 163.287 131.916 163.287 131.026C163.287 130.137 163.471 129.349 163.838 128.661C164.206 127.962 164.716 127.417 165.368 127.026C166.031 126.623 166.79 126.421 167.644 126.421C168.343 126.421 168.954 126.557 169.475 126.83C170.009 127.103 170.424 127.488 170.72 127.986V122.651H172.605V135.454H170.915L170.72 134.085C170.435 134.5 170.044 134.867 169.546 135.187C169.048 135.507 168.408 135.667 167.626 135.667ZM167.964 134.032C168.77 134.032 169.428 133.753 169.937 133.196C170.459 132.639 170.72 131.921 170.72 131.044C170.72 130.155 170.459 129.438 169.937 128.893C169.428 128.335 168.77 128.057 167.964 128.057C167.158 128.057 166.494 128.335 165.972 128.893C165.451 129.438 165.19 130.155 165.19 131.044C165.19 131.625 165.308 132.141 165.545 132.591C165.783 133.042 166.109 133.397 166.523 133.658C166.95 133.907 167.43 134.032 167.964 134.032ZM176.048 124.963C175.693 124.963 175.396 124.856 175.159 124.643C174.934 124.418 174.821 124.139 174.821 123.807C174.821 123.475 174.934 123.203 175.159 122.989C175.396 122.764 175.693 122.651 176.048 122.651C176.404 122.651 176.694 122.764 176.919 122.989C177.157 123.203 177.275 123.475 177.275 123.807C177.275 124.139 177.157 124.418 176.919 124.643C176.694 124.856 176.404 124.963 176.048 124.963ZM175.106 135.454V126.634H176.991V135.454H175.106ZM183.177 135.454C182.312 135.454 181.624 135.247 181.115 134.832C180.605 134.405 180.35 133.652 180.35 132.573V128.217H178.839V126.634H180.35L180.581 124.394H182.235V126.634H184.724V128.217H182.235V132.573C182.235 133.059 182.336 133.397 182.537 133.587C182.751 133.765 183.112 133.854 183.622 133.854H184.635V135.454H183.177ZM191.219 135.454V123.007H195.913C197.206 123.007 198.184 123.309 198.847 123.914C199.511 124.518 199.843 125.277 199.843 126.19C199.843 126.984 199.63 127.618 199.203 128.092C198.776 128.555 198.261 128.869 197.656 129.035C198.13 129.13 198.551 129.319 198.919 129.604C199.298 129.888 199.594 130.244 199.808 130.671C200.021 131.098 200.128 131.56 200.128 132.058C200.128 132.698 199.968 133.279 199.648 133.8C199.339 134.31 198.883 134.713 198.278 135.01C197.674 135.306 196.933 135.454 196.056 135.454H191.219ZM193.104 128.341H195.682C196.405 128.341 196.957 128.175 197.336 127.844C197.715 127.5 197.905 127.032 197.905 126.439C197.905 125.858 197.715 125.396 197.336 125.052C196.968 124.708 196.405 124.536 195.647 124.536H193.104V128.341ZM193.104 133.907H195.807C196.565 133.907 197.152 133.729 197.567 133.374C197.994 133.018 198.207 132.52 198.207 131.88C198.207 131.24 197.988 130.736 197.549 130.369C197.111 129.989 196.518 129.8 195.771 129.8H193.104V133.907ZM205.11 135.667C204.363 135.667 203.747 135.543 203.261 135.294C202.775 135.045 202.413 134.719 202.176 134.316C201.939 133.901 201.82 133.451 201.82 132.965C201.82 132.111 202.152 131.435 202.816 130.938C203.48 130.44 204.428 130.191 205.661 130.191H207.973V130.031C207.973 129.343 207.783 128.827 207.404 128.484C207.036 128.14 206.556 127.968 205.963 127.968C205.442 127.968 204.985 128.098 204.594 128.359C204.215 128.608 203.984 128.982 203.901 129.479H202.016C202.075 128.839 202.289 128.294 202.656 127.844C203.035 127.381 203.51 127.032 204.079 126.794C204.659 126.545 205.294 126.421 205.981 126.421C207.214 126.421 208.168 126.747 208.844 127.399C209.52 128.039 209.858 128.916 209.858 130.031V135.454H208.222L208.062 133.943C207.813 134.429 207.451 134.838 206.977 135.17C206.503 135.502 205.88 135.667 205.11 135.667ZM205.483 134.138C205.993 134.138 206.42 134.02 206.764 133.783C207.119 133.534 207.392 133.208 207.582 132.805C207.783 132.402 207.908 131.957 207.955 131.471H205.857C205.11 131.471 204.576 131.601 204.256 131.862C203.948 132.123 203.794 132.449 203.794 132.84C203.794 133.243 203.942 133.563 204.239 133.8C204.547 134.026 204.962 134.138 205.483 134.138ZM212.055 135.454V122.651H213.94V135.454H212.055ZM219.314 135.667C218.568 135.667 217.951 135.543 217.465 135.294C216.979 135.045 216.618 134.719 216.38 134.316C216.143 133.901 216.025 133.451 216.025 132.965C216.025 132.111 216.357 131.435 217.021 130.938C217.684 130.44 218.633 130.191 219.866 130.191H222.177V130.031C222.177 129.343 221.988 128.827 221.608 128.484C221.241 128.14 220.761 127.968 220.168 127.968C219.646 127.968 219.19 128.098 218.799 128.359C218.419 128.608 218.188 128.982 218.105 129.479H216.22C216.28 128.839 216.493 128.294 216.861 127.844C217.24 127.381 217.714 127.032 218.283 126.794C218.864 126.545 219.498 126.421 220.186 126.421C221.419 126.421 222.373 126.747 223.049 127.399C223.724 128.039 224.062 128.916 224.062 130.031V135.454H222.426L222.266 133.943C222.017 134.429 221.656 134.838 221.181 135.17C220.707 135.502 220.085 135.667 219.314 135.667ZM219.688 134.138C220.198 134.138 220.624 134.02 220.968 133.783C221.324 133.534 221.596 133.208 221.786 132.805C221.988 132.402 222.112 131.957 222.159 131.471H220.061C219.314 131.471 218.781 131.601 218.461 131.862C218.153 132.123 217.999 132.449 217.999 132.84C217.999 133.243 218.147 133.563 218.443 133.8C218.751 134.026 219.166 134.138 219.688 134.138ZM226.26 135.454V126.634H227.931L228.074 128.181C228.346 127.636 228.743 127.209 229.265 126.901C229.798 126.581 230.409 126.421 231.096 126.421C232.163 126.421 232.999 126.753 233.604 127.417C234.22 128.081 234.528 129.07 234.528 130.386V135.454H232.661V130.582C232.661 128.875 231.962 128.021 230.563 128.021C229.864 128.021 229.283 128.27 228.82 128.768C228.37 129.266 228.145 129.977 228.145 130.902V135.454H226.26ZM240.927 135.667C240.062 135.667 239.285 135.472 238.597 135.081C237.922 134.689 237.388 134.15 236.997 133.463C236.618 132.763 236.428 131.957 236.428 131.044C236.428 130.131 236.618 129.331 236.997 128.644C237.388 127.944 237.922 127.399 238.597 127.008C239.285 126.617 240.062 126.421 240.927 126.421C242.017 126.421 242.93 126.706 243.665 127.275C244.412 127.844 244.892 128.614 245.106 129.586H243.132C243.013 129.1 242.752 128.721 242.349 128.448C241.946 128.175 241.472 128.039 240.927 128.039C240.465 128.039 240.038 128.158 239.647 128.395C239.255 128.62 238.941 128.958 238.704 129.408C238.467 129.847 238.349 130.392 238.349 131.044C238.349 131.696 238.467 132.247 238.704 132.698C238.941 133.137 239.255 133.474 239.647 133.711C240.038 133.949 240.465 134.067 240.927 134.067C241.472 134.067 241.946 133.931 242.349 133.658C242.752 133.385 243.013 133 243.132 132.502H245.106C244.904 133.451 244.43 134.215 243.683 134.796C242.936 135.377 242.017 135.667 240.927 135.667ZM251.275 135.667C250.41 135.667 249.639 135.478 248.964 135.098C248.3 134.707 247.778 134.168 247.399 133.48C247.019 132.793 246.83 131.993 246.83 131.08C246.83 130.155 247.013 129.343 247.381 128.644C247.76 127.944 248.282 127.399 248.946 127.008C249.621 126.617 250.404 126.421 251.293 126.421C252.158 126.421 252.911 126.617 253.551 127.008C254.191 127.387 254.689 127.897 255.045 128.537C255.4 129.177 255.578 129.882 255.578 130.653C255.578 130.772 255.572 130.902 255.561 131.044C255.561 131.175 255.555 131.323 255.543 131.489H248.679C248.738 132.342 249.017 132.994 249.515 133.445C250.024 133.883 250.611 134.103 251.275 134.103C251.809 134.103 252.253 133.984 252.609 133.747C252.976 133.498 253.249 133.166 253.427 132.751H255.312C255.074 133.581 254.6 134.275 253.889 134.832C253.19 135.389 252.318 135.667 251.275 135.667ZM251.275 127.968C250.647 127.968 250.09 128.158 249.604 128.537C249.118 128.905 248.821 129.462 248.715 130.208H253.693C253.658 129.521 253.415 128.976 252.964 128.573C252.514 128.17 251.951 127.968 251.275 127.968Z" fill="#E9EDF7"/>
<path opacity="0.1" d="M356.038 276.53L499.371 26.823L577.929 26.823L584.544 276.53H356.038Z" fill="url(#paint1_linear_271_924)"/>
</g>
<g clip-path="url(#clip2_271_924)">
<path d="M532.541 127.568C531.319 127.568 530.319 128.568 530.319 129.79C530.319 131.013 531.319 132.013 532.541 132.013C533.764 132.013 534.764 131.013 534.764 129.79C534.764 128.568 533.764 127.568 532.541 127.568ZM545.878 127.568C544.655 127.568 543.655 128.568 543.655 129.79C543.655 131.013 544.655 132.013 545.878 132.013C547.1 132.013 548.1 131.013 548.1 129.79C548.1 128.568 547.1 127.568 545.878 127.568ZM539.21 127.568C537.987 127.568 536.987 128.568 536.987 129.79C536.987 131.013 537.987 132.013 539.21 132.013C540.432 132.013 541.432 131.013 541.432 129.79C541.432 128.568 540.432 127.568 539.21 127.568Z" fill="white"/>
</g>
<path d="M481.419 173.813C482.266 178.043 485.639 185.914 493.475 185.327C501.311 184.739 502.249 165.354 515.966 165.354C529.684 165.354 529.684 187.71 552.546 168.375" stroke="white" stroke-width="2.35573" stroke-linecap="round" stroke-linejoin="round"/>
</g>
<path d="M122.593 317.905C109.287 328.252 91.5451 319.342 84.3376 313.593L41.0925 479.276L610.763 497.754C614.367 422.406 616.917 268.877 598.289 257.544C575.003 243.378 563.36 269.863 559.202 277.87C555.044 285.877 540.906 292.036 529.263 289.572C517.62 287.109 492.671 317.905 475.206 325.296C457.742 332.687 433.625 292.036 422.813 285.261C412.002 278.486 402.854 293.268 398.696 292.036C394.538 290.804 377.073 252.001 364.599 252.617C352.124 253.233 341.313 289.572 332.165 285.261C323.017 280.949 313.037 313.593 282.267 335.15C251.496 356.708 239.022 253.233 222.389 248.305C205.756 243.378 200.767 264.935 184.134 285.261C167.501 305.586 160.016 290.188 155.027 285.261C150.037 280.333 139.226 304.97 122.593 317.905Z" fill="url(#paint2_linear_271_924)"/>
<path d="M122.593 317.905C109.287 328.252 91.5451 319.342 84.3376 313.593L41.0925 479.276L610.763 497.754C614.367 422.406 616.917 268.877 598.289 257.544C575.003 243.378 563.36 269.863 559.202 277.87C555.044 285.877 540.906 292.036 529.263 289.572C517.62 287.109 492.671 317.905 475.206 325.296C457.742 332.687 433.625 292.036 422.813 285.261C412.002 278.486 402.854 293.268 398.696 292.036C394.538 290.804 377.073 252.001 364.599 252.617C352.124 253.233 341.313 289.572 332.165 285.261C323.017 280.949 313.037 313.593 282.267 335.15C251.496 356.708 239.022 253.233 222.389 248.305C205.756 243.378 200.767 264.935 184.134 285.261C167.501 305.586 160.016 290.188 155.027 285.261C150.037 280.333 139.226 304.97 122.593 317.905Z" stroke="#006EEA" stroke-width="4.44542" stroke-linecap="round" stroke-linejoin="round"/>
</g>
<rect x="117" y="342" width="192" height="60" rx="10" fill="white"/>
<rect x="135" y="366" width="156" height="12" rx="6" fill="#0097FE"/>
<rect x="173" y="418" width="192" height="60" rx="10" fill="white"/>
<rect x="191" y="442" width="156" height="12" rx="6" fill="#F7EDFE"/>
<path fill-rule="evenodd" clip-rule="evenodd" d="M504 461.346C501.373 461.346 498.746 460.695 496.413 459.377L494.065 458.052C457.167 437.297 434.25 398.113 434.25 355.783V354.659C434.25 349.087 437.273 343.91 442.14 341.159L496.405 310.639C501.094 308.004 506.914 307.996 511.588 310.631L565.845 341.151C570.728 343.91 573.75 349.087 573.75 354.659V355.783C573.75 398.113 550.834 437.297 513.936 458.052L511.595 459.369C509.255 460.687 506.628 461.346 504 461.346Z" fill="#03133D"/>
<mask id="mask1_271_924" style="mask-type:luminance" maskUnits="userSpaceOnUse" x="434" y="308" width="140" height="154">
<path fill-rule="evenodd" clip-rule="evenodd" d="M504 461.346C501.373 461.346 498.746 460.695 496.413 459.377L494.065 458.052C457.167 437.297 434.25 398.113 434.25 355.783V354.659C434.25 349.087 437.273 343.91 442.14 341.159L496.405 310.639C501.094 308.004 506.914 307.996 511.588 310.631L565.845 341.151C570.728 343.91 573.75 349.087 573.75 354.659V355.783C573.75 398.113 550.834 437.297 513.936 458.052L511.595 459.369C509.255 460.687 506.628 461.346 504 461.346Z" fill="white"/>
</mask>
<g mask="url(#mask1_271_924)">
<rect x="411" y="292" width="186" height="186" rx="10" fill="url(#paint3_linear_271_924)"/>
</g>
<path fill-rule="evenodd" clip-rule="evenodd" d="M517.316 377.777L503.155 396.377C502.572 397.142 501.67 397.595 500.709 397.601H500.688C499.736 397.601 498.837 397.161 498.248 396.411L490.709 386.779C489.655 385.434 489.89 383.484 491.239 382.43C492.584 381.373 494.537 381.608 495.591 382.96L500.654 389.427L512.384 374.023C513.419 372.662 515.363 372.395 516.73 373.434C518.091 374.472 518.355 376.416 517.316 377.777ZM504.002 354.201C486.88 354.201 473.002 368.08 473.002 385.201C473.002 402.32 486.88 416.201 504.002 416.201C521.123 416.201 535.002 402.32 535.002 385.201C535.002 368.08 521.123 354.201 504.002 354.201Z" fill="#231F20"/>
<mask id="mask2_271_924" style="mask-type:luminance" maskUnits="userSpaceOnUse" x="473" y="354" width="63" height="63">
<path fill-rule="evenodd" clip-rule="evenodd" d="M517.316 377.777L503.155 396.377C502.572 397.142 501.67 397.595 500.709 397.601H500.688C499.736 397.601 498.837 397.161 498.248 396.411L490.709 386.779C489.655 385.434 489.89 383.484 491.239 382.43C492.584 381.373 494.537 381.608 495.591 382.96L500.654 389.427L512.384 374.023C513.419 372.662 515.363 372.395 516.73 373.434C518.091 374.472 518.355 376.416 517.316 377.777ZM504.002 354.201C486.88 354.201 473.002 368.08 473.002 385.201C473.002 402.32 486.88 416.201 504.002 416.201C521.123 416.201 535.002 402.32 535.002 385.201C535.002 368.08 521.123 354.201 504.002 354.201Z" fill="white"/>
</mask>
<g mask="url(#mask2_271_924)">
<rect x="466.8" y="348" width="74.4" height="74.4" fill="white"/>
</g>
</g>
<defs>
<filter id="filter0_d_271_924" x="0" y="0" width="701" height="598" filterUnits="userSpaceOnUse" color-interpolation-filters="sRGB">
<feFlood flood-opacity="0" result="BackgroundImageFix"/>
<feColorMatrix in="SourceAlpha" type="matrix" values="0 0 0 0 0 0 0 0 0 0 0 0 0 0 0 0 0 0 127 0" result="hardAlpha"/>
<feOffset dx="8" dy="24"/>
<feGaussianBlur stdDeviation="48"/>
<feComposite in2="hardAlpha" operator="out"/>
<feColorMatrix type="matrix" values="0 0 0 0 0.494118 0 0 0 0 0.541176 0 0 0 0 0.992157 0 0 0 0.08 0"/>
<feBlend mode="normal" in2="BackgroundImageFix" result="effect1_dropShadow_271_924"/>
<feBlend mode="normal" in="SourceGraphic" in2="effect1_dropShadow_271_924" result="shape"/>
</filter>
<linearGradient id="paint0_linear_271_924" x1="114.672" y1="98.6725" x2="160.182" y2="297.173" gradientUnits="userSpaceOnUse">
<stop stop-color="#AC60E5"/>
<stop offset="1" stop-color="#0C87F0"/>
</linearGradient>
<linearGradient id="paint1_linear_271_924" x1="505.573" y1="-9.4312" x2="474.341" y2="257.263" gradientUnits="userSpaceOnUse">
<stop stop-color="white"/>
<stop offset="0.0001" stop-color="white"/>
<stop offset="1" stop-color="white" stop-opacity="0"/>
</linearGradient>
<linearGradient id="paint2_linear_271_924" x1="355.295" y1="213.756" x2="355.295" y2="492.92" gradientUnits="userSpaceOnUse">
<stop stop-color="#F3F0FF"/>
<stop offset="1" stop-color="#F1EDFF" stop-opacity="0"/>
</linearGradient>
<linearGradient id="paint3_linear_271_924" x1="411" y1="292" x2="597" y2="478" gradientUnits="userSpaceOnUse">
<stop stop-color="#AC60E5"/>
<stop offset="1" stop-color="#0C87F0"/>
</linearGradient>
<clipPath id="clip0_271_924">
<rect x="88" y="72" width="509" height="315.624" rx="11.1135" fill="white"/>
</clipPath>
<clipPath id="clip1_271_924">
<rect x="114.672" y="98.6725" width="455.655" height="104.467" rx="11.1135" fill="white"/>
</clipPath>
<clipPath id="clip2_271_924">
<rect width="26.6725" height="26.6725" fill="white" transform="translate(525.873 116.454)"/>
</clipPath>
</defs>
</svg>
