<svg xmlns="http://www.w3.org/2000/svg" xmlns:xlink="http://www.w3.org/1999/xlink" width="420" zoomAndPan="magnify" viewBox="0 0 315 314.999992" height="420" preserveAspectRatio="xMidYMid meet" version="1.0"><defs><g/><clipPath id="ac44596da9"><path d="M 76 21.34375 L 242.589844 21.34375 L 242.589844 133 L 76 133 Z M 76 21.34375 " clip-rule="nonzero"/></clipPath><clipPath id="fe5ce6f17a"><path d="M 73.089844 108 L 240 108 L 240 176 L 73.089844 176 Z M 73.089844 108 " clip-rule="nonzero"/></clipPath><clipPath id="a3b567b814"><path d="M 160 177 L 188 177 L 188 214.84375 L 160 214.84375 Z M 160 177 " clip-rule="nonzero"/></clipPath><clipPath id="0b50b39d60"><path d="M 127 177 L 156 177 L 156 214.84375 L 127 214.84375 Z M 127 177 " clip-rule="nonzero"/></clipPath></defs><path fill="#5ce1e6" d="M 198.753906 120.546875 C 198.753906 126.664062 193.792969 131.640625 187.660156 131.640625 C 181.53125 131.640625 176.570312 126.675781 176.570312 120.546875 C 176.570312 114.414062 181.53125 109.453125 187.660156 109.453125 C 193.792969 109.453125 198.753906 114.414062 198.753906 120.546875 Z M 198.753906 120.546875 " fill-opacity="1" fill-rule="nonzero"/><path fill="#5ce1e6" d="M 128.027344 109.453125 C 134.144531 109.453125 139.117188 114.414062 139.117188 120.546875 C 139.117188 126.664062 134.15625 131.640625 128.027344 131.640625 C 121.894531 131.640625 116.933594 126.664062 116.933594 120.546875 C 116.933594 114.414062 121.894531 109.453125 128.027344 109.453125 Z M 128.027344 109.453125 " fill-opacity="1" fill-rule="nonzero"/><g clip-path="url(#ac44596da9)"><path fill="#5ce1e6" d="M 224.964844 132.359375 L 242.53125 132.359375 C 242.542969 131.972656 242.589844 131.59375 242.589844 131.214844 L 242.589844 109.867188 C 242.589844 85.285156 222.589844 65.289062 198.011719 65.289062 L 161.808594 65.289062 L 161.808594 46.183594 C 166.898438 44.5 170.597656 39.765625 170.597656 34.117188 C 170.597656 27.070312 164.878906 21.351562 157.832031 21.351562 C 150.785156 21.351562 145.066406 27.070312 145.066406 34.117188 C 145.066406 39.765625 148.769531 44.511719 153.855469 46.183594 L 153.855469 65.300781 L 117.667969 65.300781 C 99.089844 65.300781 83.148438 76.734375 76.457031 92.917969 L 96.683594 92.917969 C 101.632812 86.796875 109.199219 82.867188 117.667969 82.867188 L 198.023438 82.867188 C 212.90625 82.867188 225.019531 94.980469 225.019531 109.867188 L 225.019531 131.214844 C 225.019531 131.605469 224.976562 131.984375 224.964844 132.359375 Z M 156.742188 28.617188 C 156.742188 30.609375 155.128906 32.226562 153.132812 32.226562 C 151.140625 32.226562 149.523438 30.609375 149.523438 28.617188 C 149.523438 26.621094 151.140625 25.007812 153.132812 25.007812 C 155.128906 25.007812 156.742188 26.632812 156.742188 28.617188 Z M 156.742188 28.617188 " fill-opacity="1" fill-rule="nonzero"/></g><g clip-path="url(#fe5ce6f17a)"><path fill="#5ce1e6" d="M 73.15625 108.71875 L 90.734375 108.71875 C 90.722656 109.109375 90.679688 109.488281 90.679688 109.867188 L 90.679688 131.214844 C 90.679688 146.101562 102.792969 158.214844 117.675781 158.214844 L 198.03125 158.214844 C 206.5 158.214844 214.066406 154.285156 219.015625 148.164062 L 239.242188 148.164062 C 232.5625 164.355469 216.609375 175.78125 198.03125 175.78125 L 117.667969 175.78125 C 93.085938 175.78125 73.089844 155.785156 73.089844 131.203125 L 73.089844 109.867188 C 73.089844 109.476562 73.144531 109.097656 73.15625 108.71875 Z M 73.15625 108.71875 " fill-opacity="1" fill-rule="nonzero"/></g><g clip-path="url(#a3b567b814)"><path fill="#5ce1e6" d="M 187.925781 182.117188 L 187.925781 210.46875 L 182.722656 215.019531 L 160.421875 200.890625 L 160.421875 191.6875 L 182.722656 177.558594 Z M 187.925781 182.117188 " fill-opacity="1" fill-rule="nonzero"/></g><g clip-path="url(#0b50b39d60)"><path fill="#5ce1e6" d="M 155.265625 191.6875 L 155.265625 200.890625 L 132.964844 215.019531 L 127.761719 210.46875 L 127.761719 182.117188 L 132.964844 177.558594 Z M 155.265625 191.6875 " fill-opacity="1" fill-rule="nonzero"/></g><path fill="#5ce1e6" d="M 156.011719 191.792969 L 159.675781 191.792969 L 159.675781 200.785156 L 156.011719 200.785156 Z M 156.011719 191.792969 " fill-opacity="1" fill-rule="nonzero"/><g fill="#ffffff" fill-opacity="1"><g transform="translate(48.743706, 283.017965)"><g><path d="M 40.546875 0 L 9.65625 0 C 8.238281 0 6.941406 -0.34375 5.765625 -1.03125 C 4.585938 -1.726562 3.65625 -2.660156 2.96875 -3.828125 C 2.28125 -5.003906 1.9375 -6.300781 1.9375 -7.71875 L 1.9375 -30.890625 C 1.9375 -32.304688 2.28125 -33.597656 2.96875 -34.765625 C 3.65625 -35.941406 4.585938 -36.875 5.765625 -37.5625 C 6.941406 -38.257812 8.238281 -38.609375 9.65625 -38.609375 L 40.546875 -38.609375 L 40.546875 -30.890625 L 9.65625 -30.890625 L 9.65625 -7.71875 L 40.546875 -7.71875 Z M 40.546875 0 "/></g></g></g><g fill="#ffffff" fill-opacity="1"><g transform="translate(92.660224, 283.017965)"><g><path d="M 40.546875 -38.609375 L 40.546875 -30.890625 L 9.65625 -30.890625 L 9.65625 -23.171875 L 40.546875 -23.171875 L 40.546875 -15.4375 L 9.65625 -15.4375 L 9.65625 -7.71875 L 40.546875 -7.71875 L 40.546875 0 L 9.65625 0 C 8.238281 0 6.941406 -0.34375 5.765625 -1.03125 C 4.585938 -1.726562 3.65625 -2.660156 2.96875 -3.828125 C 2.28125 -5.003906 1.9375 -6.300781 1.9375 -7.71875 L 1.9375 -30.890625 C 1.9375 -32.304688 2.28125 -33.597656 2.96875 -34.765625 C 3.65625 -35.941406 4.585938 -36.875 5.765625 -37.5625 C 6.941406 -38.257812 8.238281 -38.609375 9.65625 -38.609375 Z M 40.546875 -38.609375 "/></g></g></g><g fill="#ffffff" fill-opacity="1"><g transform="translate(136.576742, 283.017965)"><g><path d="M 40.546875 -30.890625 L 40.546875 -23.171875 C 40.546875 -21.753906 40.195312 -20.457031 39.5 -19.28125 C 38.8125 -18.101562 37.878906 -17.164062 36.703125 -16.46875 C 35.523438 -15.78125 34.234375 -15.4375 32.828125 -15.4375 L 25.09375 -15.4375 L 32.828125 -7.71875 L 40.546875 -7.71875 L 40.546875 0 L 31.28125 0 C 30.1875 0 29.253906 -0.382812 28.484375 -1.15625 L 14.1875 -15.4375 L 9.65625 -15.4375 L 9.65625 0 L 1.9375 0 L 1.9375 -38.609375 L 32.828125 -38.609375 C 34.234375 -38.609375 35.523438 -38.257812 36.703125 -37.5625 C 37.878906 -36.875 38.8125 -35.941406 39.5 -34.765625 C 40.195312 -33.597656 40.546875 -32.304688 40.546875 -30.890625 Z M 32.828125 -30.890625 L 9.65625 -30.890625 L 9.65625 -23.171875 L 32.828125 -23.171875 Z M 32.828125 -30.890625 "/></g></g></g><g fill="#ffffff" fill-opacity="1"><g transform="translate(180.493263, 283.017965)"><g><path d="M 40.546875 -38.609375 L 40.546875 -30.890625 L 9.65625 -30.890625 L 9.65625 -23.171875 L 40.546875 -23.171875 L 40.546875 -15.4375 L 9.65625 -15.4375 L 9.65625 -7.71875 L 40.546875 -7.71875 L 40.546875 0 L 9.65625 0 C 8.238281 0 6.941406 -0.34375 5.765625 -1.03125 C 4.585938 -1.726562 3.65625 -2.660156 2.96875 -3.828125 C 2.28125 -5.003906 1.9375 -6.300781 1.9375 -7.71875 L 1.9375 -30.890625 C 1.9375 -32.304688 2.28125 -33.597656 2.96875 -34.765625 C 3.65625 -35.941406 4.585938 -36.875 5.765625 -37.5625 C 6.941406 -38.257812 8.238281 -38.609375 9.65625 -38.609375 Z M 40.546875 -38.609375 "/></g></g></g><g fill="#ffffff" fill-opacity="1"><g transform="translate(224.409778, 283.017965)"><g><path d="M 9.65625 -38.609375 L 32.828125 -38.609375 C 34.234375 -38.609375 35.523438 -38.257812 36.703125 -37.5625 C 37.878906 -36.875 38.8125 -35.941406 39.5 -34.765625 C 40.195312 -33.597656 40.546875 -32.304688 40.546875 -30.890625 L 40.546875 0 L 32.828125 0 L 32.828125 -30.890625 L 25.09375 -30.890625 L 25.09375 0 L 17.375 0 L 17.375 -30.890625 L 9.65625 -30.890625 L 9.65625 0 L 1.9375 0 L 1.9375 -30.890625 C 1.9375 -32.304688 2.28125 -33.597656 2.96875 -34.765625 C 3.65625 -35.941406 4.585938 -36.875 5.765625 -37.5625 C 6.941406 -38.257812 8.238281 -38.609375 9.65625 -38.609375 Z M 9.65625 -38.609375 "/></g></g></g></svg>