<svg xmlns="http://www.w3.org/2000/svg" xmlns:xlink="http://www.w3.org/1999/xlink" width="420" zoomAndPan="magnify" viewBox="0 0 315 314.999992" height="420" preserveAspectRatio="xMidYMid meet" version="1.0"><defs><clipPath id="b9b4c25e12"><path d="M 36 16.414062 L 278.25 16.414062 L 278.25 179 L 36 179 Z M 36 16.414062 " clip-rule="nonzero"/></clipPath><clipPath id="f74f2744b4"><path d="M 31.5 143 L 274 143 L 274 242 L 31.5 242 Z M 31.5 143 " clip-rule="nonzero"/></clipPath><clipPath id="f1ce8bca64"><path d="M 158 243 L 199 243 L 199 298.414062 L 158 298.414062 Z M 158 243 " clip-rule="nonzero"/></clipPath><clipPath id="2c156d4ed0"><path d="M 111 243 L 152 243 L 152 298.414062 L 111 298.414062 Z M 111 243 " clip-rule="nonzero"/></clipPath></defs><path fill="#f7fafc" d="M 214.578125 160.9375 C 214.578125 169.851562 207.351562 177.097656 198.417969 177.097656 C 189.484375 177.097656 182.257812 169.867188 182.257812 160.9375 C 182.257812 152.003906 189.484375 144.777344 198.417969 144.777344 C 207.351562 144.777344 214.578125 152.003906 214.578125 160.9375 Z M 214.578125 160.9375 " fill-opacity="1" fill-rule="nonzero"/><path fill="#f7fafc" d="M 111.535156 144.777344 C 120.453125 144.777344 127.699219 152.003906 127.699219 160.9375 C 127.699219 169.851562 120.46875 177.097656 111.535156 177.097656 C 102.605469 177.097656 95.375 169.851562 95.375 160.9375 C 95.375 152.003906 102.605469 144.777344 111.535156 144.777344 Z M 111.535156 144.777344 " fill-opacity="1" fill-rule="nonzero"/><g clip-path="url(#b9b4c25e12)"><path fill="#f7fafc" d="M 252.761719 178.148438 L 278.355469 178.148438 C 278.371094 177.582031 278.4375 177.03125 278.4375 176.480469 L 278.4375 145.375 C 278.4375 109.566406 249.304688 80.433594 213.492188 80.433594 L 160.753906 80.433594 L 160.753906 52.601562 C 168.167969 50.148438 173.558594 43.253906 173.558594 35.023438 C 173.558594 24.753906 165.226562 16.421875 154.960938 16.421875 C 144.691406 16.421875 136.363281 24.753906 136.363281 35.023438 C 136.363281 43.253906 141.753906 50.164062 149.167969 52.601562 L 149.167969 80.449219 L 96.445312 80.449219 C 69.382812 80.449219 46.160156 97.109375 36.410156 120.683594 L 65.875 120.683594 C 73.085938 111.769531 84.105469 106.042969 96.445312 106.042969 L 213.511719 106.042969 C 235.195312 106.042969 252.84375 123.691406 252.84375 145.375 L 252.84375 176.480469 C 252.84375 177.046875 252.777344 177.597656 252.761719 178.148438 Z M 153.375 27.007812 C 153.375 29.914062 151.019531 32.265625 148.117188 32.265625 C 145.210938 32.265625 142.855469 29.914062 142.855469 27.007812 C 142.855469 24.105469 145.210938 21.75 148.117188 21.75 C 151.019531 21.75 153.375 24.121094 153.375 27.007812 Z M 153.375 27.007812 " fill-opacity="1" fill-rule="nonzero"/></g><g clip-path="url(#f74f2744b4)"><path fill="#f7fafc" d="M 31.601562 143.707031 L 57.210938 143.707031 C 57.195312 144.273438 57.128906 144.824219 57.128906 145.375 L 57.128906 176.480469 C 57.128906 198.167969 74.773438 215.8125 96.460938 215.8125 L 213.527344 215.8125 C 225.863281 215.8125 236.882812 210.085938 244.09375 201.171875 L 273.5625 201.171875 C 263.828125 224.761719 240.589844 241.40625 213.527344 241.40625 L 96.445312 241.40625 C 60.632812 241.40625 31.5 212.273438 31.5 176.464844 L 31.5 145.375 C 31.5 144.808594 31.582031 144.257812 31.601562 143.707031 Z M 31.601562 143.707031 " fill-opacity="1" fill-rule="nonzero"/></g><g clip-path="url(#f1ce8bca64)"><path fill="#f7fafc" d="M 198.800781 250.640625 L 198.800781 291.941406 L 191.222656 298.570312 L 158.734375 277.984375 L 158.734375 264.578125 L 191.222656 243.996094 Z M 198.800781 250.640625 " fill-opacity="1" fill-rule="nonzero"/></g><g clip-path="url(#2c156d4ed0)"><path fill="#f7fafc" d="M 151.21875 264.578125 L 151.21875 277.984375 L 118.730469 298.570312 L 111.152344 291.941406 L 111.152344 250.640625 L 118.730469 243.996094 Z M 151.21875 264.578125 " fill-opacity="1" fill-rule="nonzero"/></g><path fill="#f7fafc" d="M 152.304688 264.730469 L 157.648438 264.730469 L 157.648438 277.835938 L 152.304688 277.835938 Z M 152.304688 264.730469 " fill-opacity="1" fill-rule="nonzero"/></svg>