<svg xmlns="http://www.w3.org/2000/svg" xmlns:xlink="http://www.w3.org/1999/xlink" width="420" zoomAndPan="magnify" viewBox="0 0 315 314.999992" height="420" preserveAspectRatio="xMidYMid meet" version="1.0"><defs><g/></defs><g fill="#08121f" fill-opacity="1"><g transform="translate(9.529559, 185.978419)"><g><path d="M 54.421875 0 L 12.953125 0 C 11.054688 0 9.316406 -0.460938 7.734375 -1.390625 C 6.160156 -2.316406 4.910156 -3.566406 3.984375 -5.140625 C 3.054688 -6.722656 2.59375 -8.46875 2.59375 -10.375 L 2.59375 -41.46875 C 2.59375 -43.375 3.054688 -45.113281 3.984375 -46.6875 C 4.910156 -48.257812 6.160156 -49.507812 7.734375 -50.4375 C 9.316406 -51.375 11.054688 -51.84375 12.953125 -51.84375 L 54.421875 -51.84375 L 54.421875 -41.46875 L 12.953125 -41.46875 L 12.953125 -10.375 L 54.421875 -10.375 Z M 54.421875 0 "/></g></g></g><g fill="#08121f" fill-opacity="1"><g transform="translate(68.480887, 185.978419)"><g><path d="M 54.421875 -51.84375 L 54.421875 -41.46875 L 12.953125 -41.46875 L 12.953125 -31.109375 L 54.421875 -31.109375 L 54.421875 -20.734375 L 12.953125 -20.734375 L 12.953125 -10.375 L 54.421875 -10.375 L 54.421875 0 L 12.953125 0 C 11.054688 0 9.316406 -0.460938 7.734375 -1.390625 C 6.160156 -2.316406 4.910156 -3.566406 3.984375 -5.140625 C 3.054688 -6.722656 2.59375 -8.46875 2.59375 -10.375 L 2.59375 -41.46875 C 2.59375 -43.375 3.054688 -45.113281 3.984375 -46.6875 C 4.910156 -48.257812 6.160156 -49.507812 7.734375 -50.4375 C 9.316406 -51.375 11.054688 -51.84375 12.953125 -51.84375 Z M 54.421875 -51.84375 "/></g></g></g><g fill="#08121f" fill-opacity="1"><g transform="translate(127.432215, 185.978419)"><g><path d="M 54.421875 -41.46875 L 54.421875 -31.109375 C 54.421875 -29.203125 53.957031 -27.457031 53.03125 -25.875 C 52.101562 -24.300781 50.847656 -23.050781 49.265625 -22.125 C 47.691406 -21.195312 45.957031 -20.734375 44.0625 -20.734375 L 33.6875 -20.734375 L 44.0625 -10.375 L 54.421875 -10.375 L 54.421875 0 L 41.984375 0 C 40.515625 0 39.265625 -0.519531 38.234375 -1.5625 L 19.046875 -20.734375 L 12.953125 -20.734375 L 12.953125 0 L 2.59375 0 L 2.59375 -51.84375 L 44.0625 -51.84375 C 45.957031 -51.84375 47.691406 -51.375 49.265625 -50.4375 C 50.847656 -49.507812 52.101562 -48.257812 53.03125 -46.6875 C 53.957031 -45.113281 54.421875 -43.375 54.421875 -41.46875 Z M 44.0625 -41.46875 L 12.953125 -41.46875 L 12.953125 -31.109375 L 44.0625 -31.109375 Z M 44.0625 -41.46875 "/></g></g></g><g fill="#08121f" fill-opacity="1"><g transform="translate(186.383543, 185.978419)"><g><path d="M 54.421875 -51.84375 L 54.421875 -41.46875 L 12.953125 -41.46875 L 12.953125 -31.109375 L 54.421875 -31.109375 L 54.421875 -20.734375 L 12.953125 -20.734375 L 12.953125 -10.375 L 54.421875 -10.375 L 54.421875 0 L 12.953125 0 C 11.054688 0 9.316406 -0.460938 7.734375 -1.390625 C 6.160156 -2.316406 4.910156 -3.566406 3.984375 -5.140625 C 3.054688 -6.722656 2.59375 -8.46875 2.59375 -10.375 L 2.59375 -41.46875 C 2.59375 -43.375 3.054688 -45.113281 3.984375 -46.6875 C 4.910156 -48.257812 6.160156 -49.507812 7.734375 -50.4375 C 9.316406 -51.375 11.054688 -51.84375 12.953125 -51.84375 Z M 54.421875 -51.84375 "/></g></g></g><g fill="#08121f" fill-opacity="1"><g transform="translate(245.334871, 185.978419)"><g><path d="M 12.953125 -51.84375 L 44.0625 -51.84375 C 45.957031 -51.84375 47.691406 -51.375 49.265625 -50.4375 C 50.847656 -49.507812 52.101562 -48.257812 53.03125 -46.6875 C 53.957031 -45.113281 54.421875 -43.375 54.421875 -41.46875 L 54.421875 0 L 44.0625 0 L 44.0625 -41.46875 L 33.6875 -41.46875 L 33.6875 0 L 23.328125 0 L 23.328125 -41.46875 L 12.953125 -41.46875 L 12.953125 0 L 2.59375 0 L 2.59375 -41.46875 C 2.59375 -43.375 3.054688 -45.113281 3.984375 -46.6875 C 4.910156 -48.257812 6.160156 -49.507812 7.734375 -50.4375 C 9.316406 -51.375 11.054688 -51.84375 12.953125 -51.84375 Z M 12.953125 -51.84375 "/></g></g></g></svg>