<svg width="146" height="48" viewBox="0 0 146 48" fill="none" xmlns="http://www.w3.org/2000/svg">
<path d="M13.2775 22.3182C14.0998 19.2499 17.2537 16.096 20.322 15.2737L39.4509 10.1474C42.5192 9.3251 44.3399 11.1459 43.5177 14.2141L38.3913 33.3431C37.569 36.4114 34.4151 39.5653 31.3469 40.3875L12.2179 45.5139C9.14963 46.3362 7.32888 44.5154 8.15115 41.4471L13.2775 22.3182Z" fill="#CDD0D8"/>
<path d="M5.60882 14.6493C6.43108 11.5811 9.58498 8.42717 12.6533 7.60491L31.7822 2.47854C34.8505 1.65628 36.6713 3.47702 35.849 6.54529L30.7226 25.6743C29.9004 28.7425 26.7465 31.8964 23.6782 32.7187L4.5492 37.8451C1.48093 38.6673 -0.339816 36.8466 0.482448 33.7783L5.60882 14.6493Z" fill="#CDD0D8"/>
<path d="M61.292 31.424H67.872V34H58.1V14.54H61.292V31.424Z" fill="#CDD0D8"/>
<path d="M69.4774 26.216C69.4774 24.6667 69.7947 23.2947 70.4294 22.1C71.0827 20.9054 71.96 19.9814 73.0614 19.328C74.1814 18.656 75.4134 18.32 76.7574 18.32C77.9707 18.32 79.0254 18.5627 79.9214 19.048C80.836 19.5147 81.564 20.1027 82.1054 20.812V18.572H85.3254V34H82.1054V31.704C81.564 32.432 80.8267 33.0387 79.8934 33.524C78.96 34.0094 77.896 34.252 76.7014 34.252C75.376 34.252 74.1627 33.916 73.0614 33.244C71.96 32.5534 71.0827 31.6014 70.4294 30.388C69.7947 29.156 69.4774 27.7654 69.4774 26.216ZM82.1054 26.272C82.1054 25.208 81.8814 24.284 81.4334 23.5C81.004 22.716 80.4347 22.1187 79.7254 21.708C79.016 21.2974 78.2507 21.092 77.4294 21.092C76.608 21.092 75.8427 21.2974 75.1334 21.708C74.424 22.1 73.8454 22.688 73.3974 23.472C72.968 24.2374 72.7534 25.152 72.7534 26.216C72.7534 27.28 72.968 28.2134 73.3974 29.016C73.8454 29.8187 74.424 30.4347 75.1334 30.864C75.8614 31.2747 76.6267 31.48 77.4294 31.48C78.2507 31.48 79.016 31.2747 79.7254 30.864C80.4347 30.4534 81.004 29.856 81.4334 29.072C81.8814 28.2694 82.1054 27.336 82.1054 26.272Z" fill="#CDD0D8"/>
<path d="M103.406 18.572L93.9419 41.252H90.6379L93.7739 33.748L87.6979 18.572H91.2539L95.5939 30.332L100.102 18.572H103.406Z" fill="#CDD0D8"/>
<path d="M119.955 25.908C119.955 26.4867 119.917 27.0094 119.843 27.476H108.055C108.148 28.708 108.605 29.6974 109.427 30.444C110.248 31.1907 111.256 31.564 112.451 31.564C114.168 31.564 115.381 30.8454 116.091 29.408H119.535C119.068 30.8267 118.219 31.9934 116.987 32.908C115.773 33.804 114.261 34.252 112.451 34.252C110.976 34.252 109.651 33.9254 108.475 33.272C107.317 32.6 106.403 31.6667 105.731 30.472C105.077 29.2587 104.751 27.8587 104.751 26.272C104.751 24.6854 105.068 23.2947 105.703 22.1C106.356 20.8867 107.261 19.9534 108.419 19.3C109.595 18.6467 110.939 18.32 112.451 18.32C113.907 18.32 115.204 18.6374 116.343 19.272C117.481 19.9067 118.368 20.8027 119.003 21.96C119.637 23.0987 119.955 24.4147 119.955 25.908ZM116.623 24.9C116.604 23.724 116.184 22.7814 115.363 22.072C114.541 21.3627 113.524 21.008 112.311 21.008C111.209 21.008 110.267 21.3627 109.483 22.072C108.699 22.7627 108.232 23.7054 108.083 24.9H116.623Z" fill="#CDD0D8"/>
<path d="M126.288 20.812C126.755 20.028 127.371 19.4214 128.136 18.992C128.92 18.544 129.844 18.32 130.908 18.32V21.624H130.096C128.845 21.624 127.893 21.9414 127.24 22.576C126.605 23.2107 126.288 24.312 126.288 25.88V34H123.096V18.572H126.288V20.812Z" fill="#CDD0D8"/>
<path d="M139.442 34.252C138.229 34.252 137.137 34.0374 136.166 33.608C135.214 33.16 134.458 32.5627 133.898 31.816C133.338 31.0507 133.039 30.2014 133.002 29.268H136.306C136.362 29.9214 136.67 30.472 137.23 30.92C137.809 31.3494 138.527 31.564 139.386 31.564C140.282 31.564 140.973 31.396 141.458 31.06C141.962 30.7054 142.214 30.2574 142.214 29.716C142.214 29.1374 141.934 28.708 141.374 28.428C140.833 28.148 139.965 27.84 138.77 27.504C137.613 27.1867 136.67 26.8787 135.942 26.58C135.214 26.2814 134.579 25.824 134.038 25.208C133.515 24.592 133.254 23.78 133.254 22.772C133.254 21.9507 133.497 21.204 133.982 20.532C134.467 19.8414 135.158 19.3 136.054 18.908C136.969 18.516 138.014 18.32 139.19 18.32C140.945 18.32 142.354 18.768 143.418 19.664C144.501 20.5414 145.079 21.7454 145.154 23.276H141.962C141.906 22.5854 141.626 22.0347 141.122 21.624C140.618 21.2134 139.937 21.008 139.078 21.008C138.238 21.008 137.594 21.1667 137.146 21.484C136.698 21.8014 136.474 22.2214 136.474 22.744C136.474 23.1547 136.623 23.5 136.922 23.78C137.221 24.06 137.585 24.284 138.014 24.452C138.443 24.6014 139.078 24.7974 139.918 25.04C141.038 25.3387 141.953 25.6467 142.662 25.964C143.39 26.2627 144.015 26.7107 144.538 27.308C145.061 27.9054 145.331 28.6987 145.35 29.688C145.35 30.5654 145.107 31.3494 144.622 32.04C144.137 32.7307 143.446 33.272 142.55 33.664C141.673 34.056 140.637 34.252 139.442 34.252Z" fill="#CDD0D8"/>
</svg>
