<svg width="64" height="65" viewBox="0 0 64 65" fill="none" xmlns="http://www.w3.org/2000/svg">
<rect y="0.5" width="64" height="64" rx="10" fill="url(#paint0_linear_271_858)"/>
<path fill-rule="evenodd" clip-rule="evenodd" d="M41.3334 43.1666C40.5961 43.1666 40.0001 42.5706 40.0001 41.8333C40.0001 41.096 40.5961 40.5 41.3334 40.5C42.0707 40.5 42.6667 41.096 42.6667 41.8333C42.6667 42.5706 42.0707 43.1666 41.3334 43.1666ZM41.3334 37.8333C39.1281 37.8333 37.3334 39.628 37.3334 41.8333C37.3334 44.0386 39.1281 45.8333 41.3334 45.8333C43.5387 45.8333 45.3334 44.0386 45.3334 41.8333C45.3334 39.628 43.5387 37.8333 41.3334 37.8333ZM32.0001 43.1666C31.2627 43.1666 30.6667 42.5706 30.6667 41.8333C30.6667 41.096 31.2627 40.5 32.0001 40.5C32.7374 40.5 33.3334 41.096 33.3334 41.8333C33.3334 42.5706 32.7374 43.1666 32.0001 43.1666ZM32.0001 37.8333C29.7947 37.8333 28.0001 39.628 28.0001 41.8333C28.0001 44.0386 29.7947 45.8333 32.0001 45.8333C34.2054 45.8333 36.0001 44.0386 36.0001 41.8333C36.0001 39.628 34.2054 37.8333 32.0001 37.8333ZM22.6667 43.1666C21.9294 43.1666 21.3334 42.5706 21.3334 41.8333C21.3334 41.096 21.9294 40.5 22.6667 40.5C23.4041 40.5 24.0001 41.096 24.0001 41.8333C24.0001 42.5706 23.4041 43.1666 22.6667 43.1666ZM22.6667 37.8333C20.4614 37.8333 18.6667 39.628 18.6667 41.8333C18.6667 44.0386 20.4614 45.8333 22.6667 45.8333C24.8721 45.8333 26.6667 44.0386 26.6667 41.8333C26.6667 39.628 24.8721 37.8333 22.6667 37.8333ZM41.3334 33.8333C40.5961 33.8333 40.0001 33.2373 40.0001 32.5C40.0001 31.7626 40.5961 31.1666 41.3334 31.1666C42.0707 31.1666 42.6667 31.7626 42.6667 32.5C42.6667 33.2373 42.0707 33.8333 41.3334 33.8333ZM41.3334 28.5C39.1281 28.5 37.3334 30.2946 37.3334 32.5C37.3334 34.7053 39.1281 36.5 41.3334 36.5C43.5387 36.5 45.3334 34.7053 45.3334 32.5C45.3334 30.2946 43.5387 28.5 41.3334 28.5ZM32.0001 33.8333C31.2627 33.8333 30.6667 33.2373 30.6667 32.5C30.6667 31.7626 31.2627 31.1666 32.0001 31.1666C32.7374 31.1666 33.3334 31.7626 33.3334 32.5C33.3334 33.2373 32.7374 33.8333 32.0001 33.8333ZM32.0001 28.5C29.7947 28.5 28.0001 30.2946 28.0001 32.5C28.0001 34.7053 29.7947 36.5 32.0001 36.5C34.2054 36.5 36.0001 34.7053 36.0001 32.5C36.0001 30.2946 34.2054 28.5 32.0001 28.5ZM22.6667 33.8333C21.9294 33.8333 21.3334 33.2373 21.3334 32.5C21.3334 31.7626 21.9294 31.1666 22.6667 31.1666C23.4041 31.1666 24.0001 31.7626 24.0001 32.5C24.0001 33.2373 23.4041 33.8333 22.6667 33.8333ZM22.6667 28.5C20.4614 28.5 18.6667 30.2946 18.6667 32.5C18.6667 34.7053 20.4614 36.5 22.6667 36.5C24.8721 36.5 26.6667 34.7053 26.6667 32.5C26.6667 30.2946 24.8721 28.5 22.6667 28.5ZM41.3334 21.8333C42.0707 21.8333 42.6667 22.4293 42.6667 23.1666C42.6667 23.904 42.0707 24.5 41.3334 24.5C40.5961 24.5 40.0001 23.904 40.0001 23.1666C40.0001 22.4293 40.5961 21.8333 41.3334 21.8333ZM41.3334 27.1666C43.5387 27.1666 45.3334 25.372 45.3334 23.1666C45.3334 20.9613 43.5387 19.1666 41.3334 19.1666C39.1281 19.1666 37.3334 20.9613 37.3334 23.1666C37.3334 25.372 39.1281 27.1666 41.3334 27.1666ZM32.0001 24.5C31.2627 24.5 30.6667 23.9026 30.6667 23.1666C30.6667 22.4293 31.2627 21.8333 32.0001 21.8333C32.7374 21.8333 33.3334 22.4293 33.3334 23.1666C33.3334 23.9026 32.7374 24.5 32.0001 24.5ZM32.0001 19.1666C29.7947 19.1666 28.0001 20.9613 28.0001 23.1666C28.0001 25.372 29.7947 27.1666 32.0001 27.1666C34.2054 27.1666 36.0001 25.372 36.0001 23.1666C36.0001 20.9613 34.2054 19.1666 32.0001 19.1666ZM22.6667 24.5C21.9294 24.5 21.3334 23.904 21.3334 23.1666C21.3334 22.4293 21.9294 21.8333 22.6667 21.8333C23.4041 21.8333 24.0001 22.4293 24.0001 23.1666C24.0001 23.904 23.4041 24.5 22.6667 24.5ZM22.6667 19.1666C20.4614 19.1666 18.6667 20.9613 18.6667 23.1666C18.6667 25.372 20.4614 27.1666 22.6667 27.1666C24.8721 27.1666 26.6667 25.372 26.6667 23.1666C26.6667 20.9613 24.8721 19.1666 22.6667 19.1666Z" fill="#03133D"/>
<mask id="mask0_271_858" style="mask-type:luminance" maskUnits="userSpaceOnUse" x="18" y="19" width="28" height="27">
<path fill-rule="evenodd" clip-rule="evenodd" d="M41.3334 43.1666C40.5961 43.1666 40.0001 42.5706 40.0001 41.8333C40.0001 41.096 40.5961 40.5 41.3334 40.5C42.0707 40.5 42.6667 41.096 42.6667 41.8333C42.6667 42.5706 42.0707 43.1666 41.3334 43.1666ZM41.3334 37.8333C39.1281 37.8333 37.3334 39.628 37.3334 41.8333C37.3334 44.0386 39.1281 45.8333 41.3334 45.8333C43.5387 45.8333 45.3334 44.0386 45.3334 41.8333C45.3334 39.628 43.5387 37.8333 41.3334 37.8333ZM32.0001 43.1666C31.2627 43.1666 30.6667 42.5706 30.6667 41.8333C30.6667 41.096 31.2627 40.5 32.0001 40.5C32.7374 40.5 33.3334 41.096 33.3334 41.8333C33.3334 42.5706 32.7374 43.1666 32.0001 43.1666ZM32.0001 37.8333C29.7947 37.8333 28.0001 39.628 28.0001 41.8333C28.0001 44.0386 29.7947 45.8333 32.0001 45.8333C34.2054 45.8333 36.0001 44.0386 36.0001 41.8333C36.0001 39.628 34.2054 37.8333 32.0001 37.8333ZM22.6667 43.1666C21.9294 43.1666 21.3334 42.5706 21.3334 41.8333C21.3334 41.096 21.9294 40.5 22.6667 40.5C23.4041 40.5 24.0001 41.096 24.0001 41.8333C24.0001 42.5706 23.4041 43.1666 22.6667 43.1666ZM22.6667 37.8333C20.4614 37.8333 18.6667 39.628 18.6667 41.8333C18.6667 44.0386 20.4614 45.8333 22.6667 45.8333C24.8721 45.8333 26.6667 44.0386 26.6667 41.8333C26.6667 39.628 24.8721 37.8333 22.6667 37.8333ZM41.3334 33.8333C40.5961 33.8333 40.0001 33.2373 40.0001 32.5C40.0001 31.7626 40.5961 31.1666 41.3334 31.1666C42.0707 31.1666 42.6667 31.7626 42.6667 32.5C42.6667 33.2373 42.0707 33.8333 41.3334 33.8333ZM41.3334 28.5C39.1281 28.5 37.3334 30.2946 37.3334 32.5C37.3334 34.7053 39.1281 36.5 41.3334 36.5C43.5387 36.5 45.3334 34.7053 45.3334 32.5C45.3334 30.2946 43.5387 28.5 41.3334 28.5ZM32.0001 33.8333C31.2627 33.8333 30.6667 33.2373 30.6667 32.5C30.6667 31.7626 31.2627 31.1666 32.0001 31.1666C32.7374 31.1666 33.3334 31.7626 33.3334 32.5C33.3334 33.2373 32.7374 33.8333 32.0001 33.8333ZM32.0001 28.5C29.7947 28.5 28.0001 30.2946 28.0001 32.5C28.0001 34.7053 29.7947 36.5 32.0001 36.5C34.2054 36.5 36.0001 34.7053 36.0001 32.5C36.0001 30.2946 34.2054 28.5 32.0001 28.5ZM22.6667 33.8333C21.9294 33.8333 21.3334 33.2373 21.3334 32.5C21.3334 31.7626 21.9294 31.1666 22.6667 31.1666C23.4041 31.1666 24.0001 31.7626 24.0001 32.5C24.0001 33.2373 23.4041 33.8333 22.6667 33.8333ZM22.6667 28.5C20.4614 28.5 18.6667 30.2946 18.6667 32.5C18.6667 34.7053 20.4614 36.5 22.6667 36.5C24.8721 36.5 26.6667 34.7053 26.6667 32.5C26.6667 30.2946 24.8721 28.5 22.6667 28.5ZM41.3334 21.8333C42.0707 21.8333 42.6667 22.4293 42.6667 23.1666C42.6667 23.904 42.0707 24.5 41.3334 24.5C40.5961 24.5 40.0001 23.904 40.0001 23.1666C40.0001 22.4293 40.5961 21.8333 41.3334 21.8333ZM41.3334 27.1666C43.5387 27.1666 45.3334 25.372 45.3334 23.1666C45.3334 20.9613 43.5387 19.1666 41.3334 19.1666C39.1281 19.1666 37.3334 20.9613 37.3334 23.1666C37.3334 25.372 39.1281 27.1666 41.3334 27.1666ZM32.0001 24.5C31.2627 24.5 30.6667 23.9026 30.6667 23.1666C30.6667 22.4293 31.2627 21.8333 32.0001 21.8333C32.7374 21.8333 33.3334 22.4293 33.3334 23.1666C33.3334 23.9026 32.7374 24.5 32.0001 24.5ZM32.0001 19.1666C29.7947 19.1666 28.0001 20.9613 28.0001 23.1666C28.0001 25.372 29.7947 27.1666 32.0001 27.1666C34.2054 27.1666 36.0001 25.372 36.0001 23.1666C36.0001 20.9613 34.2054 19.1666 32.0001 19.1666ZM22.6667 24.5C21.9294 24.5 21.3334 23.904 21.3334 23.1666C21.3334 22.4293 21.9294 21.8333 22.6667 21.8333C23.4041 21.8333 24.0001 22.4293 24.0001 23.1666C24.0001 23.904 23.4041 24.5 22.6667 24.5ZM22.6667 19.1666C20.4614 19.1666 18.6667 20.9613 18.6667 23.1666C18.6667 25.372 20.4614 27.1666 22.6667 27.1666C24.8721 27.1666 26.6667 25.372 26.6667 23.1666C26.6667 20.9613 24.8721 19.1666 22.6667 19.1666Z" fill="white"/>
</mask>
<g mask="url(#mask0_271_858)">
<rect x="16" y="16.5" width="32" height="32" fill="white"/>
</g>
<defs>
<linearGradient id="paint0_linear_271_858" x1="1.64848e-06" y1="43.299" x2="65.6422" y2="36.1549" gradientUnits="userSpaceOnUse">
<stop stop-color="#08121F"/>
<stop offset="1" stop-color="#5CE1E6"/>
</linearGradient>
</defs>
</svg>
