<svg width="64" height="65" viewBox="0 0 64 65" fill="none" xmlns="http://www.w3.org/2000/svg">
<rect y="0.5" width="64" height="64" rx="10" fill="url(#paint0_linear_271_767)"/>
<path fill-rule="evenodd" clip-rule="evenodd" d="M43.7617 35.2435C43.0643 34.9955 42.3043 35.3595 42.0603 36.0555C40.5563 40.3088 36.5123 43.1661 32.0003 43.1661C26.119 43.1661 21.3337 38.3821 21.3337 32.4994C21.3337 27.9874 24.191 23.9435 28.4443 22.4395C29.139 22.1955 29.503 21.4341 29.2577 20.7395C29.0123 20.0461 28.251 19.6808 27.5563 19.9275C22.239 21.8061 18.667 26.8581 18.667 32.4994C18.667 39.8514 24.6483 45.8328 32.0003 45.8328C37.6417 45.8328 42.6937 42.2621 44.5737 36.9434C44.819 36.2501 44.4563 35.4888 43.7617 35.2435M34.6667 29.8333V21.9279C38.748 22.5146 41.9853 25.7506 42.572 29.8333H34.6667ZM33.3333 19.1666C32.5973 19.1666 31.9999 19.7626 31.9999 20.5V31.1666C31.9999 31.904 32.5973 32.5 33.3333 32.5H43.9999C44.7359 32.5 45.3333 31.904 45.3333 31.1666C45.3333 24.5493 39.9493 19.1666 33.3333 19.1666V19.1666Z" fill="#03133D"/>
<mask id="mask0_271_767" style="mask-type:luminance" maskUnits="userSpaceOnUse" x="18" y="19" width="28" height="27">
<path fill-rule="evenodd" clip-rule="evenodd" d="M43.7617 35.2435C43.0643 34.9955 42.3043 35.3595 42.0603 36.0555C40.5563 40.3088 36.5123 43.1661 32.0003 43.1661C26.119 43.1661 21.3337 38.3821 21.3337 32.4994C21.3337 27.9874 24.191 23.9435 28.4443 22.4395C29.139 22.1955 29.503 21.4341 29.2577 20.7395C29.0123 20.0461 28.251 19.6808 27.5563 19.9275C22.239 21.8061 18.667 26.8581 18.667 32.4994C18.667 39.8514 24.6483 45.8328 32.0003 45.8328C37.6417 45.8328 42.6937 42.2621 44.5737 36.9434C44.819 36.2501 44.4563 35.4888 43.7617 35.2435M34.6667 29.8333V21.9279C38.748 22.5146 41.9853 25.7506 42.572 29.8333H34.6667ZM33.3333 19.1666C32.5973 19.1666 31.9999 19.7626 31.9999 20.5V31.1666C31.9999 31.904 32.5973 32.5 33.3333 32.5H43.9999C44.7359 32.5 45.3333 31.904 45.3333 31.1666C45.3333 24.5493 39.9493 19.1666 33.3333 19.1666V19.1666Z" fill="white"/>
</mask>
<g mask="url(#mask0_271_767)">
<rect x="16" y="16.5" width="32" height="32" fill="white"/>
</g>
<defs>
<linearGradient id="paint0_linear_271_767" x1="1.64848e-06" y1="43.299" x2="65.6422" y2="36.1549" gradientUnits="userSpaceOnUse">
<stop stop-color="#08121F"/>
<stop offset="1" stop-color="#5CE1E6"/>
</linearGradient>
</defs>
</svg>
