<svg width="64" height="65" viewBox="0 0 64 65" fill="none" xmlns="http://www.w3.org/2000/svg">
<rect y="0.5" width="64" height="64" rx="10" fill="url(#paint0_linear_271_865)"/>
<path fill-rule="evenodd" clip-rule="evenodd" d="M43.9897 25.7839C43.9871 25.6879 43.9591 25.5972 43.9338 25.5052C43.9137 25.4279 43.9044 25.3492 43.8711 25.2785C43.8404 25.2092 43.7884 25.1532 43.7431 25.0892C43.6871 25.0079 43.6364 24.9265 43.5644 24.8599C43.5524 24.8479 43.5471 24.8319 43.5338 24.8212C43.4858 24.7799 43.4271 24.7652 43.3751 24.7319C43.2951 24.6799 43.2164 24.6265 43.1258 24.5919C43.0364 24.5599 42.9484 24.5519 42.8564 24.5385C42.7924 24.5292 42.7351 24.4999 42.6671 24.4999H36.0004C35.2631 24.4999 34.6671 25.0972 34.6671 25.8332C34.6671 26.5692 35.2631 27.1665 36.0004 27.1665H39.7684L34.3871 33.4439L28.6858 30.0239C28.1217 29.6825 27.3964 29.8079 26.9751 30.3132L20.3084 38.3132C19.8377 38.8785 19.9137 39.7199 20.4791 40.1905C20.7297 40.3985 21.0311 40.4999 21.3324 40.4999C21.7151 40.4999 22.0937 40.3372 22.3577 40.0199L28.2937 32.8972L33.9804 36.3105C34.5391 36.6452 35.2564 36.5279 35.6791 36.0345L41.3338 29.4372V32.4999C41.3338 33.2359 41.9298 33.8332 42.6671 33.8332C43.4044 33.8332 44.0004 33.2359 44.0004 32.4999V25.8332C44.0004 25.8159 43.9911 25.8012 43.9897 25.7839Z" fill="#03133D"/>
<mask id="mask0_271_865" style="mask-type:luminance" maskUnits="userSpaceOnUse" x="19" y="24" width="26" height="17">
<path fill-rule="evenodd" clip-rule="evenodd" d="M43.9897 25.7839C43.9871 25.6879 43.9591 25.5972 43.9338 25.5052C43.9137 25.4279 43.9044 25.3492 43.8711 25.2785C43.8404 25.2092 43.7884 25.1532 43.7431 25.0892C43.6871 25.0079 43.6364 24.9265 43.5644 24.8599C43.5524 24.8479 43.5471 24.8319 43.5338 24.8212C43.4858 24.7799 43.4271 24.7652 43.3751 24.7319C43.2951 24.6799 43.2164 24.6265 43.1258 24.5919C43.0364 24.5599 42.9484 24.5519 42.8564 24.5385C42.7924 24.5292 42.7351 24.4999 42.6671 24.4999H36.0004C35.2631 24.4999 34.6671 25.0972 34.6671 25.8332C34.6671 26.5692 35.2631 27.1665 36.0004 27.1665H39.7684L34.3871 33.4439L28.6858 30.0239C28.1217 29.6825 27.3964 29.8079 26.9751 30.3132L20.3084 38.3132C19.8377 38.8785 19.9137 39.7199 20.4791 40.1905C20.7297 40.3985 21.0311 40.4999 21.3324 40.4999C21.7151 40.4999 22.0937 40.3372 22.3577 40.0199L28.2937 32.8972L33.9804 36.3105C34.5391 36.6452 35.2564 36.5279 35.6791 36.0345L41.3338 29.4372V32.4999C41.3338 33.2359 41.9298 33.8332 42.6671 33.8332C43.4044 33.8332 44.0004 33.2359 44.0004 32.4999V25.8332C44.0004 25.8159 43.9911 25.8012 43.9897 25.7839Z" fill="white"/>
</mask>
<g mask="url(#mask0_271_865)">
<rect x="16" y="16.5" width="32" height="32" fill="white"/>
</g>
<defs>
<linearGradient id="paint0_linear_271_865" x1="1.64848e-06" y1="43.299" x2="65.6422" y2="36.1549" gradientUnits="userSpaceOnUse">
<stop stop-color="#08121F"/>
<stop offset="1" stop-color="#5CE1E6"/>
</linearGradient>
</defs>
</svg>
