<svg width="64" height="65" viewBox="0 0 64 65" fill="none" xmlns="http://www.w3.org/2000/svg">
<rect y="0.5" width="64" height="64" rx="10" fill="url(#paint0_linear_271_761)"/>
<path fill-rule="evenodd" clip-rule="evenodd" d="M39.6803 37.2199L32.0003 41.6293L24.3203 37.2199L26.5789 36.2586L31.3363 38.9893C31.5416 39.1079 31.7709 39.1666 32.0003 39.1666C32.2296 39.1666 32.4576 39.1079 32.6643 38.9893L37.4216 36.2573L39.6803 37.2199ZM31.3363 33.6559C31.5416 33.7746 31.7709 33.8333 32.0003 33.8333C32.2296 33.8333 32.4576 33.7746 32.6643 33.6559L37.4216 30.924L39.6803 31.8866L32.0003 36.2959L24.3203 31.8866L26.5789 30.924L31.3363 33.6559ZM32.0003 23.2827L39.6803 26.5533L32.0003 30.9627L24.3203 26.5533L32.0003 23.2827ZM43.9977 31.6306C43.9671 31.1253 43.6537 30.6813 43.1884 30.4826L40.3191 29.2613L43.3311 27.532C43.7697 27.2813 44.0271 26.8026 43.9977 26.2973C43.9671 25.7933 43.6537 25.348 43.1884 25.1493L32.5217 20.6066C32.1884 20.464 31.8111 20.464 31.4777 20.6066L20.8111 25.1493C20.3457 25.348 20.0324 25.7933 20.0031 26.2973C19.9724 26.8026 20.2311 27.2813 20.6697 27.532L23.6804 29.2613L20.8111 30.4826C20.3457 30.6813 20.0324 31.1253 20.0031 31.6306C19.9724 32.136 20.2311 32.6146 20.6697 32.8653L23.6804 34.5946L20.8111 35.816C20.3457 36.0146 20.0324 36.4586 20.0031 36.964C19.9724 37.4693 20.2311 37.948 20.6697 38.1986L31.3364 44.3226C31.5417 44.4413 31.7711 44.5 32.0004 44.5C32.2297 44.5 32.4577 44.4413 32.6644 44.3226L43.3311 38.1986C43.7697 37.948 44.0271 37.4693 43.9977 36.964C43.9671 36.46 43.6537 36.0146 43.1897 35.816L40.3204 34.5933L43.3311 32.8653C43.7697 32.6146 44.0271 32.136 43.9977 31.6306V31.6306Z" fill="#03133D"/>
<mask id="mask0_271_761" style="mask-type:luminance" maskUnits="userSpaceOnUse" x="20" y="20" width="24" height="25">
<path fill-rule="evenodd" clip-rule="evenodd" d="M39.6803 37.2199L32.0003 41.6293L24.3203 37.2199L26.5789 36.2586L31.3363 38.9893C31.5416 39.1079 31.7709 39.1666 32.0003 39.1666C32.2296 39.1666 32.4576 39.1079 32.6643 38.9893L37.4216 36.2573L39.6803 37.2199ZM31.3363 33.6559C31.5416 33.7746 31.7709 33.8333 32.0003 33.8333C32.2296 33.8333 32.4576 33.7746 32.6643 33.6559L37.4216 30.924L39.6803 31.8866L32.0003 36.2959L24.3203 31.8866L26.5789 30.924L31.3363 33.6559ZM32.0003 23.2827L39.6803 26.5533L32.0003 30.9627L24.3203 26.5533L32.0003 23.2827ZM43.9977 31.6306C43.9671 31.1253 43.6537 30.6813 43.1884 30.4826L40.3191 29.2613L43.3311 27.532C43.7697 27.2813 44.0271 26.8026 43.9977 26.2973C43.9671 25.7933 43.6537 25.348 43.1884 25.1493L32.5217 20.6066C32.1884 20.464 31.8111 20.464 31.4777 20.6066L20.8111 25.1493C20.3457 25.348 20.0324 25.7933 20.0031 26.2973C19.9724 26.8026 20.2311 27.2813 20.6697 27.532L23.6804 29.2613L20.8111 30.4826C20.3457 30.6813 20.0324 31.1253 20.0031 31.6306C19.9724 32.136 20.2311 32.6146 20.6697 32.8653L23.6804 34.5946L20.8111 35.816C20.3457 36.0146 20.0324 36.4586 20.0031 36.964C19.9724 37.4693 20.2311 37.948 20.6697 38.1986L31.3364 44.3226C31.5417 44.4413 31.7711 44.5 32.0004 44.5C32.2297 44.5 32.4577 44.4413 32.6644 44.3226L43.3311 38.1986C43.7697 37.948 44.0271 37.4693 43.9977 36.964C43.9671 36.46 43.6537 36.0146 43.1897 35.816L40.3204 34.5933L43.3311 32.8653C43.7697 32.6146 44.0271 32.136 43.9977 31.6306V31.6306Z" fill="white"/>
</mask>
<g mask="url(#mask0_271_761)">
<rect x="16" y="16.5" width="32" height="32" fill="white"/>
</g>
<defs>
<linearGradient id="paint0_linear_271_761" x1="1.64848e-06" y1="43.299" x2="65.6422" y2="36.1549" gradientUnits="userSpaceOnUse">
<stop stop-color="#08121F"/>
<stop offset="1" stop-color="#5CE1E6"/>
</linearGradient>
</defs>
</svg>
