<svg width="679" height="701" viewBox="0 0 679 701" fill="none" xmlns="http://www.w3.org/2000/svg">
<path opacity="0.03" d="M259.345 441.811L589.757 384V450.204L259.345 509L259.345 441.811Z" fill="#0097FE"/>
<g filter="url(#filter0_d_271_773)">
<rect x="108.726" y="160" width="339" height="412" rx="10" fill="white"/>
</g>
<path d="M207.501 206.513C206.033 206.513 204.75 206.179 203.653 205.512C202.555 204.845 201.702 203.918 201.094 202.731C200.486 201.53 200.182 200.136 200.182 198.549C200.182 196.947 200.494 195.538 201.117 194.322C201.754 193.091 202.652 192.135 203.808 191.452C204.98 190.755 206.367 190.407 207.968 190.407C209.793 190.407 211.305 190.844 212.507 191.719C213.708 192.594 214.486 193.803 214.842 195.346H211.661C211.424 194.619 210.994 194.055 210.371 193.655C209.748 193.24 208.947 193.032 207.968 193.032C206.411 193.032 205.21 193.529 204.364 194.522C203.519 195.501 203.096 196.851 203.096 198.571C203.096 200.292 203.512 201.626 204.342 202.575C205.188 203.51 206.33 203.977 207.768 203.977C209.177 203.977 210.237 203.599 210.949 202.842C211.676 202.071 212.114 201.063 212.262 199.817H208.324V197.681H215.132V206.246H212.507L212.284 204.199C211.78 204.941 211.15 205.512 210.393 205.912C209.637 206.313 208.673 206.513 207.501 206.513ZM217.388 206.246V190.229H220.236V206.246H217.388ZM227.995 206.513C226.927 206.513 225.963 206.268 225.103 205.779C224.258 205.29 223.583 204.615 223.078 203.755C222.589 202.88 222.344 201.871 222.344 200.729C222.344 199.587 222.596 198.586 223.101 197.726C223.605 196.851 224.28 196.169 225.125 195.679C225.985 195.19 226.949 194.945 228.017 194.945C229.07 194.945 230.019 195.19 230.865 195.679C231.725 196.169 232.4 196.851 232.889 197.726C233.393 198.586 233.645 199.587 233.645 200.729C233.645 201.871 233.393 202.88 232.889 203.755C232.4 204.615 231.725 205.29 230.865 205.779C230.004 206.268 229.048 206.513 227.995 206.513ZM227.995 204.044C228.736 204.044 229.382 203.769 229.93 203.221C230.479 202.657 230.753 201.827 230.753 200.729C230.753 199.632 230.479 198.808 229.93 198.26C229.382 197.696 228.744 197.414 228.017 197.414C227.261 197.414 226.608 197.696 226.059 198.26C225.526 198.808 225.259 199.632 225.259 200.729C225.259 201.827 225.526 202.657 226.059 203.221C226.608 203.769 227.253 204.044 227.995 204.044ZM242.287 206.513C241.456 206.513 240.73 206.357 240.107 206.046C239.484 205.734 238.98 205.297 238.594 204.733L238.282 206.246H235.746V190.229H238.594V196.792C238.95 196.302 239.417 195.872 239.995 195.501C240.589 195.13 241.352 194.945 242.287 194.945C243.325 194.945 244.252 195.197 245.068 195.701C245.883 196.206 246.528 196.895 247.003 197.77C247.478 198.645 247.715 199.639 247.715 200.751C247.715 201.864 247.478 202.857 247.003 203.732C246.528 204.592 245.883 205.275 245.068 205.779C244.252 206.268 243.325 206.513 242.287 206.513ZM241.686 204.021C242.591 204.021 243.34 203.717 243.933 203.109C244.526 202.501 244.823 201.715 244.823 200.751C244.823 199.787 244.526 198.994 243.933 198.371C243.34 197.748 242.591 197.437 241.686 197.437C240.767 197.437 240.01 197.748 239.417 198.371C238.839 198.979 238.549 199.765 238.549 200.729C238.549 201.693 238.839 202.487 239.417 203.109C240.01 203.717 240.767 204.021 241.686 204.021ZM253.618 206.513C252.669 206.513 251.89 206.365 251.282 206.068C250.674 205.757 250.221 205.349 249.925 204.845C249.628 204.34 249.48 203.784 249.48 203.176C249.48 202.153 249.88 201.322 250.681 200.685C251.482 200.047 252.683 199.728 254.285 199.728H257.088V199.461C257.088 198.705 256.873 198.149 256.443 197.793C256.013 197.437 255.479 197.259 254.841 197.259C254.263 197.259 253.759 197.4 253.328 197.681C252.898 197.948 252.631 198.349 252.528 198.883H249.747C249.821 198.082 250.088 197.385 250.548 196.792C251.022 196.198 251.63 195.746 252.372 195.434C253.113 195.108 253.944 194.945 254.863 194.945C256.436 194.945 257.674 195.338 258.579 196.124C259.483 196.91 259.936 198.022 259.936 199.461V206.246H257.511L257.244 204.466C256.918 205.06 256.458 205.549 255.865 205.935C255.286 206.32 254.537 206.513 253.618 206.513ZM254.263 204.288C255.079 204.288 255.709 204.021 256.154 203.488C256.613 202.954 256.903 202.294 257.021 201.508H254.597C253.84 201.508 253.299 201.649 252.973 201.93C252.646 202.197 252.483 202.531 252.483 202.931C252.483 203.362 252.646 203.695 252.973 203.933C253.299 204.17 253.729 204.288 254.263 204.288ZM262.208 206.246V190.229H265.055V206.246H262.208ZM277.76 206.513C276.618 206.513 275.609 206.32 274.734 205.935C273.859 205.534 273.169 204.971 272.665 204.244C272.161 203.502 271.901 202.605 271.887 201.552H274.89C274.919 202.279 275.179 202.894 275.668 203.399C276.173 203.888 276.862 204.133 277.737 204.133C278.494 204.133 279.094 203.955 279.539 203.599C279.984 203.228 280.207 202.739 280.207 202.131C280.207 201.493 280.006 200.996 279.606 200.64C279.22 200.284 278.701 199.995 278.049 199.772C277.396 199.55 276.699 199.313 275.958 199.061C274.756 198.645 273.837 198.111 273.199 197.459C272.576 196.806 272.265 195.939 272.265 194.856C272.25 193.937 272.465 193.151 272.91 192.498C273.37 191.831 273.993 191.319 274.779 190.963C275.565 190.592 276.469 190.407 277.493 190.407C278.531 190.407 279.443 190.592 280.229 190.963C281.03 191.334 281.653 191.853 282.098 192.52C282.557 193.188 282.802 193.981 282.832 194.901H279.784C279.769 194.352 279.554 193.87 279.139 193.455C278.738 193.025 278.175 192.809 277.448 192.809C276.825 192.795 276.299 192.95 275.869 193.277C275.453 193.588 275.246 194.048 275.246 194.656C275.246 195.175 275.409 195.59 275.735 195.902C276.061 196.198 276.506 196.45 277.07 196.658C277.633 196.866 278.279 197.088 279.005 197.325C279.777 197.592 280.481 197.904 281.119 198.26C281.756 198.616 282.268 199.09 282.654 199.683C283.039 200.262 283.232 201.011 283.232 201.93C283.232 202.746 283.024 203.502 282.609 204.199C282.194 204.896 281.578 205.46 280.763 205.89C279.947 206.305 278.946 206.513 277.76 206.513ZM290.121 206.246C288.964 206.246 288.038 205.964 287.34 205.401C286.643 204.837 286.295 203.836 286.295 202.398V197.592H284.404V195.212H286.295L286.629 192.253H289.142V195.212H292.123V197.592H289.142V202.42C289.142 202.954 289.254 203.324 289.476 203.532C289.713 203.725 290.114 203.821 290.677 203.821H292.057V206.246H290.121ZM297.927 206.513C296.978 206.513 296.2 206.365 295.592 206.068C294.983 205.757 294.531 205.349 294.235 204.845C293.938 204.34 293.79 203.784 293.79 203.176C293.79 202.153 294.19 201.322 294.991 200.685C295.792 200.047 296.993 199.728 298.595 199.728H301.398V199.461C301.398 198.705 301.183 198.149 300.753 197.793C300.323 197.437 299.789 197.259 299.151 197.259C298.572 197.259 298.068 197.4 297.638 197.681C297.208 197.948 296.941 198.349 296.837 198.883H294.057C294.131 198.082 294.398 197.385 294.857 196.792C295.332 196.198 295.94 195.746 296.682 195.434C297.423 195.108 298.254 194.945 299.173 194.945C300.745 194.945 301.984 195.338 302.888 196.124C303.793 196.91 304.245 198.022 304.245 199.461V206.246H301.82L301.553 204.466C301.227 205.06 300.767 205.549 300.174 205.935C299.596 206.32 298.847 206.513 297.927 206.513ZM298.572 204.288C299.388 204.288 300.018 204.021 300.463 203.488C300.923 202.954 301.212 202.294 301.331 201.508H298.906C298.15 201.508 297.608 201.649 297.282 201.93C296.956 202.197 296.793 202.531 296.793 202.931C296.793 203.362 296.956 203.695 297.282 203.933C297.608 204.17 298.039 204.288 298.572 204.288ZM311.282 206.246C310.125 206.246 309.198 205.964 308.501 205.401C307.804 204.837 307.456 203.836 307.456 202.398V197.592H305.565V195.212H307.456L307.789 192.253H310.303V195.212H313.284V197.592H310.303V202.42C310.303 202.954 310.414 203.324 310.637 203.532C310.874 203.725 311.275 203.821 311.838 203.821H313.217V206.246H311.282ZM316.819 193.499C316.3 193.499 315.87 193.343 315.529 193.032C315.202 192.72 315.039 192.327 315.039 191.853C315.039 191.378 315.202 190.993 315.529 190.696C315.87 190.385 316.3 190.229 316.819 190.229C317.338 190.229 317.761 190.385 318.087 190.696C318.428 190.993 318.599 191.378 318.599 191.853C318.599 192.327 318.428 192.72 318.087 193.032C317.761 193.343 317.338 193.499 316.819 193.499ZM315.395 206.246V195.212H318.243V206.246H315.395ZM325.33 206.513C324.352 206.513 323.491 206.357 322.75 206.046C322.008 205.72 321.415 205.275 320.97 204.711C320.525 204.148 320.258 203.495 320.169 202.753H323.039C323.128 203.184 323.365 203.554 323.751 203.866C324.151 204.162 324.663 204.311 325.286 204.311C325.909 204.311 326.361 204.185 326.643 203.933C326.939 203.68 327.088 203.391 327.088 203.065C327.088 202.59 326.88 202.271 326.465 202.108C326.05 201.93 325.471 201.76 324.73 201.597C324.255 201.493 323.773 201.367 323.284 201.218C322.794 201.07 322.342 200.885 321.927 200.662C321.526 200.425 321.2 200.128 320.948 199.772C320.696 199.402 320.57 198.949 320.57 198.415C320.57 197.437 320.955 196.614 321.726 195.946C322.513 195.279 323.61 194.945 325.019 194.945C326.324 194.945 327.362 195.249 328.133 195.857C328.919 196.465 329.387 197.303 329.535 198.371H326.843C326.68 197.555 326.064 197.147 324.997 197.147C324.463 197.147 324.047 197.251 323.751 197.459C323.469 197.667 323.328 197.926 323.328 198.238C323.328 198.564 323.543 198.823 323.973 199.016C324.403 199.209 324.974 199.387 325.686 199.55C326.457 199.728 327.162 199.928 327.8 200.151C328.452 200.358 328.971 200.677 329.357 201.107C329.742 201.523 329.935 202.123 329.935 202.909C329.95 203.591 329.772 204.207 329.401 204.756C329.031 205.304 328.497 205.734 327.8 206.046C327.103 206.357 326.28 206.513 325.33 206.513ZM336.582 206.246C335.425 206.246 334.498 205.964 333.801 205.401C333.104 204.837 332.755 203.836 332.755 202.398V197.592H330.864V195.212H332.755L333.089 192.253H335.603V195.212H338.584V197.592H335.603V202.42C335.603 202.954 335.714 203.324 335.937 203.532C336.174 203.725 336.574 203.821 337.138 203.821H338.517V206.246H336.582ZM342.119 193.499C341.6 193.499 341.17 193.343 340.828 193.032C340.502 192.72 340.339 192.327 340.339 191.853C340.339 191.378 340.502 190.993 340.828 190.696C341.17 190.385 341.6 190.229 342.119 190.229C342.638 190.229 343.06 190.385 343.387 190.696C343.728 190.993 343.898 191.378 343.898 191.853C343.898 192.327 343.728 192.72 343.387 193.032C343.06 193.343 342.638 193.499 342.119 193.499ZM340.695 206.246V195.212H343.542V206.246H340.695ZM351.475 206.513C350.348 206.513 349.355 206.268 348.494 205.779C347.634 205.29 346.952 204.607 346.448 203.732C345.958 202.857 345.714 201.856 345.714 200.729C345.714 199.602 345.958 198.601 346.448 197.726C346.952 196.851 347.634 196.169 348.494 195.679C349.355 195.19 350.348 194.945 351.475 194.945C352.884 194.945 354.071 195.316 355.035 196.057C355.999 196.784 356.614 197.793 356.881 199.083H353.878C353.73 198.549 353.433 198.134 352.988 197.837C352.558 197.526 352.046 197.37 351.453 197.37C350.667 197.37 350 197.667 349.451 198.26C348.902 198.853 348.628 199.676 348.628 200.729C348.628 201.782 348.902 202.605 349.451 203.198C350 203.792 350.667 204.088 351.453 204.088C352.046 204.088 352.558 203.94 352.988 203.643C353.433 203.347 353.73 202.924 353.878 202.375H356.881C356.614 203.621 355.999 204.622 355.035 205.378C354.071 206.135 352.884 206.513 351.475 206.513Z" fill="#03133D"/>
<path d="M278.571 464.696C263.657 464.696 248.889 461.758 235.11 456.051C221.331 450.343 208.811 441.978 198.265 431.432C187.719 420.886 179.353 408.366 173.646 394.587C167.939 380.808 165.001 366.04 165.001 351.125C165.001 336.211 167.939 321.443 173.646 307.664C179.353 293.885 187.719 281.365 198.265 270.819C208.811 260.273 221.331 251.908 235.11 246.201C248.889 240.493 263.657 237.555 278.571 237.555C293.485 237.555 308.254 240.493 322.033 246.201C335.811 251.908 348.331 260.273 358.877 270.819C369.424 281.365 377.791 293.885 383.496 307.664C389.205 321.443 392.143 336.211 392.143 351.125C392.143 366.04 389.205 380.808 383.496 394.587C377.787 408.366 369.424 420.886 358.877 431.432C348.331 441.978 335.812 450.343 322.032 456.051C308.254 461.758 293.485 464.696 278.571 464.696Z" stroke="#F0F3FF" stroke-width="7.41536" stroke-linecap="round"/>
<path d="M278.571 464.696C261.748 464.696 245.135 460.958 229.932 453.753C214.73 446.548 201.318 436.056 190.666 423.034C180.014 410.012 172.388 394.787 168.339 378.458C164.29 362.129 163.92 345.105 167.254 328.615C170.589 312.126 177.545 296.583 187.62 283.11C197.696 269.637 210.638 258.571 225.513 250.711C240.388 242.852 256.823 238.395 273.63 237.663C290.437 236.931 307.197 239.942 322.699 246.479" stroke="#0097FE" stroke-width="7.41536" stroke-linecap="round"/>
<path d="M278.239 438.026C266.747 438.026 255.367 435.762 244.749 431.364C234.132 426.966 224.485 420.52 216.358 412.394C208.232 404.267 201.786 394.62 197.388 384.002C192.99 373.385 190.726 362.005 190.726 350.513C190.726 339.021 192.99 327.64 197.388 317.023C201.786 306.405 208.232 296.758 216.358 288.632C224.485 280.506 234.132 274.059 244.749 269.661C255.367 265.264 266.747 263 278.239 263C289.732 263 301.111 265.264 311.729 269.661C322.346 274.059 331.994 280.506 340.12 288.632C348.246 296.758 354.693 306.405 359.089 317.023C363.487 327.641 365.751 339.02 365.751 350.513C365.751 362.005 363.487 373.385 359.089 384.002C354.692 394.62 348.246 404.267 340.12 412.394C331.994 420.52 322.346 426.966 311.729 431.364C301.111 435.762 289.732 438.026 278.239 438.026Z" stroke="#F0F3FF" stroke-width="7.41536" stroke-linecap="round"/>
<path d="M278.239 438.026C263.465 438.026 248.93 434.285 235.991 427.152C223.052 420.02 212.13 409.727 204.242 397.234C196.354 384.741 191.758 370.455 190.88 355.707C190.004 340.958 192.875 326.228 199.227 312.888C205.579 299.548 215.205 288.035 227.208 279.419C239.211 270.804 253.199 265.367 267.87 263.617C282.54 261.866 297.416 263.858 311.108 269.407C324.801 274.956 336.866 283.882 346.179 295.352" stroke="#AC5FE6" stroke-width="7.41536" stroke-linecap="round"/>
<path d="M279.017 415.581C270.574 415.581 262.214 413.918 254.414 410.687C246.614 407.456 239.526 402.72 233.557 396.751C227.587 390.781 222.851 383.694 219.62 375.893C216.389 368.093 214.726 359.733 214.726 351.29C214.726 342.848 216.389 334.488 219.62 326.688C222.851 318.888 227.587 311.8 233.557 305.83C239.526 299.86 246.614 295.125 254.414 291.894C262.214 288.663 270.574 287 279.017 287C287.459 287 295.82 288.663 303.62 291.894C311.419 295.125 318.507 299.86 324.477 305.83C330.447 311.8 335.182 318.888 338.413 326.688C341.644 334.488 343.307 342.848 343.307 351.29C343.307 359.733 341.644 368.093 338.413 375.893C335.182 383.694 330.447 390.781 324.477 396.751C318.507 402.72 311.419 407.456 303.62 410.687C295.82 413.918 287.459 415.581 279.017 415.581Z" stroke="#EDF1FC" stroke-width="7.41536" stroke-linecap="round"/>
<path d="M279.017 415.581C264.812 415.581 251.008 410.877 239.759 402.203C228.51 393.53 220.451 381.375 216.839 367.638C213.228 353.9 214.267 339.353 219.795 326.269C225.324 313.184 235.029 302.299 247.397 295.313C259.765 288.327 274.098 285.634 288.158 287.653C302.218 289.673 315.213 296.292 325.115 306.477C335.016 316.662 341.265 329.839 342.886 343.951C344.508 358.062 341.411 372.314 334.078 384.479" stroke="#FFAE00" stroke-width="7.41536" stroke-linecap="round"/>
<path d="M278.54 345.053C286.839 345.053 293.567 338.326 293.567 330.027C293.567 321.728 286.839 315 278.54 315C270.241 315 263.514 321.728 263.514 330.027C263.514 338.326 270.241 345.053 278.54 345.053Z" fill="#EBF7FF"/>
<path fill-rule="evenodd" clip-rule="evenodd" d="M285.006 326.092C285.005 326.039 284.989 325.988 284.975 325.937C284.964 325.894 284.959 325.85 284.94 325.811C284.923 325.772 284.894 325.741 284.869 325.706C284.838 325.66 284.81 325.615 284.77 325.578C284.763 325.572 284.76 325.563 284.752 325.557C284.726 325.534 284.693 325.526 284.664 325.507C284.62 325.478 284.576 325.448 284.526 325.429C284.476 325.411 284.427 325.407 284.376 325.4C284.34 325.394 284.308 325.378 284.271 325.378H280.564C280.154 325.378 279.823 325.71 279.823 326.119C279.823 326.529 280.154 326.861 280.564 326.861H282.659L279.667 330.351L276.497 328.449C276.184 328.26 275.78 328.329 275.546 328.61L271.84 333.058C271.578 333.372 271.62 333.84 271.935 334.102C272.074 334.217 272.241 334.274 272.409 334.274C272.622 334.274 272.832 334.183 272.979 334.007L276.279 330.047L279.441 331.945C279.752 332.131 280.15 332.065 280.385 331.791L283.529 328.123V329.826C283.529 330.235 283.861 330.567 284.271 330.567C284.681 330.567 285.012 330.235 285.012 329.826V326.119C285.012 326.11 285.007 326.102 285.006 326.092Z" fill="#231F20"/>
<mask id="mask0_271_773" style="mask-type:luminance" maskUnits="userSpaceOnUse" x="271" y="325" width="15" height="10">
<path fill-rule="evenodd" clip-rule="evenodd" d="M285.006 326.092C285.005 326.039 284.989 325.988 284.975 325.937C284.964 325.894 284.959 325.85 284.94 325.811C284.923 325.772 284.894 325.741 284.869 325.706C284.838 325.66 284.81 325.615 284.77 325.578C284.763 325.572 284.76 325.563 284.752 325.557C284.726 325.534 284.693 325.526 284.664 325.507C284.62 325.478 284.576 325.448 284.526 325.429C284.476 325.411 284.427 325.407 284.376 325.4C284.34 325.394 284.308 325.378 284.271 325.378H280.564C280.154 325.378 279.823 325.71 279.823 326.119C279.823 326.529 280.154 326.861 280.564 326.861H282.659L279.667 330.351L276.497 328.449C276.184 328.26 275.78 328.329 275.546 328.61L271.84 333.058C271.578 333.372 271.62 333.84 271.935 334.102C272.074 334.217 272.241 334.274 272.409 334.274C272.622 334.274 272.832 334.183 272.979 334.007L276.279 330.047L279.441 331.945C279.752 332.131 280.15 332.065 280.385 331.791L283.529 328.123V329.826C283.529 330.235 283.861 330.567 284.271 330.567C284.681 330.567 285.012 330.235 285.012 329.826V326.119C285.012 326.11 285.007 326.102 285.006 326.092Z" fill="white"/>
</mask>
<g mask="url(#mask0_271_773)">
<rect x="269.444" y="320.93" width="17.7913" height="17.7913" fill="#0097FE"/>
</g>
<path d="M252.309 359.452V353.839H250.449V353.225H254.915V353.839H253.056V359.452H252.309ZM255.101 359.452V355.04H255.777L255.84 355.885C255.976 355.594 256.184 355.363 256.462 355.191C256.741 355.019 257.085 354.933 257.494 354.933V355.716H257.29C257.029 355.716 256.788 355.763 256.569 355.858C256.35 355.947 256.175 356.101 256.044 356.321C255.914 356.54 255.848 356.842 255.848 357.228V359.452H255.101ZM259.623 359.559C259.255 359.559 258.95 359.496 258.706 359.372C258.463 359.247 258.282 359.081 258.164 358.874C258.045 358.666 257.986 358.441 257.986 358.197C257.986 357.747 258.158 357.4 258.502 357.157C258.846 356.914 259.314 356.792 259.907 356.792H261.099V356.739C261.099 356.353 260.999 356.063 260.797 355.867C260.595 355.665 260.325 355.564 259.987 355.564C259.697 355.564 259.445 355.639 259.231 355.787C259.024 355.929 258.893 356.14 258.84 356.418H258.075C258.105 356.098 258.211 355.828 258.395 355.609C258.585 355.389 258.819 355.223 259.098 355.111C259.377 354.992 259.673 354.933 259.987 354.933C260.604 354.933 261.067 355.099 261.375 355.431C261.689 355.757 261.847 356.193 261.847 356.739V359.452H261.179L261.135 358.66C261.01 358.909 260.827 359.123 260.583 359.301C260.346 359.473 260.026 359.559 259.623 359.559ZM259.738 358.927C260.023 358.927 260.266 358.853 260.468 358.705C260.675 358.556 260.833 358.364 260.939 358.126C261.046 357.889 261.099 357.64 261.099 357.379V357.37H259.97C259.531 357.37 259.219 357.447 259.036 357.601C258.858 357.75 258.769 357.937 258.769 358.162C258.769 358.393 258.852 358.58 259.018 358.722C259.19 358.859 259.43 358.927 259.738 358.927ZM263.03 359.452V355.671H262.363V355.04H263.03V354.275C263.03 353.848 263.137 353.536 263.35 353.34C263.564 353.145 263.875 353.047 264.284 353.047H264.729V353.687H264.4C264.174 353.687 264.014 353.735 263.919 353.83C263.825 353.919 263.777 354.073 263.777 354.292V355.04H264.862V355.671H263.777V359.452H263.03ZM265.814 359.452V355.671H265.147V355.04H265.814V354.275C265.814 353.848 265.921 353.536 266.135 353.34C266.348 353.145 266.659 353.047 267.069 353.047H267.513V353.687H267.184C266.959 353.687 266.799 353.735 266.704 353.83C266.609 353.919 266.562 354.073 266.562 354.292V355.04H269.301V359.452H268.554V355.671H266.562V359.452H265.814ZM268.937 354.194C268.794 354.194 268.673 354.147 268.572 354.052C268.471 353.951 268.421 353.827 268.421 353.679C268.421 353.536 268.471 353.418 268.572 353.323C268.673 353.228 268.794 353.18 268.937 353.18C269.085 353.18 269.206 353.228 269.301 353.323C269.402 353.418 269.453 353.536 269.453 353.679C269.453 353.827 269.402 353.951 269.301 354.052C269.206 354.147 269.085 354.194 268.937 354.194ZM272.472 359.559C272.051 359.559 271.671 359.464 271.333 359.274C271.001 359.078 270.737 358.808 270.541 358.464C270.352 358.114 270.257 357.708 270.257 357.246C270.257 356.783 270.352 356.38 270.541 356.036C270.737 355.686 271.001 355.416 271.333 355.226C271.671 355.031 272.051 354.933 272.472 354.933C272.994 354.933 273.432 355.069 273.788 355.342C274.15 355.615 274.378 355.98 274.473 356.436H273.708C273.649 356.163 273.504 355.953 273.272 355.805C273.041 355.65 272.771 355.573 272.463 355.573C272.214 355.573 271.979 355.636 271.76 355.76C271.541 355.885 271.363 356.071 271.226 356.321C271.09 356.57 271.022 356.878 271.022 357.246C271.022 357.613 271.09 357.922 271.226 358.171C271.363 358.42 271.541 358.61 271.76 358.74C271.979 358.865 272.214 358.927 272.463 358.927C272.771 358.927 273.041 358.853 273.272 358.705C273.504 358.55 273.649 358.334 273.708 358.055H274.473C274.384 358.5 274.159 358.862 273.797 359.14C273.435 359.419 272.994 359.559 272.472 359.559ZM280.237 359.559C279.656 359.559 279.146 359.425 278.707 359.158C278.268 358.885 277.927 358.509 277.684 358.028C277.441 357.542 277.319 356.982 277.319 356.347C277.319 355.713 277.441 355.152 277.684 354.666C277.933 354.18 278.283 353.8 278.734 353.527C279.19 353.254 279.727 353.118 280.344 353.118C281.044 353.118 281.625 353.287 282.088 353.625C282.556 353.963 282.858 354.429 282.995 355.022H282.132C282.049 354.648 281.85 354.352 281.536 354.132C281.228 353.913 280.83 353.803 280.344 353.803C279.887 353.803 279.49 353.907 279.152 354.114C278.814 354.316 278.55 354.607 278.36 354.986C278.176 355.366 278.084 355.819 278.084 356.347C278.084 356.875 278.176 357.329 278.36 357.708C278.544 358.088 278.799 358.381 279.125 358.589C279.451 358.791 279.831 358.891 280.264 358.891C280.928 358.891 281.429 358.699 281.767 358.313C282.105 357.922 282.298 357.388 282.345 356.712H280.549V356.125H283.111V359.452H282.426L282.363 358.429C282.138 358.791 281.862 359.069 281.536 359.265C281.21 359.461 280.777 359.559 280.237 359.559ZM284.07 359.452V355.04H284.746L284.808 355.885C284.945 355.594 285.152 355.363 285.431 355.191C285.71 355.019 286.054 354.933 286.463 354.933V355.716H286.258C285.997 355.716 285.757 355.763 285.538 355.858C285.318 355.947 285.143 356.101 285.013 356.321C284.882 356.54 284.817 356.842 284.817 357.228V359.452H284.07ZM288.969 359.559C288.554 359.559 288.18 359.464 287.848 359.274C287.516 359.084 287.252 358.817 287.056 358.473C286.867 358.123 286.772 357.714 286.772 357.246C286.772 356.777 286.869 356.371 287.065 356.027C287.261 355.677 287.525 355.407 287.857 355.217C288.195 355.028 288.572 354.933 288.987 354.933C289.402 354.933 289.775 355.028 290.107 355.217C290.44 355.407 290.701 355.677 290.89 356.027C291.086 356.371 291.184 356.777 291.184 357.246C291.184 357.714 291.086 358.123 290.89 358.473C290.695 358.817 290.428 359.084 290.09 359.274C289.758 359.464 289.384 359.559 288.969 359.559ZM288.969 358.918C289.224 358.918 289.461 358.856 289.68 358.731C289.9 358.607 290.078 358.42 290.214 358.171C290.351 357.922 290.419 357.613 290.419 357.246C290.419 356.878 290.351 356.57 290.214 356.321C290.084 356.071 289.909 355.885 289.689 355.76C289.47 355.636 289.236 355.573 288.987 355.573C288.732 355.573 288.494 355.636 288.275 355.76C288.056 355.885 287.878 356.071 287.741 356.321C287.605 356.57 287.537 356.878 287.537 357.246C287.537 357.613 287.605 357.922 287.741 358.171C287.878 358.42 288.053 358.607 288.266 358.731C288.486 358.856 288.72 358.918 288.969 358.918ZM292.769 359.452L291.48 355.04H292.227L293.161 358.5L294.193 355.04H295.038L296.079 358.5L297.004 355.04H297.76L296.47 359.452H295.705L294.62 355.813L293.534 359.452H292.769ZM300.152 359.452C299.749 359.452 299.431 359.354 299.2 359.158C298.969 358.963 298.853 358.61 298.853 358.1V355.671H298.088V355.04H298.853L298.951 353.981H299.6V355.04H300.899V355.671H299.6V358.1C299.6 358.378 299.657 358.568 299.769 358.669C299.882 358.764 300.081 358.811 300.366 358.811H300.828V359.452H300.152ZM301.671 359.452V353.047H302.418V355.796C302.566 355.523 302.777 355.312 303.049 355.164C303.322 355.01 303.619 354.933 303.939 354.933C304.449 354.933 304.858 355.093 305.167 355.413C305.475 355.727 305.629 356.214 305.629 356.872V359.452H304.891V356.952C304.891 356.033 304.52 355.573 303.779 355.573C303.393 355.573 303.07 355.713 302.809 355.991C302.548 356.264 302.418 356.656 302.418 357.166V359.452H301.671Z" fill="#03133D"/>
<path d="M259.953 387.883C258.587 387.883 257.436 387.632 256.502 387.13C255.568 386.629 254.816 385.954 254.245 385.107C253.674 384.259 253.259 383.316 253 382.278C252.757 381.241 252.636 380.177 252.636 379.087C252.636 377.063 252.922 375.308 253.493 373.82C254.063 372.315 254.885 371.156 255.957 370.343C257.03 369.513 258.327 369.098 259.849 369.098C261.095 369.098 262.15 369.349 263.015 369.851C263.897 370.335 264.58 370.975 265.064 371.771C265.549 372.566 265.834 373.422 265.921 374.339H262.833C262.677 373.543 262.34 372.929 261.821 372.497C261.302 372.065 260.636 371.848 259.823 371.848C258.664 371.848 257.73 372.385 257.021 373.457C256.312 374.512 255.931 376.129 255.88 378.309C256.295 377.6 256.917 377.012 257.748 376.545C258.578 376.077 259.503 375.844 260.524 375.844C261.527 375.844 262.47 376.086 263.352 376.57C264.234 377.055 264.943 377.738 265.48 378.62C266.033 379.502 266.31 380.54 266.31 381.734C266.31 382.823 266.042 383.835 265.505 384.769C264.987 385.703 264.243 386.456 263.274 387.027C262.323 387.597 261.216 387.883 259.953 387.883ZM259.771 385.029C260.74 385.029 261.536 384.735 262.158 384.147C262.798 383.541 263.118 382.78 263.118 381.863C263.118 380.895 262.798 380.116 262.158 379.528C261.518 378.94 260.706 378.646 259.72 378.646C259.08 378.646 258.5 378.793 257.981 379.087C257.48 379.364 257.082 379.744 256.788 380.229C256.494 380.696 256.347 381.223 256.347 381.811C256.347 382.746 256.667 383.515 257.307 384.121C257.964 384.726 258.786 385.029 259.771 385.029ZM275.463 387.883C274.218 387.883 273.093 387.667 272.09 387.234C271.087 386.784 270.283 386.153 269.677 385.34C269.089 384.527 268.795 383.584 268.795 382.512C268.795 381.405 269.08 380.436 269.651 379.606C270.239 378.776 271.009 378.179 271.96 377.816C271.13 377.453 270.473 376.934 269.989 376.259C269.504 375.567 269.262 374.797 269.262 373.95C269.262 373.085 269.496 372.289 269.963 371.563C270.43 370.819 271.122 370.222 272.038 369.773C272.972 369.323 274.114 369.098 275.463 369.098C276.812 369.098 277.945 369.323 278.862 369.773C279.779 370.222 280.471 370.819 280.938 371.563C281.405 372.289 281.638 373.085 281.638 373.95C281.638 374.78 281.387 375.55 280.886 376.259C280.401 376.951 279.753 377.47 278.94 377.816C279.908 378.179 280.678 378.776 281.249 379.606C281.82 380.436 282.105 381.405 282.105 382.512C282.105 383.584 281.811 384.527 281.223 385.34C280.635 386.153 279.831 386.784 278.81 387.234C277.807 387.667 276.691 387.883 275.463 387.883ZM275.463 376.83C276.363 376.83 277.072 376.596 277.591 376.129C278.11 375.662 278.369 375.066 278.369 374.339C278.369 373.543 278.11 372.921 277.591 372.471C277.089 372.021 276.38 371.796 275.463 371.796C274.529 371.796 273.811 372.021 273.31 372.471C272.808 372.921 272.557 373.543 272.557 374.339C272.557 375.083 272.808 375.688 273.31 376.155C273.829 376.605 274.546 376.83 275.463 376.83ZM275.463 385.107C276.57 385.107 277.409 384.838 277.98 384.302C278.551 383.749 278.836 383.057 278.836 382.227C278.836 381.31 278.533 380.592 277.928 380.073C277.34 379.554 276.518 379.295 275.463 379.295C274.408 379.295 273.569 379.554 272.946 380.073C272.341 380.592 272.038 381.31 272.038 382.227C272.038 383.057 272.324 383.749 272.894 384.302C273.483 384.838 274.339 385.107 275.463 385.107ZM288.589 378.335C287.759 378.335 287.006 378.153 286.332 377.79C285.657 377.409 285.121 376.873 284.723 376.181C284.325 375.489 284.127 374.668 284.127 373.716C284.127 372.765 284.325 371.943 284.723 371.252C285.121 370.56 285.657 370.032 286.332 369.669C287.006 369.288 287.768 369.098 288.615 369.098C289.445 369.098 290.189 369.288 290.846 369.669C291.521 370.032 292.057 370.56 292.455 371.252C292.853 371.943 293.052 372.765 293.052 373.716C293.052 374.668 292.853 375.489 292.455 376.181C292.057 376.873 291.521 377.409 290.846 377.79C290.172 378.153 289.419 378.335 288.589 378.335ZM287.603 387.571L297.852 369.409H301.095L290.846 387.571H287.603ZM288.589 376.026C289.091 376.026 289.523 375.835 289.886 375.455C290.25 375.057 290.431 374.478 290.431 373.716C290.431 372.955 290.25 372.376 289.886 371.978C289.541 371.58 289.108 371.381 288.589 371.381C288.07 371.381 287.629 371.58 287.266 371.978C286.92 372.376 286.747 372.955 286.747 373.716C286.747 374.478 286.92 375.057 287.266 375.455C287.629 375.835 288.07 376.026 288.589 376.026ZM300.213 387.883C299.383 387.883 298.63 387.701 297.956 387.338C297.281 386.957 296.745 386.421 296.347 385.729C295.949 385.037 295.75 384.216 295.75 383.264C295.75 382.313 295.949 381.5 296.347 380.826C296.745 380.134 297.281 379.606 297.956 379.243C298.63 378.862 299.391 378.672 300.239 378.672C301.069 378.672 301.813 378.862 302.47 379.243C303.145 379.606 303.681 380.134 304.079 380.826C304.477 381.5 304.675 382.313 304.675 383.264C304.675 384.216 304.477 385.037 304.079 385.729C303.681 386.421 303.145 386.957 302.47 387.338C301.813 387.701 301.06 387.883 300.213 387.883ZM300.213 385.574C300.732 385.574 301.164 385.383 301.51 385.003C301.873 384.605 302.055 384.026 302.055 383.264C302.055 382.503 301.873 381.924 301.51 381.526C301.164 381.128 300.732 380.929 300.213 380.929C299.694 380.929 299.253 381.128 298.89 381.526C298.544 381.924 298.371 382.503 298.371 383.264C298.371 384.026 298.544 384.605 298.89 385.003C299.253 385.383 299.694 385.574 300.213 385.574Z" fill="#03133D"/>
<g filter="url(#filter1_d_271_773)">
<rect x="131.572" y="487" width="140" height="62.0189" rx="8" fill="white"/>
</g>
<rect x="142.572" y="498.491" width="55.782" height="6" rx="3" fill="#C4D2F6"/>
<rect x="141.572" y="517.07" width="117" height="6" rx="3" fill="#EDF1FC"/>
<rect x="142.572" y="533.769" width="117" height="6" rx="3" fill="#EDF1FC"/>
<g filter="url(#filter2_d_271_773)">
<rect x="285.572" y="487" width="140" height="62.0189" rx="8" fill="white"/>
</g>
<rect x="296.572" y="498.491" width="55.782" height="6" rx="3" fill="#C4D2F6"/>
<rect x="295.572" y="517.07" width="117" height="6" rx="3" fill="#EDF1FC"/>
<rect x="296.572" y="533.769" width="117" height="6" rx="3" fill="#EDF1FC"/>
<g filter="url(#filter3_d_271_773)">
<rect x="375.138" y="111" width="199.645" height="228" rx="10" fill="white"/>
</g>
<g filter="url(#filter4_d_271_773)">
<rect x="398.575" y="297" width="157.719" height="23.2761" rx="11.6381" fill="white"/>
</g>
<rect x="411.473" y="305.729" width="127.773" height="5.81906" rx="2.90953" fill="#EDF1FC"/>
<g filter="url(#filter5_d_271_773)">
<rect x="437.575" y="250" width="169.698" height="26.1857" rx="13.0928" fill="white"/>
</g>
<rect x="452.549" y="260.668" width="139.751" height="5.81903" rx="2.90952" fill="#0097FE"/>
<path d="M396.152 143.138C395.56 143.138 395.045 143.031 394.607 142.815C394.168 142.6 393.83 142.3 393.591 141.916C393.353 141.531 393.234 141.085 393.234 140.578H394.249C394.249 140.893 394.322 141.185 394.468 141.454C394.614 141.716 394.826 141.927 395.103 142.089C395.387 142.243 395.737 142.319 396.152 142.319C396.698 142.319 397.121 142.189 397.421 141.927C397.721 141.666 397.871 141.339 397.871 140.947C397.871 140.624 397.802 140.366 397.663 140.174C397.525 139.974 397.336 139.812 397.098 139.689C396.867 139.566 396.598 139.459 396.291 139.366C395.991 139.274 395.675 139.17 395.345 139.055C394.722 138.84 394.26 138.574 393.961 138.259C393.661 137.936 393.511 137.517 393.511 137.002C393.503 136.571 393.603 136.191 393.811 135.86C394.018 135.521 394.31 135.26 394.687 135.075C395.072 134.883 395.525 134.787 396.048 134.787C396.564 134.787 397.01 134.883 397.386 135.075C397.771 135.268 398.067 135.533 398.275 135.871C398.49 136.21 398.601 136.594 398.609 137.025H397.594C397.594 136.802 397.536 136.583 397.421 136.367C397.306 136.144 397.129 135.964 396.89 135.825C396.66 135.687 396.368 135.618 396.014 135.618C395.575 135.61 395.214 135.721 394.93 135.952C394.653 136.183 394.514 136.502 394.514 136.91C394.514 137.256 394.61 137.521 394.803 137.705C395.003 137.89 395.279 138.044 395.633 138.167C395.987 138.282 396.394 138.417 396.856 138.571C397.24 138.709 397.586 138.87 397.894 139.055C398.202 139.24 398.44 139.478 398.609 139.77C398.786 140.062 398.874 140.435 398.874 140.889C398.874 141.274 398.775 141.639 398.575 141.985C398.375 142.323 398.071 142.6 397.663 142.815C397.263 143.031 396.76 143.138 396.152 143.138ZM401.863 143.138C401.387 143.138 400.991 143.058 400.675 142.896C400.36 142.735 400.126 142.519 399.972 142.25C399.818 141.981 399.741 141.689 399.741 141.374C399.741 140.789 399.964 140.339 400.41 140.024C400.856 139.709 401.464 139.551 402.233 139.551H403.778V139.482C403.778 138.982 403.648 138.605 403.386 138.351C403.125 138.09 402.775 137.959 402.336 137.959C401.96 137.959 401.633 138.055 401.356 138.248C401.087 138.432 400.918 138.705 400.848 139.067H399.856C399.895 138.651 400.033 138.301 400.272 138.017C400.518 137.732 400.821 137.517 401.183 137.371C401.544 137.217 401.929 137.14 402.336 137.14C403.136 137.14 403.736 137.356 404.136 137.786C404.543 138.209 404.747 138.774 404.747 139.482V143H403.882L403.824 141.973C403.663 142.296 403.425 142.573 403.109 142.804C402.802 143.027 402.386 143.138 401.863 143.138ZM402.013 142.319C402.383 142.319 402.698 142.223 402.959 142.031C403.228 141.839 403.432 141.589 403.571 141.281C403.709 140.974 403.778 140.651 403.778 140.312V140.301H402.313C401.744 140.301 401.341 140.401 401.102 140.601C400.871 140.793 400.756 141.035 400.756 141.327C400.756 141.627 400.864 141.87 401.079 142.054C401.302 142.231 401.614 142.319 402.013 142.319ZM405.97 143V134.695H406.939V143H405.97ZM410.869 143.138C410.323 143.138 409.838 143.015 409.415 142.769C408.992 142.516 408.658 142.166 408.412 141.72C408.173 141.274 408.054 140.747 408.054 140.139C408.054 139.539 408.173 139.017 408.412 138.571C408.65 138.117 408.981 137.767 409.404 137.521C409.835 137.267 410.331 137.14 410.892 137.14C411.446 137.14 411.922 137.267 412.322 137.521C412.73 137.767 413.041 138.094 413.257 138.501C413.472 138.909 413.58 139.347 413.58 139.816C413.58 139.901 413.576 139.986 413.568 140.07C413.568 140.155 413.568 140.251 413.568 140.358H409.012C409.035 140.797 409.135 141.162 409.312 141.454C409.496 141.739 409.723 141.954 409.992 142.1C410.269 142.246 410.561 142.319 410.869 142.319C411.269 142.319 411.603 142.227 411.872 142.043C412.142 141.858 412.338 141.608 412.461 141.293H413.418C413.264 141.823 412.968 142.266 412.53 142.619C412.099 142.965 411.546 143.138 410.869 143.138ZM410.869 137.959C410.407 137.959 409.996 138.101 409.635 138.386C409.281 138.663 409.077 139.07 409.023 139.609H412.622C412.599 139.093 412.422 138.69 412.092 138.398C411.761 138.105 411.353 137.959 410.869 137.959ZM416.825 143.138C416.14 143.138 415.571 142.965 415.118 142.619C414.664 142.273 414.399 141.804 414.322 141.212H415.314C415.375 141.512 415.533 141.773 415.787 141.996C416.048 142.212 416.398 142.319 416.836 142.319C417.244 142.319 417.544 142.235 417.736 142.066C417.928 141.889 418.024 141.681 418.024 141.443C418.024 141.097 417.898 140.866 417.644 140.751C417.398 140.635 417.048 140.532 416.594 140.439C416.286 140.378 415.979 140.289 415.671 140.174C415.364 140.059 415.106 139.897 414.898 139.689C414.691 139.474 414.587 139.193 414.587 138.847C414.587 138.348 414.772 137.94 415.141 137.625C415.517 137.302 416.025 137.14 416.663 137.14C417.271 137.14 417.767 137.294 418.151 137.602C418.543 137.902 418.77 138.332 418.832 138.894H417.874C417.836 138.601 417.709 138.374 417.494 138.213C417.286 138.044 417.005 137.959 416.652 137.959C416.306 137.959 416.037 138.032 415.844 138.178C415.66 138.324 415.567 138.517 415.567 138.755C415.567 138.986 415.687 139.167 415.925 139.297C416.171 139.428 416.502 139.539 416.917 139.632C417.271 139.709 417.605 139.805 417.921 139.92C418.244 140.028 418.505 140.193 418.705 140.416C418.913 140.631 419.016 140.947 419.016 141.362C419.024 141.877 418.828 142.304 418.428 142.642C418.036 142.973 417.501 143.138 416.825 143.138ZM425.253 143C424.73 143 424.318 142.873 424.019 142.619C423.719 142.366 423.569 141.908 423.569 141.247V138.098H422.577V137.279H423.569L423.696 135.906H424.538V137.279H426.222V138.098H424.538V141.247C424.538 141.608 424.611 141.854 424.757 141.985C424.903 142.108 425.161 142.169 425.53 142.169H426.129V143H425.253ZM427.222 143V137.279H428.099L428.179 138.374C428.356 137.998 428.625 137.698 428.987 137.475C429.348 137.252 429.794 137.14 430.325 137.14V138.155H430.06C429.721 138.155 429.41 138.217 429.125 138.34C428.841 138.455 428.614 138.655 428.445 138.94C428.276 139.224 428.191 139.616 428.191 140.116V143H427.222ZM433.54 143.138C432.994 143.138 432.51 143.015 432.087 142.769C431.664 142.516 431.329 142.166 431.083 141.72C430.845 141.274 430.726 140.747 430.726 140.139C430.726 139.539 430.845 139.017 431.083 138.571C431.321 138.117 431.652 137.767 432.075 137.521C432.506 137.267 433.002 137.14 433.563 137.14C434.117 137.14 434.594 137.267 434.993 137.521C435.401 137.767 435.712 138.094 435.928 138.501C436.143 138.909 436.251 139.347 436.251 139.816C436.251 139.901 436.247 139.986 436.239 140.07C436.239 140.155 436.239 140.251 436.239 140.358H431.683C431.706 140.797 431.806 141.162 431.983 141.454C432.167 141.739 432.394 141.954 432.663 142.1C432.94 142.246 433.232 142.319 433.54 142.319C433.94 142.319 434.274 142.227 434.544 142.043C434.813 141.858 435.009 141.608 435.132 141.293H436.089C435.935 141.823 435.639 142.266 435.201 142.619C434.77 142.965 434.217 143.138 433.54 143.138ZM433.54 137.959C433.079 137.959 432.667 138.101 432.306 138.386C431.952 138.663 431.748 139.07 431.694 139.609H435.293C435.27 139.093 435.093 138.69 434.763 138.398C434.432 138.105 434.025 137.959 433.54 137.959ZM437.304 143V137.279H438.181L438.239 138.305C438.423 137.944 438.689 137.659 439.035 137.452C439.381 137.244 439.773 137.14 440.211 137.14C440.888 137.14 441.426 137.348 441.826 137.763C442.234 138.171 442.437 138.801 442.437 139.655V143H441.468V139.759C441.468 138.567 440.976 137.971 439.992 137.971C439.5 137.971 439.088 138.151 438.758 138.513C438.435 138.867 438.273 139.374 438.273 140.036V143H437.304ZM446.27 143.138C445.701 143.138 445.201 143.008 444.771 142.746C444.348 142.485 444.017 142.127 443.779 141.673C443.548 141.22 443.432 140.705 443.432 140.128C443.432 139.551 443.552 139.04 443.79 138.594C444.028 138.14 444.359 137.786 444.782 137.532C445.205 137.271 445.705 137.14 446.282 137.14C446.751 137.14 447.166 137.236 447.527 137.429C447.889 137.621 448.17 137.89 448.369 138.236V134.695H449.338V143H448.462L448.369 142.054C448.185 142.331 447.92 142.581 447.574 142.804C447.228 143.027 446.793 143.138 446.27 143.138ZM446.374 142.296C446.758 142.296 447.097 142.208 447.389 142.031C447.689 141.846 447.92 141.593 448.081 141.27C448.25 140.947 448.335 140.57 448.335 140.139C448.335 139.709 448.25 139.332 448.081 139.009C447.92 138.686 447.689 138.436 447.389 138.259C447.097 138.075 446.758 137.982 446.374 137.982C445.997 137.982 445.659 138.075 445.359 138.259C445.067 138.436 444.836 138.686 444.667 139.009C444.505 139.332 444.425 139.709 444.425 140.139C444.425 140.57 444.505 140.947 444.667 141.27C444.836 141.593 445.067 141.846 445.359 142.031C445.659 142.208 445.997 142.296 446.374 142.296Z" fill="#68718B"/>
<path d="M403.164 180.378C401.504 180.378 400.106 180.074 398.97 179.464C397.835 178.854 396.92 178.034 396.227 177.004C395.533 175.974 395.028 174.828 394.713 173.567C394.419 172.305 394.272 171.013 394.272 169.688C394.272 167.228 394.618 165.094 395.312 163.286C396.006 161.457 397.005 160.049 398.308 159.061C399.611 158.052 401.188 157.547 403.038 157.547C404.552 157.547 405.834 157.852 406.886 158.462C407.958 159.05 408.788 159.828 409.377 160.795C409.965 161.762 410.312 162.803 410.417 163.917H406.665C406.476 162.95 406.066 162.204 405.435 161.678C404.804 161.153 403.995 160.89 403.007 160.89C401.598 160.89 400.463 161.542 399.601 162.845C398.739 164.127 398.276 166.093 398.213 168.742C398.718 167.88 399.475 167.165 400.484 166.598C401.493 166.03 402.618 165.746 403.858 165.746C405.078 165.746 406.223 166.041 407.295 166.629C408.368 167.218 409.23 168.048 409.881 169.12C410.554 170.193 410.89 171.454 410.89 172.905C410.89 174.229 410.565 175.459 409.913 176.594C409.282 177.729 408.378 178.644 407.201 179.338C406.045 180.032 404.699 180.378 403.164 180.378ZM402.944 176.91C404.121 176.91 405.088 176.552 405.845 175.837C406.623 175.102 407.012 174.177 407.012 173.062C407.012 171.885 406.623 170.939 405.845 170.224C405.067 169.509 404.079 169.152 402.881 169.152C402.103 169.152 401.398 169.331 400.768 169.688C400.158 170.024 399.675 170.487 399.317 171.076C398.96 171.643 398.781 172.284 398.781 172.999C398.781 174.134 399.17 175.07 399.948 175.806C400.747 176.542 401.745 176.91 402.944 176.91ZM422.016 180.378C420.502 180.378 419.135 180.116 417.916 179.59C416.697 179.043 415.719 178.276 414.983 177.288C414.269 176.3 413.911 175.154 413.911 173.851C413.911 172.505 414.258 171.328 414.952 170.319C415.667 169.31 416.602 168.584 417.758 168.143C416.749 167.701 415.95 167.071 415.362 166.251C414.773 165.41 414.479 164.474 414.479 163.444C414.479 162.393 414.763 161.426 415.33 160.543C415.898 159.639 416.739 158.914 417.853 158.367C418.988 157.82 420.376 157.547 422.016 157.547C423.656 157.547 425.033 157.82 426.147 158.367C427.261 158.914 428.102 159.639 428.67 160.543C429.237 161.426 429.521 162.393 429.521 163.444C429.521 164.453 429.216 165.389 428.607 166.251C428.018 167.092 427.229 167.722 426.241 168.143C427.419 168.584 428.354 169.31 429.048 170.319C429.742 171.328 430.089 172.505 430.089 173.851C430.089 175.154 429.731 176.3 429.016 177.288C428.302 178.276 427.324 179.043 426.084 179.59C424.864 180.116 423.508 180.378 422.016 180.378ZM422.016 166.945C423.109 166.945 423.971 166.661 424.602 166.093C425.232 165.525 425.548 164.8 425.548 163.917C425.548 162.95 425.232 162.193 424.602 161.647C423.992 161.1 423.13 160.827 422.016 160.827C420.88 160.827 420.008 161.1 419.398 161.647C418.789 162.193 418.484 162.95 418.484 163.917C418.484 164.821 418.789 165.557 419.398 166.125C420.029 166.671 420.901 166.945 422.016 166.945ZM422.016 177.004C423.361 177.004 424.381 176.678 425.075 176.027C425.768 175.354 426.115 174.513 426.115 173.504C426.115 172.39 425.747 171.517 425.012 170.886C424.297 170.256 423.298 169.94 422.016 169.94C420.733 169.94 419.714 170.256 418.957 170.886C418.221 171.517 417.853 172.39 417.853 173.504C417.853 174.513 418.2 175.354 418.894 176.027C419.609 176.678 420.649 177.004 422.016 177.004ZM437.969 168.774C436.96 168.774 436.046 168.553 435.226 168.111C434.406 167.649 433.754 166.997 433.271 166.156C432.787 165.315 432.545 164.317 432.545 163.16C432.545 162.004 432.787 161.005 433.271 160.164C433.754 159.324 434.406 158.682 435.226 158.241C436.046 157.778 436.971 157.547 438.001 157.547C439.01 157.547 439.914 157.778 440.713 158.241C441.533 158.682 442.185 159.324 442.668 160.164C443.152 161.005 443.393 162.004 443.393 163.16C443.393 164.317 443.152 165.315 442.668 166.156C442.185 166.997 441.533 167.649 440.713 168.111C439.893 168.553 438.979 168.774 437.969 168.774ZM436.771 180L449.227 157.925H453.169L440.713 180H436.771ZM437.969 165.967C438.579 165.967 439.105 165.736 439.546 165.273C439.988 164.79 440.208 164.085 440.208 163.16C440.208 162.235 439.988 161.531 439.546 161.047C439.126 160.564 438.6 160.322 437.969 160.322C437.339 160.322 436.803 160.564 436.361 161.047C435.941 161.531 435.73 162.235 435.73 163.16C435.73 164.085 435.941 164.79 436.361 165.273C436.803 165.736 437.339 165.967 437.969 165.967ZM452.097 180.378C451.088 180.378 450.173 180.158 449.354 179.716C448.534 179.254 447.882 178.602 447.398 177.761C446.915 176.92 446.673 175.921 446.673 174.765C446.673 173.609 446.915 172.621 447.398 171.801C447.882 170.96 448.534 170.319 449.354 169.877C450.173 169.415 451.099 169.183 452.129 169.183C453.138 169.183 454.042 169.415 454.841 169.877C455.661 170.319 456.312 170.96 456.796 171.801C457.279 172.621 457.521 173.609 457.521 174.765C457.521 175.921 457.279 176.92 456.796 177.761C456.312 178.602 455.661 179.254 454.841 179.716C454.042 180.158 453.127 180.378 452.097 180.378ZM452.097 177.572C452.728 177.572 453.253 177.341 453.674 176.878C454.115 176.394 454.336 175.69 454.336 174.765C454.336 173.84 454.115 173.136 453.674 172.652C453.253 172.169 452.728 171.927 452.097 171.927C451.466 171.927 450.93 172.169 450.489 172.652C450.068 173.136 449.858 173.84 449.858 174.765C449.858 175.69 450.068 176.394 450.489 176.878C450.93 177.341 451.466 177.572 452.097 177.572Z" fill="#03133D"/>
<path d="M398.576 240.182C417.787 240.182 415.517 203.967 434.728 203.967C453.939 203.967 451.665 213.624 470.876 213.624C490.087 213.624 487.128 229.49 506.339 229.49C525.55 229.49 528.803 237.64 548.014 237.64" stroke="#FFAE00" stroke-width="2.0694" stroke-linecap="round"/>
<path d="M398.575 240.182C417.346 240.182 419.744 215.004 438.514 215.004C457.284 215.004 454.173 195 472.943 195C491.714 195 491.355 223.282 510.125 223.282C528.896 223.282 529.915 237.536 548.686 237.536" stroke="#0097FE" stroke-width="2.0694" stroke-linecap="round"/>
<path d="M109.611 120H173.465V145.752H275.316V172" stroke="#0097FE" stroke-width="2" stroke-linecap="round" stroke-linejoin="round" stroke-dasharray="4 5"/>
<g filter="url(#filter6_d_271_773)">
<rect x="45.7246" y="90" width="63.8863" height="64" rx="10" fill="white"/>
</g>
<g clip-path="url(#clip0_271_773)">
<path d="M89.6464 106H65.6891C63.4863 106 61.6962 107.793 61.6962 110V134C61.6962 136.205 63.4863 138 65.6891 138H89.6464C91.8478 138 93.6393 136.205 93.6393 134V110C93.6393 107.793 91.8478 106 89.6464 106Z" fill="#3B5999"/>
<path d="M83.657 122V118C83.657 116.896 84.5515 117 85.6535 117H87.6499V112H83.657C80.3483 112 77.6677 114.685 77.6677 118V122H73.6748V127H77.6677V138H83.657V127H86.6517L88.6482 122H83.657Z" fill="white"/>
</g>
<path d="M363.16 68H313.249V173" stroke="#0097FE" stroke-width="2" stroke-linecap="round" stroke-linejoin="round" stroke-dasharray="4 5"/>
<g filter="url(#filter7_d_271_773)">
<rect x="363.16" y="36" width="63.8863" height="64" rx="10" fill="white"/>
</g>
<g clip-path="url(#clip1_271_773)">
<path d="M407.816 62.332C407.816 62.0427 407.806 61.7613 407.792 61.484C409.091 60.56 410.184 59.4067 411.075 58.0787V58.0773C409.886 58.5987 408.622 58.9453 407.301 59.1133C408.659 58.3013 409.696 57.0253 410.183 55.488C408.917 56.244 407.519 56.7773 406.03 57.076C404.828 55.7933 403.115 55 401.247 55C397.621 55 394.702 57.948 394.702 61.5613C394.702 62.0813 394.746 62.5813 394.854 63.0573C389.41 62.7907 384.592 60.1773 381.355 56.1947C380.791 57.1773 380.458 58.3013 380.458 59.5107C380.458 61.7827 381.626 63.796 383.368 64.9627C382.315 64.9427 381.284 64.636 380.409 64.1547V64.2267C380.409 67.4147 382.678 70.0627 385.656 70.6733C384.655 70.948 383.422 70.9373 382.7 70.7773C383.547 73.3747 385.957 75.2853 388.818 75.348C386.59 77.0933 383.76 78.1453 380.698 78.1453C380.162 78.1453 379.646 78.1213 379.131 78.056C382.033 79.9293 385.469 81 389.177 81C401.228 81 407.816 71 407.816 62.332Z" fill="#55ACEE"/>
</g>
<path d="M433.035 438H496.922" stroke="#0097FE" stroke-width="1.5" stroke-linecap="round" stroke-linejoin="round" stroke-dasharray="4 5"/>
<g filter="url(#filter8_d_271_773)">
<rect x="496.922" y="402" width="63.8863" height="64" rx="10" fill="white"/>
</g>
<g clip-path="url(#clip2_271_773)">
<path d="M540.837 446V445.999H540.843V437.197C540.843 432.891 539.918 429.574 534.893 429.574C532.477 429.574 530.856 430.902 530.194 432.161H530.124V429.976H525.36V445.999H530.321V438.065C530.321 435.976 530.716 433.956 533.299 433.956C535.843 433.956 535.881 436.34 535.881 438.199V446H540.837Z" fill="#0077B5"/>
<path d="M517.281 429.977H522.248V446H517.281V429.977Z" fill="#0077B5"/>
<path d="M519.763 422C518.175 422 516.886 423.291 516.886 424.882C516.886 426.473 518.175 427.791 519.763 427.791C521.351 427.791 522.64 426.473 522.64 424.882C522.639 423.291 521.35 422 519.763 422V422Z" fill="#0077B5"/>
</g>
<path d="M166.51 553V601H108.613" stroke="#0097FE" stroke-width="2" stroke-linecap="round" stroke-linejoin="round" stroke-dasharray="4 5"/>
<g filter="url(#filter9_d_271_773)">
<rect x="44.7264" y="569" width="63.8863" height="64" rx="10" fill="white"/>
</g>
<g clip-path="url(#clip3_271_773)">
<path d="M62.694 587.177C60.1838 589.789 60.6976 592.564 60.6976 600.993C60.6976 607.993 59.4784 615.01 65.8591 616.662C67.8515 617.176 85.5054 617.176 87.4952 616.66C90.1518 615.973 92.3133 613.814 92.6088 610.05C92.65 609.525 92.65 592.47 92.6075 591.934C92.2933 587.925 89.8297 585.614 86.5835 585.146C85.8395 585.038 85.6904 585.006 81.8732 585C68.3333 585.006 65.3653 584.402 62.694 587.177Z" fill="url(#paint0_linear_271_773)"/>
<path d="M76.6672 589.185C71.8344 589.185 67.2453 588.755 65.4924 593.261C64.7683 595.123 64.8735 597.54 64.8735 601.001C64.8735 604.039 64.7763 606.893 65.4924 608.74C67.2413 613.249 71.8677 612.817 76.6645 612.817C81.2923 612.817 86.0638 613.3 87.838 608.74C88.5633 606.86 88.4569 604.479 88.4569 601.001C88.4569 596.385 88.7111 593.405 86.4764 591.168C84.2137 588.901 81.1539 589.185 76.6618 589.185H76.6672ZM75.6104 591.315C85.6911 591.299 86.9742 590.176 86.2661 605.772C86.0145 611.288 81.822 610.683 76.6685 610.683C67.2719 610.683 67.0017 610.413 67.0017 600.996C67.0017 591.469 67.747 591.32 75.6104 591.312V591.315ZM82.9626 593.276C82.1814 593.276 81.5478 593.911 81.5478 594.693C81.5478 595.476 82.1814 596.111 82.9626 596.111C83.7439 596.111 84.3774 595.476 84.3774 594.693C84.3774 593.911 83.7439 593.276 82.9626 593.276ZM76.6672 594.933C73.3225 594.933 70.6113 597.651 70.6113 601.001C70.6113 604.352 73.3225 607.068 76.6672 607.068C80.0119 607.068 82.7217 604.352 82.7217 601.001C82.7217 597.651 80.0119 594.933 76.6672 594.933ZM76.6672 597.063C81.8646 597.063 81.8712 604.94 76.6672 604.94C71.4711 604.94 71.4631 597.063 76.6672 597.063Z" fill="white"/>
</g>
<defs>
<filter id="filter0_d_271_773" x="50.7264" y="118" width="487" height="560" filterUnits="userSpaceOnUse" color-interpolation-filters="sRGB">
<feFlood flood-opacity="0" result="BackgroundImageFix"/>
<feColorMatrix in="SourceAlpha" type="matrix" values="0 0 0 0 0 0 0 0 0 0 0 0 0 0 0 0 0 0 127 0" result="hardAlpha"/>
<feOffset dx="16" dy="32"/>
<feGaussianBlur stdDeviation="37"/>
<feComposite in2="hardAlpha" operator="out"/>
<feColorMatrix type="matrix" values="0 0 0 0 0.495833 0 0 0 0 0.542422 0 0 0 0 0.991667 0 0 0 0.08 0"/>
<feBlend mode="normal" in2="BackgroundImageFix" result="effect1_dropShadow_271_773"/>
<feBlend mode="normal" in="SourceGraphic" in2="effect1_dropShadow_271_773" result="shape"/>
</filter>
<filter id="filter1_d_271_773" x="115.093" y="475.465" width="172.957" height="94.9761" filterUnits="userSpaceOnUse" color-interpolation-filters="sRGB">
<feFlood flood-opacity="0" result="BackgroundImageFix"/>
<feColorMatrix in="SourceAlpha" type="matrix" values="0 0 0 0 0 0 0 0 0 0 0 0 0 0 0 0 0 0 127 0" result="hardAlpha"/>
<feOffset dy="4.94357"/>
<feGaussianBlur stdDeviation="8.23929"/>
<feColorMatrix type="matrix" values="0 0 0 0 0.11 0 0 0 0 0.14137 0 0 0 0 0.4125 0 0 0 0.05 0"/>
<feBlend mode="normal" in2="BackgroundImageFix" result="effect1_dropShadow_271_773"/>
<feBlend mode="normal" in="SourceGraphic" in2="effect1_dropShadow_271_773" result="shape"/>
</filter>
<filter id="filter2_d_271_773" x="269.093" y="475.465" width="172.957" height="94.9761" filterUnits="userSpaceOnUse" color-interpolation-filters="sRGB">
<feFlood flood-opacity="0" result="BackgroundImageFix"/>
<feColorMatrix in="SourceAlpha" type="matrix" values="0 0 0 0 0 0 0 0 0 0 0 0 0 0 0 0 0 0 127 0" result="hardAlpha"/>
<feOffset dy="4.94357"/>
<feGaussianBlur stdDeviation="8.23929"/>
<feColorMatrix type="matrix" values="0 0 0 0 0.11 0 0 0 0 0.14137 0 0 0 0 0.4125 0 0 0 0.05 0"/>
<feBlend mode="normal" in2="BackgroundImageFix" result="effect1_dropShadow_271_773"/>
<feBlend mode="normal" in="SourceGraphic" in2="effect1_dropShadow_271_773" result="shape"/>
</filter>
<filter id="filter3_d_271_773" x="287.138" y="39" width="391.645" height="420" filterUnits="userSpaceOnUse" color-interpolation-filters="sRGB">
<feFlood flood-opacity="0" result="BackgroundImageFix"/>
<feColorMatrix in="SourceAlpha" type="matrix" values="0 0 0 0 0 0 0 0 0 0 0 0 0 0 0 0 0 0 127 0" result="hardAlpha"/>
<feOffset dx="8" dy="24"/>
<feGaussianBlur stdDeviation="48"/>
<feComposite in2="hardAlpha" operator="out"/>
<feColorMatrix type="matrix" values="0 0 0 0 0.494118 0 0 0 0 0.541176 0 0 0 0 0.992157 0 0 0 0.08 0"/>
<feBlend mode="normal" in2="BackgroundImageFix" result="effect1_dropShadow_271_773"/>
<feBlend mode="normal" in="SourceGraphic" in2="effect1_dropShadow_271_773" result="shape"/>
</filter>
<filter id="filter4_d_271_773" x="382.097" y="285.465" width="190.677" height="56.2333" filterUnits="userSpaceOnUse" color-interpolation-filters="sRGB">
<feFlood flood-opacity="0" result="BackgroundImageFix"/>
<feColorMatrix in="SourceAlpha" type="matrix" values="0 0 0 0 0 0 0 0 0 0 0 0 0 0 0 0 0 0 127 0" result="hardAlpha"/>
<feOffset dy="4.94357"/>
<feGaussianBlur stdDeviation="8.23929"/>
<feColorMatrix type="matrix" values="0 0 0 0 0.11 0 0 0 0 0.14137 0 0 0 0 0.4125 0 0 0 0.05 0"/>
<feBlend mode="normal" in2="BackgroundImageFix" result="effect1_dropShadow_271_773"/>
<feBlend mode="normal" in="SourceGraphic" in2="effect1_dropShadow_271_773" result="shape"/>
</filter>
<filter id="filter5_d_271_773" x="417.575" y="234" width="209.698" height="66.1857" filterUnits="userSpaceOnUse" color-interpolation-filters="sRGB">
<feFlood flood-opacity="0" result="BackgroundImageFix"/>
<feColorMatrix in="SourceAlpha" type="matrix" values="0 0 0 0 0 0 0 0 0 0 0 0 0 0 0 0 0 0 127 0" result="hardAlpha"/>
<feOffset dy="4"/>
<feGaussianBlur stdDeviation="10"/>
<feColorMatrix type="matrix" values="0 0 0 0 0.14902 0 0 0 0 0.14902 0 0 0 0 0.14902 0 0 0 0.04 0"/>
<feBlend mode="normal" in2="BackgroundImageFix" result="effect1_dropShadow_271_773"/>
<feBlend mode="normal" in="SourceGraphic" in2="effect1_dropShadow_271_773" result="shape"/>
</filter>
<filter id="filter6_d_271_773" x="1.72461" y="54" width="167.886" height="168" filterUnits="userSpaceOnUse" color-interpolation-filters="sRGB">
<feFlood flood-opacity="0" result="BackgroundImageFix"/>
<feColorMatrix in="SourceAlpha" type="matrix" values="0 0 0 0 0 0 0 0 0 0 0 0 0 0 0 0 0 0 127 0" result="hardAlpha"/>
<feOffset dx="8" dy="16"/>
<feGaussianBlur stdDeviation="26"/>
<feColorMatrix type="matrix" values="0 0 0 0 0.494118 0 0 0 0 0.541176 0 0 0 0 0.992157 0 0 0 0.08 0"/>
<feBlend mode="normal" in2="BackgroundImageFix" result="effect1_dropShadow_271_773"/>
<feBlend mode="normal" in="SourceGraphic" in2="effect1_dropShadow_271_773" result="shape"/>
</filter>
<filter id="filter7_d_271_773" x="319.16" y="0" width="167.886" height="168" filterUnits="userSpaceOnUse" color-interpolation-filters="sRGB">
<feFlood flood-opacity="0" result="BackgroundImageFix"/>
<feColorMatrix in="SourceAlpha" type="matrix" values="0 0 0 0 0 0 0 0 0 0 0 0 0 0 0 0 0 0 127 0" result="hardAlpha"/>
<feOffset dx="8" dy="16"/>
<feGaussianBlur stdDeviation="26"/>
<feColorMatrix type="matrix" values="0 0 0 0 0.494118 0 0 0 0 0.541176 0 0 0 0 0.992157 0 0 0 0.08 0"/>
<feBlend mode="normal" in2="BackgroundImageFix" result="effect1_dropShadow_271_773"/>
<feBlend mode="normal" in="SourceGraphic" in2="effect1_dropShadow_271_773" result="shape"/>
</filter>
<filter id="filter8_d_271_773" x="452.922" y="366" width="167.886" height="168" filterUnits="userSpaceOnUse" color-interpolation-filters="sRGB">
<feFlood flood-opacity="0" result="BackgroundImageFix"/>
<feColorMatrix in="SourceAlpha" type="matrix" values="0 0 0 0 0 0 0 0 0 0 0 0 0 0 0 0 0 0 127 0" result="hardAlpha"/>
<feOffset dx="8" dy="16"/>
<feGaussianBlur stdDeviation="26"/>
<feColorMatrix type="matrix" values="0 0 0 0 0.494118 0 0 0 0 0.541176 0 0 0 0 0.992157 0 0 0 0.08 0"/>
<feBlend mode="normal" in2="BackgroundImageFix" result="effect1_dropShadow_271_773"/>
<feBlend mode="normal" in="SourceGraphic" in2="effect1_dropShadow_271_773" result="shape"/>
</filter>
<filter id="filter9_d_271_773" x="0.72644" y="533" width="167.886" height="168" filterUnits="userSpaceOnUse" color-interpolation-filters="sRGB">
<feFlood flood-opacity="0" result="BackgroundImageFix"/>
<feColorMatrix in="SourceAlpha" type="matrix" values="0 0 0 0 0 0 0 0 0 0 0 0 0 0 0 0 0 0 127 0" result="hardAlpha"/>
<feOffset dx="8" dy="16"/>
<feGaussianBlur stdDeviation="26"/>
<feColorMatrix type="matrix" values="0 0 0 0 0.494118 0 0 0 0 0.541176 0 0 0 0 0.992157 0 0 0 0.08 0"/>
<feBlend mode="normal" in2="BackgroundImageFix" result="effect1_dropShadow_271_773"/>
<feBlend mode="normal" in="SourceGraphic" in2="effect1_dropShadow_271_773" result="shape"/>
</filter>
<linearGradient id="paint0_linear_271_773" x1="62.7553" y1="614.956" x2="92.4882" y2="589.268" gradientUnits="userSpaceOnUse">
<stop stop-color="#FFDD55"/>
<stop offset="0.5" stop-color="#FF543E"/>
<stop offset="1" stop-color="#C837AB"/>
</linearGradient>
<clipPath id="clip0_271_773">
<rect width="31.9432" height="32" fill="white" transform="translate(61.6962 106)"/>
</clipPath>
<clipPath id="clip1_271_773">
<rect width="31.9432" height="32" fill="white" transform="translate(379.131 52)"/>
</clipPath>
<clipPath id="clip2_271_773">
<rect width="23.9574" height="24" fill="white" transform="translate(516.886 422)"/>
</clipPath>
<clipPath id="clip3_271_773">
<rect width="31.9432" height="32" fill="white" transform="translate(60.6982 585)"/>
</clipPath>
</defs>
</svg>
