<svg xmlns="http://www.w3.org/2000/svg" xmlns:xlink="http://www.w3.org/1999/xlink" width="420" zoomAndPan="magnify" viewBox="0 0 315 314.999992" height="420" preserveAspectRatio="xMidYMid meet" version="1.0"><defs><g/></defs><g fill="#f7fafc" fill-opacity="1"><g transform="translate(9.51367, 186.913501)"><g><path d="M 54.421875 0 L 12.953125 0 C 11.054688 0 9.316406 -0.460938 7.734375 -1.390625 C 6.160156 -2.316406 4.910156 -3.566406 3.984375 -5.140625 C 3.054688 -6.722656 2.59375 -8.460938 2.59375 -10.359375 L 2.59375 -41.453125 C 2.59375 -43.359375 3.054688 -45.097656 3.984375 -46.671875 C 4.910156 -48.253906 6.160156 -49.507812 7.734375 -50.4375 C 9.316406 -51.363281 11.054688 -51.828125 12.953125 -51.828125 L 54.421875 -51.828125 L 54.421875 -41.453125 L 12.953125 -41.453125 L 12.953125 -10.359375 L 54.421875 -10.359375 Z M 54.421875 0 "/></g></g></g><g fill="#f7fafc" fill-opacity="1"><g transform="translate(68.466637, 186.913501)"><g><path d="M 54.421875 -51.828125 L 54.421875 -41.453125 L 12.953125 -41.453125 L 12.953125 -31.09375 L 54.421875 -31.09375 L 54.421875 -20.734375 L 12.953125 -20.734375 L 12.953125 -10.359375 L 54.421875 -10.359375 L 54.421875 0 L 12.953125 0 C 11.054688 0 9.316406 -0.460938 7.734375 -1.390625 C 6.160156 -2.316406 4.910156 -3.566406 3.984375 -5.140625 C 3.054688 -6.722656 2.59375 -8.460938 2.59375 -10.359375 L 2.59375 -41.453125 C 2.59375 -43.359375 3.054688 -45.097656 3.984375 -46.671875 C 4.910156 -48.253906 6.160156 -49.507812 7.734375 -50.4375 C 9.316406 -51.363281 11.054688 -51.828125 12.953125 -51.828125 Z M 54.421875 -51.828125 "/></g></g></g><g fill="#f7fafc" fill-opacity="1"><g transform="translate(127.419605, 186.913501)"><g><path d="M 54.421875 -41.453125 L 54.421875 -31.09375 C 54.421875 -29.195312 53.953125 -27.457031 53.015625 -25.875 C 52.085938 -24.300781 50.835938 -23.050781 49.265625 -22.125 C 47.691406 -21.195312 45.953125 -20.734375 44.046875 -20.734375 L 33.6875 -20.734375 L 44.046875 -10.359375 L 54.421875 -10.359375 L 54.421875 0 L 41.984375 0 C 40.515625 0 39.257812 -0.519531 38.21875 -1.5625 L 19.046875 -20.734375 L 12.953125 -20.734375 L 12.953125 0 L 2.59375 0 L 2.59375 -51.828125 L 44.046875 -51.828125 C 45.953125 -51.828125 47.691406 -51.363281 49.265625 -50.4375 C 50.835938 -49.507812 52.085938 -48.253906 53.015625 -46.671875 C 53.953125 -45.097656 54.421875 -43.359375 54.421875 -41.453125 Z M 44.046875 -41.453125 L 12.953125 -41.453125 L 12.953125 -31.09375 L 44.046875 -31.09375 Z M 44.046875 -41.453125 "/></g></g></g><g fill="#f7fafc" fill-opacity="1"><g transform="translate(186.372576, 186.913501)"><g><path d="M 54.421875 -51.828125 L 54.421875 -41.453125 L 12.953125 -41.453125 L 12.953125 -31.09375 L 54.421875 -31.09375 L 54.421875 -20.734375 L 12.953125 -20.734375 L 12.953125 -10.359375 L 54.421875 -10.359375 L 54.421875 0 L 12.953125 0 C 11.054688 0 9.316406 -0.460938 7.734375 -1.390625 C 6.160156 -2.316406 4.910156 -3.566406 3.984375 -5.140625 C 3.054688 -6.722656 2.59375 -8.460938 2.59375 -10.359375 L 2.59375 -41.453125 C 2.59375 -43.359375 3.054688 -45.097656 3.984375 -46.671875 C 4.910156 -48.253906 6.160156 -49.507812 7.734375 -50.4375 C 9.316406 -51.363281 11.054688 -51.828125 12.953125 -51.828125 Z M 54.421875 -51.828125 "/></g></g></g><g fill="#f7fafc" fill-opacity="1"><g transform="translate(245.325539, 186.913501)"><g><path d="M 12.953125 -51.828125 L 44.046875 -51.828125 C 45.953125 -51.828125 47.691406 -51.363281 49.265625 -50.4375 C 50.835938 -49.507812 52.085938 -48.253906 53.015625 -46.671875 C 53.953125 -45.097656 54.421875 -43.359375 54.421875 -41.453125 L 54.421875 0 L 44.046875 0 L 44.046875 -41.453125 L 33.6875 -41.453125 L 33.6875 0 L 23.328125 0 L 23.328125 -41.453125 L 12.953125 -41.453125 L 12.953125 0 L 2.59375 0 L 2.59375 -41.453125 C 2.59375 -43.359375 3.054688 -45.097656 3.984375 -46.671875 C 4.910156 -48.253906 6.160156 -49.507812 7.734375 -50.4375 C 9.316406 -51.363281 11.054688 -51.828125 12.953125 -51.828125 Z M 12.953125 -51.828125 "/></g></g></g></svg>