<svg width="183" height="48" viewBox="0 0 183 48" fill="none" xmlns="http://www.w3.org/2000/svg">
<path d="M15.7144 33.4286C24.3931 33.4286 31.4287 26.393 31.4287 17.7143C31.4287 16.7307 31.3383 15.7682 31.1654 14.8347C30.2319 14.6618 29.2694 14.5714 28.2858 14.5714C19.6071 14.5714 12.5715 21.6069 12.5715 30.2857C12.5715 31.2693 12.6619 32.2318 12.8348 33.1653C13.7683 33.3382 14.7308 33.4286 15.7144 33.4286Z" fill="white"/>
<path fill-rule="evenodd" clip-rule="evenodd" d="M12.8347 33.1653C5.53118 31.8127 0 25.4095 0 17.7143C0 9.03553 7.03553 2 15.7143 2C23.4095 2 29.8128 7.53118 31.1653 14.8347C30.2318 14.6618 29.2693 14.5714 28.2857 14.5714C19.607 14.5714 12.5714 21.607 12.5714 30.2857C12.5714 31.2693 12.6618 32.2318 12.8347 33.1653Z" fill="#CDD0D8"/>
<path fill-rule="evenodd" clip-rule="evenodd" d="M15.7143 33.4285C24.3931 33.4285 31.4286 26.393 31.4286 17.7142C31.4286 16.7306 31.3382 15.7681 31.1654 14.8346C38.4689 16.1872 44 22.5905 44 30.2856C44 38.9644 36.9645 45.9999 28.2858 45.9999C20.5906 45.9999 14.1873 40.4687 12.8347 33.1652C13.7682 33.3381 14.7307 33.4285 15.7143 33.4285Z" fill="#CDD0D8"/>
<path d="M74.2281 28.9039C73.6681 30.7146 72.6881 32.0679 71.2881 32.9639C69.8881 33.8413 68.2548 34.2799 66.3881 34.2799C64.5588 34.2799 62.9721 33.8973 61.6281 33.1319C60.3028 32.3666 59.2761 31.2746 58.5481 29.8559C57.8388 28.4373 57.4841 26.7386 57.4841 24.7599C57.4841 22.7813 57.8481 21.0826 58.5761 19.6639C59.3041 18.2453 60.3308 17.1533 61.6561 16.3879C62.9815 15.6226 64.5401 15.2399 66.3321 15.2399C68.2175 15.2399 69.8321 15.6413 71.1761 16.4439C72.5388 17.2279 73.4721 18.4226 73.9761 20.0279L70.4761 21.5119C70.1588 20.3919 69.6735 19.5986 69.0201 19.1319C68.3668 18.6466 67.5268 18.4039 66.5001 18.4039C64.9695 18.4039 63.7468 18.9546 62.8321 20.0559C61.9361 21.1386 61.4881 22.7066 61.4881 24.7599C61.4881 26.7946 61.9175 28.3626 62.7761 29.4639C63.6348 30.5653 64.8761 31.1159 66.5001 31.1159C67.5081 31.1159 68.3761 30.8453 69.1041 30.3039C69.8508 29.7626 70.3735 28.9413 70.6721 27.8399L74.2281 28.9039Z" fill="#CDD0D8"/>
<path d="M79.0614 17.9839C77.4747 17.9839 76.6814 17.3026 76.6814 15.9399C76.6814 14.5586 77.4747 13.8679 79.0614 13.8679C80.6481 13.8679 81.4414 14.5586 81.4414 15.9399C81.4414 17.3026 80.6481 17.9839 79.0614 17.9839ZM80.9654 19.9999V33.9999H77.1294V19.9999H80.9654Z" fill="#CDD0D8"/>
<path d="M85.0318 33.9999V19.9999H88.3637L88.6157 22.7439C88.9704 21.7919 89.5024 21.0546 90.2117 20.5319C90.9397 19.9906 91.8544 19.7199 92.9557 19.7199C93.6091 19.7199 94.1131 19.8226 94.4677 20.0279L94.0197 23.2479C93.8331 23.1919 93.5997 23.1453 93.3197 23.1079C93.0584 23.0519 92.7131 23.0239 92.2837 23.0239C91.7051 23.0239 91.1544 23.1639 90.6317 23.4439C90.1277 23.7053 89.7077 24.1159 89.3717 24.6759C89.0357 25.2173 88.8678 25.9079 88.8678 26.7479V33.9999H85.0318Z" fill="#CDD0D8"/>
<path d="M102.927 19.7199C104.793 19.7199 106.24 20.1213 107.267 20.9239C108.312 21.7266 109.003 22.6973 109.339 23.8359L105.755 25.1239C105.381 23.4253 104.457 22.5759 102.983 22.5759C101.919 22.5759 101.088 22.9493 100.491 23.6959C99.9121 24.4426 99.6228 25.5533 99.6228 27.0279C99.6228 28.5213 99.9215 29.6319 100.519 30.3599C101.135 31.0693 101.965 31.4239 103.011 31.4239C104.635 31.4239 105.605 30.5933 105.923 28.9319L109.395 30.0519C109.077 31.3026 108.368 32.3199 107.267 33.1039C106.184 33.8879 104.775 34.2799 103.039 34.2799C101.583 34.2799 100.304 33.9906 99.2028 33.4119C98.1201 32.8333 97.2801 32.0026 96.6828 30.9199C96.0855 29.8373 95.7868 28.5306 95.7868 26.9999C95.7868 25.4693 96.0855 24.1626 96.6828 23.0799C97.2988 21.9973 98.1388 21.1666 99.2028 20.5879C100.285 20.0093 101.527 19.7199 102.927 19.7199Z" fill="#CDD0D8"/>
<path d="M118.759 19.7199C120.159 19.7199 121.401 20.0093 122.483 20.5879C123.566 21.1666 124.406 21.9973 125.003 23.0799C125.619 24.1626 125.927 25.4693 125.927 26.9999C125.927 28.5306 125.619 29.8373 125.003 30.9199C124.406 32.0026 123.566 32.8333 122.483 33.4119C121.401 33.9906 120.159 34.2799 118.759 34.2799C117.341 34.2799 116.09 33.9906 115.007 33.4119C113.943 32.8333 113.103 32.0026 112.487 30.9199C111.89 29.8373 111.591 28.5306 111.591 26.9999C111.591 25.4693 111.89 24.1626 112.487 23.0799C113.103 21.9973 113.943 21.1666 115.007 20.5879C116.09 20.0093 117.341 19.7199 118.759 19.7199ZM118.759 22.5759C117.714 22.5759 116.893 22.9493 116.295 23.6959C115.717 24.4239 115.427 25.5253 115.427 26.9999C115.427 28.4746 115.717 29.5853 116.295 30.3319C116.893 31.0599 117.714 31.4239 118.759 31.4239C119.786 31.4239 120.589 31.0599 121.167 30.3319C121.765 29.5853 122.063 28.4746 122.063 26.9999C122.063 25.5253 121.765 24.4239 121.167 23.6959C120.589 22.9493 119.786 22.5759 118.759 22.5759Z" fill="#CDD0D8"/>
<path d="M135.521 19.7199C136.921 19.7199 138.163 20.0093 139.245 20.5879C140.328 21.1666 141.168 21.9973 141.765 23.0799C142.381 24.1626 142.689 25.4693 142.689 26.9999C142.689 28.5306 142.381 29.8373 141.765 30.9199C141.168 32.0026 140.328 32.8333 139.245 33.4119C138.163 33.9906 136.921 34.2799 135.521 34.2799C134.103 34.2799 132.852 33.9906 131.769 33.4119C130.705 32.8333 129.865 32.0026 129.249 30.9199C128.652 29.8373 128.353 28.5306 128.353 26.9999C128.353 25.4693 128.652 24.1626 129.249 23.0799C129.865 21.9973 130.705 21.1666 131.769 20.5879C132.852 20.0093 134.103 19.7199 135.521 19.7199ZM135.521 22.5759C134.476 22.5759 133.655 22.9493 133.057 23.6959C132.479 24.4239 132.189 25.5253 132.189 26.9999C132.189 28.4746 132.479 29.5853 133.057 30.3319C133.655 31.0599 134.476 31.4239 135.521 31.4239C136.548 31.4239 137.351 31.0599 137.929 30.3319C138.527 29.5853 138.825 28.4746 138.825 26.9999C138.825 25.5253 138.527 24.4239 137.929 23.6959C137.351 22.9493 136.548 22.5759 135.521 22.5759Z" fill="#CDD0D8"/>
<path d="M149.679 13.8679V29.6879C149.679 30.3413 149.791 30.7986 150.015 31.0599C150.239 31.3213 150.612 31.4519 151.135 31.4519C151.452 31.4519 151.714 31.4333 151.919 31.3959C152.124 31.3586 152.386 31.2839 152.703 31.1719L152.367 33.6919C152.05 33.8786 151.648 34.0186 151.163 34.1119C150.696 34.2239 150.23 34.2799 149.763 34.2799C148.4 34.2799 147.402 33.9533 146.767 33.2999C146.151 32.6279 145.843 31.5639 145.843 30.1079V13.8679H149.679Z" fill="#CDD0D8"/>
<path d="M161.336 34.2799C159.134 34.2799 157.37 33.6453 156.044 32.3759C154.719 31.0879 154.056 29.2959 154.056 26.9999C154.056 25.4693 154.355 24.1626 154.952 23.0799C155.55 21.9973 156.38 21.1666 157.444 20.5879C158.527 20.0093 159.759 19.7199 161.14 19.7199C162.559 19.7199 163.763 20.0093 164.752 20.5879C165.742 21.1479 166.498 21.9226 167.02 22.9119C167.543 23.8826 167.804 24.9933 167.804 26.2439C167.804 26.6173 167.795 26.9719 167.776 27.3079C167.758 27.6439 167.73 27.9426 167.692 28.2039H157.808C157.958 29.2866 158.331 30.0986 158.928 30.6399C159.544 31.1626 160.338 31.4239 161.308 31.4239C162.13 31.4239 162.792 31.2653 163.296 30.9479C163.8 30.6306 164.192 30.1919 164.472 29.6319L167.524 30.8079C167.076 31.9093 166.292 32.7679 165.172 33.3839C164.052 33.9813 162.774 34.2799 161.336 34.2799ZM161.112 22.5479C159.302 22.5479 158.21 23.5466 157.836 25.5439H164.136C164.024 24.5733 163.707 23.8359 163.184 23.3319C162.68 22.8093 161.99 22.5479 161.112 22.5479Z" fill="#CDD0D8"/>
<path d="M176.655 34.2799C175.236 34.2799 173.939 34.0279 172.763 33.5239C171.606 33.0199 170.663 32.3106 169.935 31.3959L172.147 29.1559C172.595 29.8279 173.192 30.3786 173.939 30.8079C174.686 31.2373 175.572 31.4519 176.599 31.4519C177.327 31.4519 177.906 31.3493 178.335 31.1439C178.783 30.9199 179.007 30.5746 179.007 30.1079C179.007 29.8093 178.905 29.5573 178.699 29.3519C178.494 29.1279 178.083 28.9506 177.467 28.8199L175.003 28.3159C173.379 27.9799 172.222 27.4759 171.531 26.8039C170.859 26.1133 170.523 25.2266 170.523 24.1439C170.523 23.3786 170.747 22.6599 171.195 21.9879C171.662 21.3159 172.352 20.7746 173.267 20.3639C174.182 19.9346 175.32 19.7199 176.683 19.7199C179.52 19.7199 181.555 20.5879 182.787 22.3239L180.491 24.5639C180.08 23.9106 179.539 23.4159 178.867 23.0799C178.214 22.7253 177.523 22.5479 176.795 22.5479C175.152 22.5479 174.331 23.0053 174.331 23.9199C174.331 24.2186 174.462 24.4799 174.723 24.7039C174.984 24.9093 175.46 25.0866 176.151 25.2359L179.007 25.8239C180.388 26.1039 181.378 26.5799 181.975 27.2519C182.572 27.9053 182.871 28.6986 182.871 29.6319C182.871 30.9759 182.33 32.0866 181.247 32.9639C180.183 33.8413 178.652 34.2799 176.655 34.2799Z" fill="#CDD0D8"/>
</svg>
