<svg width="216" height="48" viewBox="0 0 216 48" fill="none" xmlns="http://www.w3.org/2000/svg">
<path d="M20.5333 31.3333C28.6335 31.3333 35.2 24.7668 35.2 16.6667C35.2 8.56649 28.6335 2 20.5333 2H0V31.3333H20.5333Z" fill="#CDD0D8"/>
<path d="M0 2L35.2 46H11.7333L0 31.3333V2Z" fill="#CDD0D8"/>
<path d="M23.2637 31.0796C22.3791 31.2462 21.4664 31.3333 20.5333 31.3333H0V2L23.2637 31.0796Z" fill="white"/>
<path d="M59.34 33.28C57.2866 33.28 55.5226 32.8693 54.048 32.048C52.592 31.208 51.472 30.032 50.688 28.52C49.904 26.9893 49.512 25.188 49.512 23.116C49.512 21.044 49.904 19.252 50.688 17.74C51.472 16.228 52.592 15.0613 54.048 14.24C55.5226 13.4 57.2866 12.98 59.34 12.98C60.6653 12.98 61.916 13.1853 63.092 13.596C64.2866 14.0066 65.2666 14.5946 66.032 15.36L64.856 18.216C64.016 17.5066 63.1573 16.9933 62.28 16.676C61.4026 16.34 60.46 16.172 59.452 16.172C57.4546 16.172 55.9333 16.7786 54.888 17.992C53.8426 19.1866 53.32 20.8946 53.32 23.116C53.32 25.3373 53.8426 27.0546 54.888 28.268C55.9333 29.4813 57.4546 30.088 59.452 30.088C60.46 30.088 61.4026 29.9293 62.28 29.612C63.1573 29.276 64.016 28.7533 64.856 28.044L66.032 30.9C65.2666 31.6466 64.2866 32.2346 63.092 32.664C61.916 33.0746 60.6653 33.28 59.34 33.28Z" fill="#CDD0D8"/>
<path d="M74.0835 33.28C72.6648 33.28 71.4328 32.9906 70.3875 32.412C69.3422 31.8333 68.5302 31.012 67.9515 29.948C67.3728 28.8653 67.0835 27.596 67.0835 26.14C67.0835 24.684 67.3728 23.424 67.9515 22.36C68.5302 21.296 69.3422 20.4746 70.3875 19.896C71.4328 19.3173 72.6648 19.028 74.0835 19.028C75.5022 19.028 76.7342 19.3173 77.7795 19.896C78.8248 20.4746 79.6368 21.296 80.2155 22.36C80.7942 23.424 81.0835 24.684 81.0835 26.14C81.0835 27.596 80.7942 28.8653 80.2155 29.948C79.6368 31.012 78.8248 31.8333 77.7795 32.412C76.7342 32.9906 75.5022 33.28 74.0835 33.28ZM74.0835 30.62C75.1288 30.62 75.9688 30.2466 76.6035 29.5C77.2382 28.7346 77.5555 27.6146 77.5555 26.14C77.5555 24.6466 77.2382 23.536 76.6035 22.808C75.9688 22.0613 75.1288 21.688 74.0835 21.688C73.0382 21.688 72.1982 22.0613 71.5635 22.808C70.9288 23.536 70.6115 24.6466 70.6115 26.14C70.6115 27.6146 70.9288 28.7346 71.5635 29.5C72.1982 30.2466 73.0382 30.62 74.0835 30.62Z" fill="#CDD0D8"/>
<path d="M84.0283 33V19.308H87.4443V21.408C87.855 20.6613 88.4243 20.0826 89.1523 19.672C89.8803 19.2426 90.7203 19.028 91.6723 19.028C93.7256 19.028 95.0696 19.924 95.7043 21.716C96.1336 20.876 96.7496 20.2226 97.5523 19.756C98.355 19.2706 99.2696 19.028 100.296 19.028C103.376 19.028 104.916 20.904 104.916 24.656V33H101.416V24.796C101.416 23.7506 101.239 22.9853 100.884 22.5C100.548 22.0146 99.9696 21.772 99.1483 21.772C98.2336 21.772 97.515 22.0986 96.9923 22.752C96.4696 23.3866 96.2083 24.2733 96.2083 25.412V33H92.7083V24.796C92.7083 23.7506 92.531 22.9853 92.1763 22.5C91.8403 22.0146 91.271 21.772 90.4683 21.772C89.5536 21.772 88.835 22.0986 88.3123 22.752C87.7896 23.3866 87.5283 24.2733 87.5283 25.412V33H84.0283Z" fill="#CDD0D8"/>
<path d="M108.583 33V19.308H111.999V21.408C112.41 20.6613 112.979 20.0826 113.707 19.672C114.435 19.2426 115.275 19.028 116.227 19.028C118.28 19.028 119.624 19.924 120.259 21.716C120.688 20.876 121.304 20.2226 122.107 19.756C122.91 19.2706 123.824 19.028 124.851 19.028C127.931 19.028 129.471 20.904 129.471 24.656V33H125.971V24.796C125.971 23.7506 125.794 22.9853 125.439 22.5C125.103 22.0146 124.524 21.772 123.703 21.772C122.788 21.772 122.07 22.0986 121.547 22.752C121.024 23.3866 120.763 24.2733 120.763 25.412V33H117.263V24.796C117.263 23.7506 117.086 22.9853 116.731 22.5C116.395 22.0146 115.826 21.772 115.023 21.772C114.108 21.772 113.39 22.0986 112.867 22.752C112.344 23.3866 112.083 24.2733 112.083 25.412V33H108.583Z" fill="#CDD0D8"/>
<path d="M137.59 33.28C136.6 33.28 135.714 33.0933 134.93 32.72C134.164 32.328 133.558 31.8053 133.11 31.152C132.68 30.4986 132.466 29.7613 132.466 28.94C132.466 27.932 132.727 27.1386 133.25 26.56C133.772 25.9626 134.622 25.5333 135.798 25.272C136.974 25.0106 138.551 24.88 140.53 24.88H141.51V24.292C141.51 23.3586 141.304 22.6866 140.894 22.276C140.483 21.8653 139.792 21.66 138.822 21.66C138.056 21.66 137.272 21.7813 136.47 22.024C135.667 22.248 134.855 22.6026 134.034 23.088L133.026 20.708C133.511 20.372 134.08 20.0826 134.734 19.84C135.406 19.5786 136.106 19.3826 136.834 19.252C137.58 19.1026 138.28 19.028 138.934 19.028C140.931 19.028 142.415 19.4946 143.386 20.428C144.356 21.3426 144.842 22.7706 144.842 24.712V33H141.566V30.816C141.248 31.5813 140.744 32.188 140.054 32.636C139.363 33.0653 138.542 33.28 137.59 33.28ZM138.318 30.872C139.232 30.872 139.988 30.5546 140.586 29.92C141.202 29.2853 141.51 28.4826 141.51 27.512V26.896H140.558C138.803 26.896 137.58 27.036 136.89 27.316C136.218 27.5773 135.882 28.0626 135.882 28.772C135.882 29.388 136.096 29.892 136.526 30.284C136.955 30.676 137.552 30.872 138.318 30.872Z" fill="#CDD0D8"/>
<path d="M148.394 33V19.308H151.81V21.436C152.277 20.652 152.902 20.0546 153.686 19.644C154.489 19.2333 155.385 19.028 156.374 19.028C159.604 19.028 161.218 20.904 161.218 24.656V33H157.718V24.824C157.718 23.76 157.513 22.9853 157.102 22.5C156.71 22.0146 156.094 21.772 155.254 21.772C154.228 21.772 153.406 22.0986 152.79 22.752C152.193 23.3866 151.894 24.236 151.894 25.3V33H148.394Z" fill="#CDD0D8"/>
<path d="M170.037 33.28C168.842 33.28 167.788 32.9906 166.873 32.412C165.977 31.8333 165.277 31.012 164.773 29.948C164.269 28.8653 164.017 27.596 164.017 26.14C164.017 24.6653 164.269 23.4053 164.773 22.36C165.277 21.296 165.977 20.4746 166.873 19.896C167.788 19.3173 168.842 19.028 170.037 19.028C171.008 19.028 171.885 19.2426 172.669 19.672C173.453 20.1013 174.041 20.6706 174.433 21.38V13.26H177.933V33H174.517V30.732C174.144 31.516 173.556 32.1413 172.753 32.608C171.95 33.056 171.045 33.28 170.037 33.28ZM171.017 30.62C172.062 30.62 172.902 30.2466 173.537 29.5C174.172 28.7346 174.489 27.6146 174.489 26.14C174.489 24.6466 174.172 23.536 173.537 22.808C172.902 22.0613 172.062 21.688 171.017 21.688C169.972 21.688 169.132 22.0613 168.497 22.808C167.862 23.536 167.545 24.6466 167.545 26.14C167.545 27.6146 167.862 28.7346 168.497 29.5C169.132 30.2466 169.972 30.62 171.017 30.62Z" fill="#CDD0D8"/>
<path d="M186.854 31.88V26.196H181.31V23.732H186.854V18.216H189.43V23.732H194.974V26.196H189.43V31.88H186.854Z" fill="#CDD0D8"/>
<path d="M198.687 33V13.26H207.255C209.421 13.26 211.091 13.7826 212.267 14.828C213.443 15.8546 214.031 17.3013 214.031 19.168C214.031 20.6426 213.649 21.8653 212.883 22.836C212.118 23.788 211.017 24.432 209.579 24.768C210.531 25.0666 211.315 25.7853 211.931 26.924L215.235 33H211.287L207.871 26.7C207.535 26.084 207.134 25.664 206.667 25.44C206.219 25.216 205.641 25.104 204.931 25.104H202.271V33H198.687ZM202.271 22.444H206.639C209.253 22.444 210.559 21.38 210.559 19.252C210.559 17.1426 209.253 16.088 206.639 16.088H202.271V22.444Z" fill="#CDD0D8"/>
</svg>
