<svg width="64" height="65" viewBox="0 0 64 65" fill="none" xmlns="http://www.w3.org/2000/svg">
<rect y="0.5" width="64" height="64" rx="10" fill="url(#paint0_linear_271_881)"/>
<path fill-rule="evenodd" clip-rule="evenodd" d="M36 32.5H33.3333V29.8333C33.3333 29.096 32.736 28.5 32 28.5C31.264 28.5 30.6667 29.096 30.6667 29.8333V33.8333C30.6667 34.5706 31.264 35.1666 32 35.1666H36C36.736 35.1666 37.3333 34.5706 37.3333 33.8333C37.3333 33.096 36.736 32.5 36 32.5ZM32 42.8333C27.0373 42.8333 23 38.796 23 33.8333C23 28.8706 27.0373 24.8333 32 24.8333C36.9627 24.8333 41 28.8706 41 33.8333C41 38.796 36.9627 42.8333 32 42.8333ZM33.3173 21.9106C33.32 21.8826 33.3333 21.8613 33.3333 21.8333V20.5H34.6667C35.4027 20.5 36 19.904 36 19.1666C36 18.4293 35.4027 17.8333 34.6667 17.8333H29.3333C28.5973 17.8333 28 18.4293 28 19.1666C28 19.904 28.5973 20.5 29.3333 20.5H30.6667V21.8333C30.6667 21.8613 30.68 21.8826 30.6827 21.9106C24.684 22.5693 20 27.6626 20 33.8333C20 40.4506 25.384 45.8333 32 45.8333C38.616 45.8333 44 40.4506 44 33.8333C44 27.6626 39.316 22.5693 33.3173 21.9106Z" fill="#03133D"/>
<mask id="mask0_271_881" style="mask-type:luminance" maskUnits="userSpaceOnUse" x="20" y="17" width="24" height="29">
<path fill-rule="evenodd" clip-rule="evenodd" d="M36 32.5H33.3333V29.8333C33.3333 29.096 32.736 28.5 32 28.5C31.264 28.5 30.6667 29.096 30.6667 29.8333V33.8333C30.6667 34.5706 31.264 35.1666 32 35.1666H36C36.736 35.1666 37.3333 34.5706 37.3333 33.8333C37.3333 33.096 36.736 32.5 36 32.5ZM32 42.8333C27.0373 42.8333 23 38.796 23 33.8333C23 28.8706 27.0373 24.8333 32 24.8333C36.9627 24.8333 41 28.8706 41 33.8333C41 38.796 36.9627 42.8333 32 42.8333ZM33.3173 21.9106C33.32 21.8826 33.3333 21.8613 33.3333 21.8333V20.5H34.6667C35.4027 20.5 36 19.904 36 19.1666C36 18.4293 35.4027 17.8333 34.6667 17.8333H29.3333C28.5973 17.8333 28 18.4293 28 19.1666C28 19.904 28.5973 20.5 29.3333 20.5H30.6667V21.8333C30.6667 21.8613 30.68 21.8826 30.6827 21.9106C24.684 22.5693 20 27.6626 20 33.8333C20 40.4506 25.384 45.8333 32 45.8333C38.616 45.8333 44 40.4506 44 33.8333C44 27.6626 39.316 22.5693 33.3173 21.9106Z" fill="white"/>
</mask>
<g mask="url(#mask0_271_881)">
<rect x="16" y="16.5" width="32" height="32" fill="white"/>
</g>
<defs>
<linearGradient id="paint0_linear_271_881" x1="-0.415645" y1="72.3441" x2="70.9528" y2="17.3239" gradientUnits="userSpaceOnUse">
<stop stop-color="#0097FE"/>
<stop offset="1" stop-color="#14358A"/>
</linearGradient>
</defs>
</svg>
