<svg width="64" height="64" viewBox="0 0 64 64" fill="none" xmlns="http://www.w3.org/2000/svg">
<rect width="64" height="64" rx="10" fill="url(#paint0_linear_271_964)"/>
<path fill-rule="evenodd" clip-rule="evenodd" d="M42.6666 34.6667C42.6666 35.4013 42.0693 36 41.3333 36H32.116H31.884H22.6666C21.9306 36 21.3333 35.4013 21.3333 34.6667V24C21.3333 23.2653 21.9306 22.6667 22.6666 22.6667H41.3333C42.0693 22.6667 42.6666 23.2653 42.6666 24V34.6667ZM41.3333 20H22.6666C20.4613 20 18.6666 21.7947 18.6666 24V34.6667C18.6666 36.872 20.4613 38.6667 22.6666 38.6667H30.6666V41.3333H25.3333C24.6 41.3333 24 41.9333 24 42.6667C24 43.4 24.6 44 25.3333 44H38.6666C39.4 44 40 43.4 40 42.6667C40 41.9333 39.4 41.3333 38.6666 41.3333H33.3333V38.6667H41.3333C43.5386 38.6667 45.3333 36.872 45.3333 34.6667V24C45.3333 21.7947 43.5386 20 41.3333 20Z" fill="#03133D"/>
<mask id="mask0_271_964" style="mask-type:luminance" maskUnits="userSpaceOnUse" x="18" y="20" width="28" height="24">
<path fill-rule="evenodd" clip-rule="evenodd" d="M42.6666 34.6667C42.6666 35.4013 42.0693 36 41.3333 36H32.116H31.884H22.6666C21.9306 36 21.3333 35.4013 21.3333 34.6667V24C21.3333 23.2653 21.9306 22.6667 22.6666 22.6667H41.3333C42.0693 22.6667 42.6666 23.2653 42.6666 24V34.6667ZM41.3333 20H22.6666C20.4613 20 18.6666 21.7947 18.6666 24V34.6667C18.6666 36.872 20.4613 38.6667 22.6666 38.6667H30.6666V41.3333H25.3333C24.6 41.3333 24 41.9333 24 42.6667C24 43.4 24.6 44 25.3333 44H38.6666C39.4 44 40 43.4 40 42.6667C40 41.9333 39.4 41.3333 38.6666 41.3333H33.3333V38.6667H41.3333C43.5386 38.6667 45.3333 36.872 45.3333 34.6667V24C45.3333 21.7947 43.5386 20 41.3333 20Z" fill="white"/>
</mask>
<g mask="url(#mask0_271_964)">
<rect x="16" y="16" width="32" height="32" fill="white"/>
</g>
<defs>
<linearGradient id="paint0_linear_271_964" x1="-0.415645" y1="71.8441" x2="70.9528" y2="16.8239" gradientUnits="userSpaceOnUse">
<stop stop-color="#0097FE"/>
<stop offset="1" stop-color="#14358A"/>
</linearGradient>
</defs>
</svg>
