<svg width="701" height="534" viewBox="0 0 701 534" fill="none" xmlns="http://www.w3.org/2000/svg">
<g clip-path="url(#clip0_271_971)" filter="url(#filter0_d_271_971)">
<g filter="url(#filter1_d_271_971)">
<rect x="88" y="122.173" width="509.699" height="292.004" rx="10.4661" fill="white"/>
<path opacity="0.2" d="M88 157.758H597.699V403.711C597.699 409.491 593.013 414.177 587.233 414.177H98.4661C92.6858 414.177 88 409.491 88 403.711V157.758Z" fill="#EBF7FF"/>
<rect x="113.119" y="182.876" width="214.555" height="206.182" rx="10.4661" fill="white"/>
<rect x="136" y="347" width="70" height="8" rx="4" fill="#EDF1FC"/>
<rect x="136" y="366" width="150" height="8" rx="4" fill="#EDF1FC"/>
<path d="M138.238 326.262C158.061 326.262 155.719 287.673 175.543 287.673C195.367 287.673 193.021 297.963 212.844 297.963C232.668 297.963 229.614 314.869 249.438 314.869C269.262 314.869 272.62 323.553 292.443 323.553" stroke="#FFAE00" stroke-width="2.16585" stroke-linecap="round"/>
<path d="M138.237 326.262C157.606 326.262 160.081 299.433 179.45 299.433C198.819 299.433 195.608 278.118 214.977 278.118C234.346 278.118 233.976 308.254 253.345 308.254C272.714 308.254 273.766 323.443 293.136 323.443" stroke="#0097FE" stroke-width="2.16585" stroke-linecap="round"/>
<path d="M149.323 254.77C147.559 254.77 146.074 254.446 144.869 253.798C143.663 253.151 142.692 252.28 141.955 251.186C141.218 250.092 140.682 248.875 140.347 247.535C140.035 246.196 139.878 244.823 139.878 243.416C139.878 240.804 140.247 238.537 140.984 236.617C141.72 234.675 142.781 233.179 144.165 232.129C145.55 231.058 147.224 230.522 149.189 230.522C150.797 230.522 152.159 230.846 153.275 231.493C154.414 232.118 155.296 232.944 155.921 233.971C156.546 234.998 156.914 236.104 157.026 237.287H153.041C152.84 236.26 152.404 235.467 151.734 234.909C151.065 234.351 150.205 234.072 149.156 234.072C147.66 234.072 146.454 234.764 145.538 236.148C144.623 237.51 144.132 239.598 144.065 242.411C144.601 241.496 145.404 240.737 146.476 240.134C147.548 239.531 148.742 239.23 150.06 239.23C151.355 239.23 152.572 239.542 153.71 240.167C154.849 240.793 155.765 241.674 156.457 242.813C157.171 243.952 157.528 245.292 157.528 246.832C157.528 248.239 157.182 249.545 156.49 250.751C155.82 251.956 154.86 252.928 153.61 253.664C152.382 254.401 150.953 254.77 149.323 254.77ZM149.089 251.086C150.339 251.086 151.366 250.706 152.17 249.947C152.996 249.165 153.409 248.183 153.409 247C153.409 245.749 152.996 244.745 152.17 243.985C151.344 243.226 150.294 242.847 149.022 242.847C148.195 242.847 147.447 243.036 146.778 243.416C146.13 243.773 145.617 244.264 145.237 244.89C144.857 245.492 144.668 246.173 144.668 246.933C144.668 248.138 145.081 249.132 145.907 249.913C146.755 250.695 147.816 251.086 149.089 251.086ZM169.009 254.77C167.401 254.77 165.95 254.491 164.655 253.932C163.36 253.352 162.322 252.537 161.54 251.487C160.781 250.438 160.402 249.221 160.402 247.837C160.402 246.408 160.77 245.158 161.507 244.086C162.266 243.014 163.26 242.244 164.488 241.775C163.416 241.306 162.567 240.636 161.942 239.765C161.317 238.872 161.004 237.879 161.004 236.785C161.004 235.668 161.306 234.641 161.909 233.703C162.512 232.743 163.405 231.973 164.588 231.393C165.794 230.812 167.267 230.522 169.009 230.522C170.751 230.522 172.213 230.812 173.396 231.393C174.58 231.973 175.473 232.743 176.076 233.703C176.679 234.641 176.98 235.668 176.98 236.785C176.98 237.856 176.656 238.85 176.009 239.765C175.384 240.659 174.546 241.328 173.497 241.775C174.747 242.244 175.741 243.014 176.478 244.086C177.214 245.158 177.583 246.408 177.583 247.837C177.583 249.221 177.203 250.438 176.444 251.487C175.685 252.537 174.647 253.352 173.329 253.932C172.034 254.491 170.594 254.77 169.009 254.77ZM169.009 240.502C170.17 240.502 171.085 240.201 171.755 239.598C172.425 238.995 172.76 238.225 172.76 237.287C172.76 236.26 172.425 235.456 171.755 234.876C171.108 234.295 170.192 234.005 169.009 234.005C167.803 234.005 166.877 234.295 166.229 234.876C165.582 235.456 165.258 236.26 165.258 237.287C165.258 238.247 165.582 239.029 166.229 239.631C166.899 240.212 167.826 240.502 169.009 240.502ZM169.009 251.186C170.438 251.186 171.521 250.84 172.258 250.148C172.994 249.433 173.363 248.54 173.363 247.468C173.363 246.285 172.972 245.359 172.191 244.689C171.432 244.019 170.371 243.684 169.009 243.684C167.647 243.684 166.564 244.019 165.76 244.689C164.979 245.359 164.588 246.285 164.588 247.468C164.588 248.54 164.956 249.433 165.693 250.148C166.452 250.84 167.558 251.186 169.009 251.186ZM185.618 242.445C184.546 242.445 183.575 242.21 182.704 241.741C181.833 241.25 181.141 240.558 180.627 239.665C180.114 238.772 179.857 237.711 179.857 236.483C179.857 235.255 180.114 234.195 180.627 233.302C181.141 232.408 181.833 231.727 182.704 231.259C183.575 230.767 184.557 230.522 185.651 230.522C186.723 230.522 187.683 230.767 188.531 231.259C189.402 231.727 190.094 232.408 190.608 233.302C191.121 234.195 191.378 235.255 191.378 236.483C191.378 237.711 191.121 238.772 190.608 239.665C190.094 240.558 189.402 241.25 188.531 241.741C187.661 242.21 186.689 242.445 185.618 242.445ZM184.345 254.368L197.574 230.924H201.761L188.531 254.368H184.345ZM185.618 239.464C186.265 239.464 186.823 239.218 187.292 238.727C187.761 238.214 187.996 237.466 187.996 236.483C187.996 235.501 187.761 234.753 187.292 234.239C186.846 233.726 186.287 233.469 185.618 233.469C184.948 233.469 184.378 233.726 183.91 234.239C183.463 234.753 183.24 235.501 183.24 236.483C183.24 237.466 183.463 238.214 183.91 238.727C184.378 239.218 184.948 239.464 185.618 239.464ZM200.622 254.77C199.55 254.77 198.579 254.535 197.708 254.066C196.837 253.575 196.145 252.883 195.632 251.99C195.118 251.097 194.861 250.036 194.861 248.808C194.861 247.58 195.118 246.531 195.632 245.66C196.145 244.767 196.837 244.086 197.708 243.617C198.579 243.126 199.561 242.88 200.655 242.88C201.727 242.88 202.687 243.126 203.536 243.617C204.406 244.086 205.099 244.767 205.612 245.66C206.126 246.531 206.382 247.58 206.382 248.808C206.382 250.036 206.126 251.097 205.612 251.99C205.099 252.883 204.406 253.575 203.536 254.066C202.687 254.535 201.716 254.77 200.622 254.77ZM200.622 251.789C201.292 251.789 201.85 251.543 202.296 251.052C202.765 250.539 203 249.791 203 248.808C203 247.826 202.765 247.078 202.296 246.564C201.85 246.051 201.292 245.794 200.622 245.794C199.952 245.794 199.383 246.051 198.914 246.564C198.467 247.078 198.244 247.826 198.244 248.808C198.244 249.791 198.467 250.539 198.914 251.052C199.383 251.543 199.952 251.789 200.622 251.789Z" fill="#03133D"/>
<path d="M141.967 215.586C141.323 215.586 140.762 215.469 140.284 215.235C139.807 215 139.439 214.674 139.179 214.255C138.92 213.836 138.79 213.351 138.79 212.798H139.895C139.895 213.141 139.975 213.46 140.134 213.753C140.293 214.037 140.523 214.268 140.825 214.443C141.134 214.611 141.515 214.695 141.967 214.695C142.562 214.695 143.022 214.552 143.349 214.268C143.675 213.983 143.839 213.627 143.839 213.2C143.839 212.848 143.763 212.568 143.613 212.359C143.462 212.141 143.257 211.965 142.997 211.831C142.746 211.697 142.453 211.58 142.118 211.479C141.792 211.379 141.448 211.266 141.088 211.14C140.41 210.906 139.908 210.617 139.581 210.274C139.255 209.922 139.091 209.466 139.091 208.905C139.083 208.436 139.192 208.021 139.418 207.661C139.644 207.293 139.962 207.008 140.372 206.807C140.791 206.598 141.285 206.493 141.854 206.493C142.415 206.493 142.901 206.598 143.311 206.807C143.73 207.017 144.052 207.306 144.278 207.674C144.513 208.042 144.634 208.461 144.643 208.93H143.537C143.537 208.687 143.475 208.448 143.349 208.214C143.223 207.971 143.031 207.774 142.771 207.624C142.52 207.473 142.202 207.398 141.817 207.398C141.339 207.389 140.946 207.511 140.636 207.762C140.335 208.013 140.184 208.361 140.184 208.804C140.184 209.181 140.289 209.47 140.498 209.671C140.716 209.872 141.017 210.039 141.402 210.173C141.787 210.299 142.231 210.445 142.734 210.613C143.152 210.764 143.529 210.939 143.864 211.14C144.199 211.341 144.458 211.601 144.643 211.919C144.835 212.237 144.931 212.643 144.931 213.137C144.931 213.556 144.823 213.954 144.605 214.33C144.387 214.699 144.056 215 143.613 215.235C143.177 215.469 142.629 215.586 141.967 215.586ZM148.437 215.586C147.918 215.586 147.487 215.498 147.143 215.323C146.8 215.147 146.545 214.912 146.377 214.619C146.21 214.326 146.126 214.008 146.126 213.665C146.126 213.028 146.369 212.539 146.855 212.195C147.34 211.852 148.002 211.68 148.839 211.68H150.522V211.605C150.522 211.061 150.38 210.651 150.095 210.374C149.81 210.09 149.429 209.947 148.952 209.947C148.542 209.947 148.186 210.052 147.884 210.261C147.591 210.462 147.407 210.759 147.332 211.153H146.252C146.294 210.701 146.444 210.32 146.704 210.01C146.972 209.7 147.303 209.466 147.696 209.307C148.09 209.139 148.508 209.055 148.952 209.055C149.823 209.055 150.476 209.29 150.911 209.759C151.355 210.219 151.577 210.835 151.577 211.605V215.436H150.635L150.572 214.318C150.396 214.669 150.137 214.971 149.793 215.222C149.459 215.465 149.006 215.586 148.437 215.586ZM148.6 214.695C149.002 214.695 149.346 214.59 149.63 214.381C149.923 214.171 150.145 213.899 150.296 213.564C150.447 213.229 150.522 212.878 150.522 212.509V212.497H148.927C148.307 212.497 147.868 212.606 147.608 212.823C147.357 213.033 147.231 213.296 147.231 213.615C147.231 213.941 147.349 214.205 147.583 214.406C147.826 214.598 148.165 214.695 148.6 214.695ZM153.16 215.436V206.393H154.215V215.436H153.16ZM158.744 215.586C158.15 215.586 157.622 215.452 157.162 215.184C156.701 214.908 156.337 214.527 156.069 214.042C155.81 213.556 155.68 212.982 155.68 212.321C155.68 211.668 155.81 211.098 156.069 210.613C156.329 210.119 156.689 209.738 157.149 209.47C157.618 209.194 158.158 209.055 158.77 209.055C159.372 209.055 159.892 209.194 160.327 209.47C160.771 209.738 161.11 210.094 161.344 210.537C161.579 210.981 161.696 211.458 161.696 211.969C161.696 212.061 161.692 212.153 161.683 212.246C161.683 212.338 161.683 212.442 161.683 212.56H156.722C156.747 213.037 156.856 213.434 157.049 213.753C157.25 214.062 157.497 214.297 157.79 214.456C158.091 214.615 158.41 214.695 158.744 214.695C159.18 214.695 159.544 214.594 159.837 214.393C160.13 214.192 160.344 213.92 160.478 213.577H161.52C161.353 214.155 161.03 214.636 160.553 215.021C160.084 215.398 159.481 215.586 158.744 215.586ZM158.744 209.947C158.242 209.947 157.794 210.102 157.401 210.412C157.015 210.713 156.794 211.157 156.735 211.743H160.653C160.628 211.182 160.436 210.743 160.076 210.424C159.716 210.106 159.272 209.947 158.744 209.947ZM165.48 215.586C164.735 215.586 164.116 215.398 163.622 215.021C163.128 214.644 162.839 214.134 162.755 213.489H163.835C163.902 213.815 164.074 214.1 164.35 214.343C164.635 214.577 165.016 214.695 165.493 214.695C165.937 214.695 166.263 214.603 166.473 214.418C166.682 214.226 166.787 214 166.787 213.74C166.787 213.363 166.648 213.112 166.372 212.987C166.104 212.861 165.723 212.748 165.229 212.647C164.894 212.58 164.559 212.484 164.225 212.359C163.89 212.233 163.609 212.057 163.383 211.831C163.157 211.597 163.044 211.291 163.044 210.914C163.044 210.37 163.245 209.926 163.647 209.583C164.057 209.231 164.61 209.055 165.305 209.055C165.966 209.055 166.506 209.223 166.925 209.558C167.352 209.884 167.599 210.353 167.666 210.964H166.623C166.581 210.646 166.443 210.399 166.209 210.223C165.983 210.039 165.677 209.947 165.292 209.947C164.915 209.947 164.622 210.027 164.413 210.186C164.212 210.345 164.111 210.554 164.111 210.814C164.111 211.065 164.241 211.262 164.501 211.404C164.769 211.546 165.129 211.668 165.581 211.768C165.966 211.852 166.33 211.957 166.674 212.082C167.025 212.199 167.31 212.38 167.528 212.622C167.754 212.857 167.867 213.2 167.867 213.652C167.875 214.213 167.662 214.678 167.226 215.046C166.799 215.406 166.217 215.586 165.48 215.586ZM175.159 215.436C174.59 215.436 174.142 215.297 173.815 215.021C173.489 214.745 173.326 214.247 173.326 213.527V210.098H172.245V209.206H173.326L173.464 207.712H174.381V209.206H176.214V210.098H174.381V213.527C174.381 213.92 174.46 214.188 174.619 214.33C174.778 214.464 175.059 214.531 175.461 214.531H176.114V215.436H175.159ZM177.555 215.436V209.206H178.509L178.597 210.399C178.79 209.989 179.083 209.663 179.476 209.42C179.87 209.177 180.355 209.055 180.933 209.055V210.161H180.644C180.276 210.161 179.937 210.228 179.627 210.362C179.317 210.487 179.07 210.705 178.886 211.015C178.702 211.325 178.61 211.752 178.61 212.296V215.436H177.555ZM184.685 215.586C184.09 215.586 183.563 215.452 183.102 215.184C182.642 214.908 182.278 214.527 182.01 214.042C181.75 213.556 181.62 212.982 181.62 212.321C181.62 211.668 181.75 211.098 182.01 210.613C182.269 210.119 182.629 209.738 183.09 209.47C183.559 209.194 184.099 209.055 184.71 209.055C185.313 209.055 185.832 209.194 186.267 209.47C186.711 209.738 187.05 210.094 187.285 210.537C187.519 210.981 187.636 211.458 187.636 211.969C187.636 212.061 187.632 212.153 187.624 212.246C187.624 212.338 187.624 212.442 187.624 212.56H182.663C182.688 213.037 182.797 213.434 182.989 213.753C183.19 214.062 183.437 214.297 183.73 214.456C184.032 214.615 184.35 214.695 184.685 214.695C185.12 214.695 185.484 214.594 185.777 214.393C186.071 214.192 186.284 213.92 186.418 213.577H187.46C187.293 214.155 186.971 214.636 186.493 215.021C186.024 215.398 185.422 215.586 184.685 215.586ZM184.685 209.947C184.182 209.947 183.734 210.102 183.341 210.412C182.956 210.713 182.734 211.157 182.675 211.743H186.594C186.569 211.182 186.376 210.743 186.016 210.424C185.656 210.106 185.212 209.947 184.685 209.947ZM189.035 215.436V209.206H189.989L190.052 210.324C190.253 209.93 190.542 209.621 190.918 209.395C191.295 209.169 191.722 209.055 192.2 209.055C192.936 209.055 193.522 209.282 193.958 209.734C194.402 210.177 194.623 210.864 194.623 211.793V215.436H193.568V211.906C193.568 210.609 193.033 209.96 191.961 209.96C191.425 209.96 190.977 210.157 190.617 210.55C190.265 210.935 190.09 211.488 190.09 212.208V215.436H189.035ZM199.048 215.586C198.428 215.586 197.884 215.444 197.415 215.159C196.954 214.875 196.594 214.485 196.335 213.991C196.084 213.497 195.958 212.936 195.958 212.308C195.958 211.68 196.088 211.124 196.347 210.638C196.607 210.144 196.967 209.759 197.428 209.482C197.888 209.198 198.432 209.055 199.06 209.055C199.571 209.055 200.023 209.16 200.417 209.369C200.81 209.579 201.116 209.872 201.333 210.249V206.393H202.388V215.436H201.434L201.333 214.406C201.133 214.707 200.844 214.979 200.467 215.222C200.09 215.465 199.617 215.586 199.048 215.586ZM199.161 214.669C199.579 214.669 199.948 214.573 200.266 214.381C200.592 214.18 200.844 213.903 201.019 213.552C201.204 213.2 201.296 212.79 201.296 212.321C201.296 211.852 201.204 211.442 201.019 211.09C200.844 210.738 200.592 210.466 200.266 210.274C199.948 210.073 199.579 209.972 199.161 209.972C198.75 209.972 198.382 210.073 198.055 210.274C197.737 210.466 197.486 210.738 197.302 211.09C197.126 211.442 197.038 211.852 197.038 212.321C197.038 212.79 197.126 213.2 197.302 213.552C197.486 213.903 197.737 214.18 198.055 214.381C198.382 214.573 198.75 214.669 199.161 214.669Z" fill="#68718B"/>
<rect x="352.792" y="182.876" width="214.555" height="206.182" rx="10.4661" fill="white"/>
<rect x="376" y="347" width="159" height="8" rx="4" fill="#EDF1FC"/>
<rect x="376" y="366" width="53" height="8" rx="4" fill="#EDF1FC"/>
<rect x="436" y="366" width="99" height="8" rx="4" fill="#EDF1FC"/>
<path d="M464.735 201.365C459.015 200.15 453.057 200.776 447.715 203.154C442.373 205.533 437.922 209.541 434.998 214.605C432.074 219.669 430.829 225.529 431.44 231.344C432.051 237.159 434.488 242.632 438.4 246.977C442.313 251.323 447.501 254.318 453.221 255.534C458.94 256.75 464.898 256.123 470.24 253.745C475.582 251.367 480.034 247.358 482.957 242.294C485.881 237.23 487.126 231.371 486.515 225.555L458.978 228.45L464.735 201.365Z" fill="#0097FE"/>
<path d="M468.372 196.087C474.532 197.397 480.119 200.622 484.332 205.302C488.546 209.982 491.17 215.875 491.828 222.138L462.172 225.255L468.372 196.087Z" fill="#FFAE00"/>
<line opacity="0.3" x1="457.977" y1="281.258" x2="457.977" y2="325.215" stroke="#B4B6C4" stroke-width="1.04661"/>
<path d="M398.839 300.509C397.736 300.509 396.808 300.306 396.055 299.902C395.301 299.497 394.694 298.953 394.234 298.269C393.773 297.585 393.438 296.825 393.229 295.987C393.034 295.15 392.936 294.292 392.936 293.413C392.936 291.78 393.166 290.364 393.627 289.163C394.087 287.949 394.75 287.014 395.615 286.359C396.481 285.689 397.527 285.354 398.755 285.354C399.76 285.354 400.611 285.556 401.309 285.961C402.021 286.352 402.572 286.868 402.963 287.51C403.353 288.152 403.584 288.843 403.653 289.582H401.162C401.037 288.94 400.765 288.445 400.346 288.096C399.927 287.747 399.39 287.573 398.734 287.573C397.799 287.573 397.046 288.005 396.474 288.87C395.901 289.722 395.594 291.026 395.553 292.785C395.887 292.213 396.39 291.738 397.06 291.361C397.729 290.985 398.476 290.796 399.299 290.796C400.109 290.796 400.869 290.992 401.581 291.382C402.293 291.773 402.865 292.324 403.297 293.036C403.744 293.748 403.967 294.585 403.967 295.548C403.967 296.427 403.751 297.243 403.318 297.997C402.9 298.75 402.3 299.357 401.518 299.818C400.751 300.279 399.858 300.509 398.839 300.509ZM398.692 298.206C399.474 298.206 400.116 297.969 400.618 297.495C401.134 297.006 401.393 296.392 401.393 295.652C401.393 294.871 401.134 294.243 400.618 293.769C400.102 293.294 399.446 293.057 398.65 293.057C398.134 293.057 397.667 293.176 397.248 293.413C396.843 293.636 396.522 293.943 396.285 294.334C396.048 294.711 395.929 295.136 395.929 295.611C395.929 296.364 396.187 296.985 396.704 297.474C397.234 297.962 397.897 298.206 398.692 298.206ZM405.979 300.258V298.311C406.872 297.571 407.737 296.839 408.574 296.113C409.426 295.387 410.179 294.669 410.835 293.957C411.505 293.245 412.035 292.555 412.426 291.885C412.831 291.201 413.033 290.538 413.033 289.896C413.033 289.296 412.865 288.766 412.53 288.305C412.21 287.845 411.672 287.615 410.919 287.615C410.151 287.615 409.572 287.866 409.181 288.368C408.791 288.87 408.595 289.477 408.595 290.189H406C406.028 289.115 406.265 288.222 406.711 287.51C407.158 286.784 407.751 286.247 408.491 285.898C409.23 285.535 410.06 285.354 410.982 285.354C412.475 285.354 413.633 285.766 414.456 286.589C415.294 287.398 415.712 288.452 415.712 289.75C415.712 290.559 415.524 291.347 415.147 292.115C414.784 292.882 414.303 293.622 413.703 294.334C413.103 295.045 412.454 295.715 411.756 296.343C411.058 296.957 410.381 297.529 409.726 298.06H416.068V300.258H405.979ZM421.307 292.806C420.637 292.806 420.03 292.659 419.486 292.366C418.942 292.059 418.509 291.627 418.188 291.068C417.867 290.51 417.707 289.847 417.707 289.08C417.707 288.312 417.867 287.649 418.188 287.091C418.509 286.533 418.942 286.107 419.486 285.814C420.03 285.507 420.644 285.354 421.328 285.354C421.998 285.354 422.598 285.507 423.128 285.814C423.672 286.107 424.105 286.533 424.426 287.091C424.747 287.649 424.907 288.312 424.907 289.08C424.907 289.847 424.747 290.51 424.426 291.068C424.105 291.627 423.672 292.059 423.128 292.366C422.584 292.659 421.977 292.806 421.307 292.806ZM420.512 300.258L428.78 285.605H431.396L423.128 300.258H420.512ZM421.307 290.943C421.712 290.943 422.061 290.789 422.354 290.482C422.647 290.161 422.793 289.694 422.793 289.08C422.793 288.466 422.647 287.998 422.354 287.677C422.075 287.356 421.726 287.196 421.307 287.196C420.888 287.196 420.533 287.356 420.24 287.677C419.961 287.998 419.821 288.466 419.821 289.08C419.821 289.694 419.961 290.161 420.24 290.482C420.533 290.789 420.888 290.943 421.307 290.943ZM430.685 300.509C430.015 300.509 429.408 300.362 428.864 300.069C428.319 299.762 427.887 299.33 427.566 298.771C427.245 298.213 427.084 297.55 427.084 296.783C427.084 296.015 427.245 295.359 427.566 294.815C427.887 294.257 428.319 293.831 428.864 293.538C429.408 293.231 430.022 293.078 430.706 293.078C431.376 293.078 431.976 293.231 432.506 293.538C433.05 293.831 433.483 294.257 433.804 294.815C434.125 295.359 434.285 296.015 434.285 296.783C434.285 297.55 434.125 298.213 433.804 298.771C433.483 299.33 433.05 299.762 432.506 300.069C431.976 300.362 431.369 300.509 430.685 300.509ZM430.685 298.646C431.103 298.646 431.452 298.492 431.731 298.185C432.024 297.864 432.171 297.397 432.171 296.783C432.171 296.169 432.024 295.701 431.731 295.38C431.452 295.059 431.103 294.899 430.685 294.899C430.266 294.899 429.91 295.059 429.617 295.38C429.338 295.701 429.199 296.169 429.199 296.783C429.199 297.397 429.338 297.864 429.617 298.185C429.91 298.492 430.266 298.646 430.685 298.646Z" fill="#060C3C"/>
<path d="M401.67 321.577C400.609 321.577 399.778 321.281 399.175 320.69C398.572 320.098 398.27 319.277 398.27 318.228H399.694C399.694 318.82 399.839 319.316 400.129 319.718C400.419 320.12 400.927 320.321 401.653 320.321C402.356 320.321 402.842 320.126 403.11 319.735C403.389 319.344 403.529 318.859 403.529 318.278V309.654H404.935V318.278C404.935 319.316 404.645 320.126 404.064 320.706C403.495 321.287 402.697 321.577 401.67 321.577ZM410.361 321.577C409.379 321.577 408.597 321.281 408.017 320.69C407.436 320.087 407.146 319.166 407.146 317.926V313.07H408.553V317.776C408.553 319.506 409.262 320.371 410.679 320.371C411.405 320.371 412.002 320.115 412.471 319.601C412.951 319.076 413.191 318.334 413.191 317.374V313.07H414.598V321.376H413.325L413.225 319.886C412.968 320.41 412.583 320.823 412.069 321.125C411.567 321.426 410.998 321.577 410.361 321.577ZM416.913 321.376V309.319H418.32V321.376H416.913ZM421.53 325.06L423.589 320.572H423.104L419.805 313.07H421.329L424.075 319.534L426.989 313.07H428.446L423.003 325.06H421.53Z" fill="#5D6180"/>
<path d="M488.845 300.509C487.882 300.509 487.01 300.341 486.228 300.006C485.447 299.657 484.819 299.127 484.344 298.415C483.87 297.704 483.619 296.811 483.591 295.736H486.228C486.242 296.448 486.473 297.048 486.919 297.536C487.38 298.011 488.021 298.248 488.845 298.248C489.626 298.248 490.226 298.032 490.645 297.599C491.064 297.167 491.273 296.622 491.273 295.966C491.273 295.199 490.994 294.62 490.436 294.229C489.891 293.824 489.187 293.622 488.322 293.622H487.233V291.424H488.342C489.054 291.424 489.647 291.257 490.122 290.922C490.596 290.587 490.833 290.091 490.833 289.436C490.833 288.891 490.652 288.459 490.289 288.138C489.94 287.803 489.452 287.635 488.824 287.635C488.14 287.635 487.603 287.838 487.212 288.242C486.835 288.647 486.626 289.143 486.584 289.729H483.968C484.023 288.375 484.491 287.307 485.37 286.526C486.263 285.745 487.414 285.354 488.824 285.354C489.829 285.354 490.673 285.535 491.357 285.898C492.054 286.247 492.578 286.714 492.927 287.3C493.289 287.887 493.471 288.535 493.471 289.247C493.471 290.071 493.241 290.768 492.78 291.34C492.334 291.899 491.775 292.275 491.106 292.471C491.929 292.638 492.599 293.043 493.115 293.685C493.631 294.313 493.889 295.108 493.889 296.071C493.889 296.88 493.694 297.62 493.303 298.29C492.913 298.96 492.341 299.497 491.587 299.902C490.847 300.306 489.933 300.509 488.845 300.509ZM501.691 300.509C500.686 300.509 499.779 300.334 498.97 299.985C498.16 299.623 497.512 299.113 497.023 298.457C496.549 297.801 496.311 297.041 496.311 296.176C496.311 295.283 496.542 294.501 497.002 293.831C497.477 293.161 498.098 292.68 498.865 292.387C498.195 292.094 497.665 291.675 497.274 291.131C496.884 290.573 496.688 289.952 496.688 289.268C496.688 288.57 496.877 287.928 497.253 287.342C497.63 286.742 498.188 286.261 498.928 285.898C499.681 285.535 500.603 285.354 501.691 285.354C502.779 285.354 503.693 285.535 504.433 285.898C505.173 286.261 505.731 286.742 506.108 287.342C506.484 287.928 506.673 288.57 506.673 289.268C506.673 289.938 506.471 290.559 506.066 291.131C505.675 291.689 505.152 292.108 504.496 292.387C505.277 292.68 505.898 293.161 506.359 293.831C506.819 294.501 507.05 295.283 507.05 296.176C507.05 297.041 506.812 297.801 506.338 298.457C505.863 299.113 505.215 299.623 504.391 299.985C503.582 300.334 502.682 300.509 501.691 300.509ZM501.691 291.592C502.417 291.592 502.989 291.403 503.407 291.026C503.826 290.65 504.035 290.168 504.035 289.582C504.035 288.94 503.826 288.438 503.407 288.075C503.003 287.712 502.431 287.531 501.691 287.531C500.937 287.531 500.358 287.712 499.954 288.075C499.549 288.438 499.347 288.94 499.347 289.582C499.347 290.182 499.549 290.671 499.954 291.047C500.372 291.41 500.951 291.592 501.691 291.592ZM501.691 298.269C502.584 298.269 503.261 298.053 503.721 297.62C504.182 297.173 504.412 296.615 504.412 295.945C504.412 295.206 504.168 294.627 503.68 294.208C503.205 293.789 502.542 293.58 501.691 293.58C500.84 293.58 500.163 293.789 499.661 294.208C499.172 294.627 498.928 295.206 498.928 295.945C498.928 296.615 499.158 297.173 499.619 297.62C500.093 298.053 500.784 298.269 501.691 298.269ZM512.699 292.806C512.03 292.806 511.422 292.659 510.878 292.366C510.334 292.059 509.901 291.626 509.58 291.068C509.26 290.51 509.099 289.847 509.099 289.08C509.099 288.312 509.26 287.649 509.58 287.091C509.901 286.533 510.334 286.107 510.878 285.814C511.422 285.507 512.037 285.354 512.72 285.354C513.39 285.354 513.99 285.507 514.52 285.814C515.065 286.107 515.497 286.533 515.818 287.091C516.139 287.649 516.3 288.312 516.3 289.08C516.3 289.847 516.139 290.51 515.818 291.068C515.497 291.626 515.065 292.059 514.52 292.366C513.976 292.659 513.369 292.806 512.699 292.806ZM511.904 300.258L520.172 285.605H522.789L514.52 300.258H511.904ZM512.699 290.943C513.104 290.943 513.453 290.789 513.746 290.482C514.039 290.161 514.186 289.694 514.186 289.08C514.186 288.466 514.039 287.998 513.746 287.677C513.467 287.356 513.118 287.196 512.699 287.196C512.281 287.196 511.925 287.356 511.632 287.677C511.353 287.998 511.213 288.466 511.213 289.08C511.213 289.694 511.353 290.161 511.632 290.482C511.925 290.789 512.281 290.943 512.699 290.943ZM522.077 300.509C521.407 300.509 520.8 300.362 520.256 300.069C519.712 299.762 519.279 299.33 518.958 298.771C518.637 298.213 518.477 297.55 518.477 296.783C518.477 296.015 518.637 295.359 518.958 294.815C519.279 294.257 519.712 293.831 520.256 293.538C520.8 293.231 521.414 293.078 522.098 293.078C522.768 293.078 523.368 293.231 523.898 293.538C524.442 293.831 524.875 294.257 525.196 294.815C525.517 295.359 525.677 296.015 525.677 296.783C525.677 297.55 525.517 298.213 525.196 298.771C524.875 299.33 524.442 299.762 523.898 300.069C523.368 300.362 522.761 300.509 522.077 300.509ZM522.077 298.646C522.496 298.646 522.845 298.492 523.124 298.185C523.417 297.864 523.563 297.397 523.563 296.783C523.563 296.169 523.417 295.701 523.124 295.38C522.845 295.059 522.496 294.899 522.077 294.899C521.658 294.899 521.302 295.059 521.009 295.38C520.73 295.701 520.591 296.169 520.591 296.783C520.591 297.397 520.73 297.864 521.009 298.185C521.302 298.492 521.658 298.646 522.077 298.646Z" fill="#060C3C"/>
<path d="M477.932 321.376L482.253 309.654H483.743L488.047 321.376H486.556L485.484 318.362H480.494L479.406 321.376H477.932ZM480.913 317.223H485.066L482.989 311.429L480.913 317.223ZM492.557 321.577C491.574 321.577 490.793 321.281 490.212 320.689C489.632 320.087 489.341 319.166 489.341 317.926V313.07H490.748V317.776C490.748 319.506 491.457 320.371 492.875 320.371C493.6 320.371 494.198 320.115 494.667 319.601C495.147 319.076 495.387 318.334 495.387 317.374V313.07H496.793V321.376H495.521L495.42 319.886C495.163 320.41 494.778 320.823 494.265 321.125C493.762 321.426 493.193 321.577 492.557 321.577ZM502.391 318.764C501.922 318.764 501.492 318.702 501.101 318.579L500.264 319.367C500.387 319.456 500.538 319.534 500.716 319.601C500.906 319.657 501.174 319.713 501.52 319.768C501.866 319.813 502.352 319.863 502.977 319.919C504.093 319.997 504.891 320.254 505.372 320.689C505.852 321.125 506.092 321.694 506.092 322.398C506.092 322.878 505.958 323.335 505.69 323.771C505.433 324.206 505.031 324.563 504.484 324.842C503.948 325.122 503.256 325.261 502.408 325.261C501.66 325.261 500.995 325.161 500.415 324.96C499.834 324.77 499.382 324.474 499.058 324.072C498.735 323.681 498.573 323.185 498.573 322.582C498.573 322.269 498.656 321.929 498.824 321.56C498.991 321.203 499.304 320.863 499.762 320.539C499.516 320.438 499.304 320.332 499.125 320.221C498.958 320.098 498.802 319.964 498.656 319.819V319.434L500.08 318.027C499.421 317.469 499.092 316.732 499.092 315.816C499.092 315.269 499.22 314.773 499.477 314.326C499.734 313.88 500.108 313.528 500.599 313.271C501.09 313.003 501.687 312.869 502.391 312.869C502.871 312.869 503.306 312.936 503.697 313.07H506.761V314.125L505.204 314.192C505.528 314.661 505.69 315.202 505.69 315.816C505.69 316.363 505.556 316.86 505.288 317.307C505.031 317.753 504.657 318.111 504.166 318.379C503.686 318.635 503.094 318.764 502.391 318.764ZM502.391 317.608C502.982 317.608 503.451 317.458 503.797 317.156C504.155 316.844 504.333 316.397 504.333 315.816C504.333 315.247 504.155 314.812 503.797 314.51C503.451 314.198 502.982 314.041 502.391 314.041C501.788 314.041 501.308 314.198 500.951 314.51C500.605 314.812 500.432 315.247 500.432 315.816C500.432 316.397 500.605 316.844 500.951 317.156C501.308 317.458 501.788 317.608 502.391 317.608ZM499.946 322.448C499.946 323.006 500.18 323.419 500.649 323.687C501.118 323.966 501.704 324.106 502.408 324.106C503.1 324.106 503.652 323.955 504.065 323.653C504.49 323.352 504.702 322.95 504.702 322.448C504.702 322.091 504.557 321.778 504.266 321.51C503.976 321.253 503.44 321.103 502.659 321.058C502.045 321.013 501.514 320.957 501.068 320.89C500.61 321.136 500.309 321.398 500.164 321.677C500.018 321.968 499.946 322.224 499.946 322.448ZM511.379 321.577C510.397 321.577 509.615 321.281 509.035 320.689C508.454 320.087 508.164 319.166 508.164 317.926V313.07H509.571V317.776C509.571 319.506 510.28 320.371 511.697 320.371C512.423 320.371 513.02 320.115 513.489 319.601C513.969 319.076 514.209 318.334 514.209 317.374V313.07H515.616V321.376H514.343L514.243 319.886C513.986 320.41 513.601 320.823 513.087 321.125C512.585 321.426 512.016 321.577 511.379 321.577ZM521.113 321.577C520.119 321.577 519.293 321.326 518.635 320.823C517.976 320.321 517.591 319.64 517.479 318.78H518.919C519.009 319.216 519.237 319.595 519.606 319.919C519.985 320.232 520.493 320.388 521.13 320.388C521.721 320.388 522.157 320.265 522.436 320.02C522.715 319.763 522.854 319.461 522.854 319.115C522.854 318.613 522.67 318.278 522.302 318.111C521.945 317.943 521.437 317.792 520.778 317.658C520.331 317.569 519.885 317.441 519.438 317.273C518.992 317.106 518.618 316.871 518.316 316.57C518.015 316.257 517.864 315.85 517.864 315.348C517.864 314.622 518.132 314.03 518.668 313.573C519.215 313.104 519.952 312.869 520.878 312.869C521.76 312.869 522.481 313.092 523.039 313.539C523.608 313.974 523.937 314.6 524.027 315.415H522.637C522.581 314.99 522.397 314.661 522.084 314.427C521.783 314.181 521.375 314.058 520.862 314.058C520.359 314.058 519.969 314.164 519.69 314.376C519.422 314.588 519.288 314.868 519.288 315.214C519.288 315.549 519.461 315.811 519.807 316.001C520.164 316.19 520.644 316.352 521.247 316.486C521.76 316.598 522.246 316.737 522.704 316.905C523.173 317.061 523.552 317.301 523.842 317.625C524.144 317.938 524.295 318.395 524.295 318.998C524.306 319.746 524.021 320.366 523.441 320.857C522.871 321.337 522.095 321.577 521.113 321.577ZM529.21 321.376C528.451 321.376 527.854 321.192 527.418 320.823C526.983 320.455 526.765 319.791 526.765 318.831V314.259H525.325V313.07H526.765L526.949 311.077H528.172V313.07H530.617V314.259H528.172V318.831C528.172 319.355 528.278 319.713 528.49 319.902C528.702 320.081 529.076 320.17 529.612 320.17H530.483V321.376H529.21Z" fill="#5D6180"/>
<circle cx="119.398" cy="141.012" r="6.27966" fill="#C58DF0"/>
<circle cx="144.517" cy="141.012" r="6.27966" fill="#FFCC5E"/>
<circle cx="169.636" cy="141.012" r="6.27966" fill="#40E986"/>
</g>
<g filter="url(#filter2_d_271_971)">
<g filter="url(#filter3_d_271_971)">
<rect x="293" y="72" width="184" height="90" rx="9.15849" fill="url(#paint0_linear_271_971)"/>
</g>
<rect x="311" y="88" width="63.8599" height="8" rx="4" fill="white"/>
<rect x="311" y="118" width="149" height="8" rx="4" fill="white"/>
<rect x="311" y="139" width="149" height="8" rx="4" fill="white"/>
</g>
</g>
<defs>
<filter id="filter0_d_271_971" x="0" y="-64" width="701" height="598" filterUnits="userSpaceOnUse" color-interpolation-filters="sRGB">
<feFlood flood-opacity="0" result="BackgroundImageFix"/>
<feColorMatrix in="SourceAlpha" type="matrix" values="0 0 0 0 0 0 0 0 0 0 0 0 0 0 0 0 0 0 127 0" result="hardAlpha"/>
<feOffset dx="8" dy="24"/>
<feGaussianBlur stdDeviation="48"/>
<feComposite in2="hardAlpha" operator="out"/>
<feColorMatrix type="matrix" values="0 0 0 0 0.494118 0 0 0 0 0.541176 0 0 0 0 0.992157 0 0 0 0.08 0"/>
<feBlend mode="normal" in2="BackgroundImageFix" result="effect1_dropShadow_271_971"/>
<feBlend mode="normal" in="SourceGraphic" in2="effect1_dropShadow_271_971" result="shape"/>
</filter>
<filter id="filter1_d_271_971" x="0" y="50.0571" width="701.699" height="484.12" filterUnits="userSpaceOnUse" color-interpolation-filters="sRGB">
<feFlood flood-opacity="0" result="BackgroundImageFix"/>
<feColorMatrix in="SourceAlpha" type="matrix" values="0 0 0 0 0 0 0 0 0 0 0 0 0 0 0 0 0 0 127 0" result="hardAlpha"/>
<feOffset dx="8" dy="24"/>
<feGaussianBlur stdDeviation="48"/>
<feComposite in2="hardAlpha" operator="out"/>
<feColorMatrix type="matrix" values="0 0 0 0 0.494118 0 0 0 0 0.541176 0 0 0 0 0.992157 0 0 0 0.08 0"/>
<feBlend mode="normal" in2="BackgroundImageFix" result="effect1_dropShadow_271_971"/>
<feBlend mode="normal" in="SourceGraphic" in2="effect1_dropShadow_271_971" result="shape"/>
</filter>
<filter id="filter2_d_271_971" x="205" y="0" width="376" height="282" filterUnits="userSpaceOnUse" color-interpolation-filters="sRGB">
<feFlood flood-opacity="0" result="BackgroundImageFix"/>
<feColorMatrix in="SourceAlpha" type="matrix" values="0 0 0 0 0 0 0 0 0 0 0 0 0 0 0 0 0 0 127 0" result="hardAlpha"/>
<feOffset dx="8" dy="24"/>
<feGaussianBlur stdDeviation="48"/>
<feComposite in2="hardAlpha" operator="out"/>
<feColorMatrix type="matrix" values="0 0 0 0 0.494118 0 0 0 0 0.541176 0 0 0 0 0.992157 0 0 0 0.08 0"/>
<feBlend mode="normal" in2="BackgroundImageFix" result="effect1_dropShadow_271_971"/>
<feBlend mode="normal" in="SourceGraphic" in2="effect1_dropShadow_271_971" result="shape"/>
</filter>
<filter id="filter3_d_271_971" x="274.135" y="58.7946" width="221.73" height="127.73" filterUnits="userSpaceOnUse" color-interpolation-filters="sRGB">
<feFlood flood-opacity="0" result="BackgroundImageFix"/>
<feColorMatrix in="SourceAlpha" type="matrix" values="0 0 0 0 0 0 0 0 0 0 0 0 0 0 0 0 0 0 127 0" result="hardAlpha"/>
<feOffset dy="5.65946"/>
<feGaussianBlur stdDeviation="9.43244"/>
<feColorMatrix type="matrix" values="0 0 0 0 0.11 0 0 0 0 0.14137 0 0 0 0 0.4125 0 0 0 0.05 0"/>
<feBlend mode="normal" in2="BackgroundImageFix" result="effect1_dropShadow_271_971"/>
<feBlend mode="normal" in="SourceGraphic" in2="effect1_dropShadow_271_971" result="shape"/>
</filter>
<linearGradient id="paint0_linear_271_971" x1="293" y1="72" x2="364.046" y2="217.249" gradientUnits="userSpaceOnUse">
<stop stop-color="#AC60E5"/>
<stop offset="1" stop-color="#0C87F0"/>
</linearGradient>
<clipPath id="clip0_271_971">
<rect width="509" height="406" fill="white" transform="translate(88 8)"/>
</clipPath>
</defs>
</svg>
