<svg width="701" height="598" viewBox="0 0 701 598" fill="none" xmlns="http://www.w3.org/2000/svg">
<g filter="url(#filter0_d_271_888)">
<rect x="88" y="196" width="509" height="282" rx="10" fill="white"/>
<path d="M164.129 382.5C147.148 388.72 118 374 118 374V450H573V271.197C553.901 264.535 528.119 213.891 516.566 233.474C481.295 293.262 439.281 228.029 400.171 246.998C360.267 266.351 350.829 300.811 307.877 302.87C287.989 303.824 290.939 364.694 271.065 366C250.771 367.333 232.153 315.851 212.939 323.867C192.398 332.437 184.924 374.883 164.129 382.5Z" fill="url(#paint0_linear_271_888)"/>
<line x1="112.5" y1="227" x2="112.5" y2="433" stroke="#E6E8EC"/>
<line x1="573" y1="433.5" x2="112" y2="433.5" stroke="#E6E8EC"/>
<path d="M115 373.543C115 373.543 144.524 387.524 161.543 381.487C182.384 374.095 189.561 330.394 210.147 322.077C229.404 314.296 248.135 366.547 268.473 365.253C288.391 363.986 285.362 302.623 305.295 301.698C348.341 299.699 357.8 266.252 397.791 247.468C436.987 229.057 479.093 292.372 514.442 234.343C526.02 215.336 551.859 264.49 571 270.956" stroke="#006EEA" stroke-width="4" stroke-linecap="round" stroke-linejoin="round"/>
<line x1="546.5" y1="428.5" x2="546.5" y2="437.5" stroke="#E6E8EC" stroke-linecap="round" stroke-linejoin="round"/>
<line x1="442.5" y1="428.5" x2="442.5" y2="437.5" stroke="#E6E8EC" stroke-linecap="round" stroke-linejoin="round"/>
<line x1="245.5" y1="428.5" x2="245.5" y2="437.5" stroke="#E6E8EC" stroke-linecap="round" stroke-linejoin="round"/>
<line x1="138.5" y1="428.5" x2="138.5" y2="437.5" stroke="#E6E8EC" stroke-linecap="round" stroke-linejoin="round"/>
<path d="M340 438L340 294" stroke="#E6E8EC"/>
<circle cx="340.279" cy="292.279" r="5.27909" fill="white" stroke="#0097FE" stroke-width="2.11163"/>
<circle cx="340" cy="432.474" r="3" fill="white" stroke="#0097FE" stroke-width="2.11163"/>
<path d="M114.21 458V450.728L112.854 451.028V450.332L114.546 449.6H115.23V458H114.21ZM120.279 458.144C119.535 458.144 118.891 457.964 118.347 457.604C117.811 457.236 117.399 456.728 117.111 456.08C116.823 455.424 116.679 454.664 116.679 453.8C116.679 452.936 116.823 452.18 117.111 451.532C117.399 450.876 117.811 450.368 118.347 450.008C118.891 449.64 119.535 449.456 120.279 449.456C121.023 449.456 121.663 449.64 122.199 450.008C122.735 450.368 123.147 450.876 123.435 451.532C123.723 452.18 123.867 452.936 123.867 453.8C123.867 454.664 123.723 455.424 123.435 456.08C123.147 456.728 122.735 457.236 122.199 457.604C121.663 457.964 121.023 458.144 120.279 458.144ZM120.279 457.256C120.767 457.256 121.203 457.12 121.587 456.848C121.979 456.568 122.283 456.172 122.499 455.66C122.723 455.14 122.835 454.52 122.835 453.8C122.835 453.08 122.723 452.464 122.499 451.952C122.283 451.44 121.979 451.048 121.587 450.776C121.203 450.496 120.767 450.356 120.279 450.356C119.783 450.356 119.343 450.496 118.959 450.776C118.575 451.048 118.271 451.44 118.047 451.952C117.823 452.464 117.711 453.08 117.711 453.8C117.711 454.52 117.823 455.14 118.047 455.66C118.271 456.172 118.575 456.568 118.959 456.848C119.343 457.12 119.783 457.256 120.279 457.256ZM125.612 458.06C125.412 458.06 125.244 457.996 125.108 457.868C124.98 457.732 124.916 457.568 124.916 457.376C124.916 457.184 124.98 457.024 125.108 456.896C125.244 456.76 125.412 456.692 125.612 456.692C125.804 456.692 125.964 456.76 126.092 456.896C126.228 457.024 126.296 457.184 126.296 457.376C126.296 457.568 126.228 457.732 126.092 457.868C125.964 457.996 125.804 458.06 125.612 458.06ZM125.612 453.272C125.412 453.272 125.244 453.208 125.108 453.08C124.98 452.944 124.916 452.78 124.916 452.588C124.916 452.396 124.98 452.236 125.108 452.108C125.244 451.972 125.412 451.904 125.612 451.904C125.804 451.904 125.964 451.972 126.092 452.108C126.228 452.236 126.296 452.396 126.296 452.588C126.296 452.78 126.228 452.944 126.092 453.08C125.964 453.208 125.804 453.272 125.612 453.272ZM130.33 458.144C129.794 458.144 129.31 458.048 128.878 457.856C128.446 457.656 128.098 457.36 127.834 456.968C127.578 456.576 127.442 456.088 127.426 455.504H128.446C128.454 455.984 128.622 456.4 128.95 456.752C129.278 457.096 129.738 457.268 130.33 457.268C130.922 457.268 131.366 457.104 131.662 456.776C131.966 456.448 132.118 456.052 132.118 455.588C132.118 455.196 132.022 454.876 131.83 454.628C131.646 454.38 131.394 454.196 131.074 454.076C130.762 453.956 130.418 453.896 130.042 453.896H129.418V453.044H130.042C130.586 453.044 131.01 452.92 131.314 452.672C131.626 452.424 131.782 452.076 131.782 451.628C131.782 451.252 131.658 450.944 131.41 450.704C131.17 450.456 130.81 450.332 130.33 450.332C129.866 450.332 129.494 450.472 129.214 450.752C128.934 451.024 128.778 451.368 128.746 451.784H127.726C127.75 451.328 127.87 450.924 128.086 450.572C128.31 450.22 128.614 449.948 128.998 449.756C129.382 449.556 129.826 449.456 130.33 449.456C130.874 449.456 131.326 449.552 131.686 449.744C132.054 449.936 132.33 450.192 132.514 450.512C132.706 450.832 132.802 451.184 132.802 451.568C132.802 451.992 132.686 452.38 132.454 452.732C132.222 453.076 131.874 453.308 131.41 453.428C131.906 453.532 132.318 453.768 132.646 454.136C132.974 454.504 133.138 454.988 133.138 455.588C133.138 456.052 133.03 456.48 132.814 456.872C132.606 457.256 132.294 457.564 131.878 457.796C131.462 458.028 130.946 458.144 130.33 458.144ZM138.045 458.144C137.301 458.144 136.657 457.964 136.113 457.604C135.577 457.236 135.165 456.728 134.877 456.08C134.589 455.424 134.445 454.664 134.445 453.8C134.445 452.936 134.589 452.18 134.877 451.532C135.165 450.876 135.577 450.368 136.113 450.008C136.657 449.64 137.301 449.456 138.045 449.456C138.789 449.456 139.429 449.64 139.965 450.008C140.501 450.368 140.913 450.876 141.201 451.532C141.489 452.18 141.633 452.936 141.633 453.8C141.633 454.664 141.489 455.424 141.201 456.08C140.913 456.728 140.501 457.236 139.965 457.604C139.429 457.964 138.789 458.144 138.045 458.144ZM138.045 457.256C138.533 457.256 138.969 457.12 139.353 456.848C139.745 456.568 140.049 456.172 140.265 455.66C140.489 455.14 140.601 454.52 140.601 453.8C140.601 453.08 140.489 452.464 140.265 451.952C140.049 451.44 139.745 451.048 139.353 450.776C138.969 450.496 138.533 450.356 138.045 450.356C137.549 450.356 137.109 450.496 136.725 450.776C136.341 451.048 136.037 451.44 135.813 451.952C135.589 452.464 135.477 453.08 135.477 453.8C135.477 454.52 135.589 455.14 135.813 455.66C136.037 456.172 136.341 456.568 136.725 456.848C137.109 457.12 137.549 457.256 138.045 457.256ZM145.737 458L148.833 449.6H149.901L152.985 458H151.917L151.149 455.84H147.573L146.793 458H145.737ZM147.873 455.024H150.849L149.361 450.872L147.873 455.024ZM154.234 458V449.6H155.41L158.434 455.456L161.434 449.6H162.622V458H161.614V451.4L158.806 456.8H158.05L155.242 451.412V458H154.234Z" fill="#68718B"/>
<path d="M523.603 458.144C522.859 458.144 522.215 457.964 521.671 457.604C521.135 457.236 520.723 456.728 520.435 456.08C520.147 455.424 520.003 454.664 520.003 453.8C520.003 452.936 520.147 452.18 520.435 451.532C520.723 450.876 521.135 450.368 521.671 450.008C522.215 449.64 522.859 449.456 523.603 449.456C524.347 449.456 524.987 449.64 525.523 450.008C526.059 450.368 526.471 450.876 526.759 451.532C527.047 452.18 527.191 452.936 527.191 453.8C527.191 454.664 527.047 455.424 526.759 456.08C526.471 456.728 526.059 457.236 525.523 457.604C524.987 457.964 524.347 458.144 523.603 458.144ZM523.603 457.256C524.091 457.256 524.527 457.12 524.911 456.848C525.303 456.568 525.607 456.172 525.823 455.66C526.047 455.14 526.159 454.52 526.159 453.8C526.159 453.08 526.047 452.464 525.823 451.952C525.607 451.44 525.303 451.048 524.911 450.776C524.527 450.496 524.091 450.356 523.603 450.356C523.107 450.356 522.667 450.496 522.283 450.776C521.899 451.048 521.595 451.44 521.371 451.952C521.147 452.464 521.035 453.08 521.035 453.8C521.035 454.52 521.147 455.14 521.371 455.66C521.595 456.172 521.899 456.568 522.283 456.848C522.667 457.12 523.107 457.256 523.603 457.256ZM528.399 458V457.292C528.967 456.844 529.503 456.392 530.007 455.936C530.519 455.472 530.971 455.016 531.363 454.568C531.763 454.12 532.075 453.68 532.299 453.248C532.531 452.816 532.647 452.4 532.647 452C532.647 451.704 532.595 451.428 532.491 451.172C532.395 450.916 532.235 450.712 532.011 450.56C531.787 450.4 531.483 450.32 531.099 450.32C530.731 450.32 530.423 450.404 530.175 450.572C529.927 450.732 529.739 450.948 529.611 451.22C529.491 451.492 529.431 451.784 529.431 452.096H528.459C528.459 451.544 528.575 451.072 528.807 450.68C529.039 450.28 529.355 449.976 529.755 449.768C530.155 449.56 530.607 449.456 531.111 449.456C531.855 449.456 532.463 449.668 532.935 450.092C533.415 450.508 533.655 451.132 533.655 451.964C533.655 452.46 533.531 452.952 533.283 453.44C533.035 453.92 532.719 454.388 532.335 454.844C531.951 455.292 531.539 455.712 531.099 456.104C530.667 456.496 530.263 456.848 529.887 457.16H533.943V458H528.399ZM535.686 458.06C535.486 458.06 535.318 457.996 535.182 457.868C535.054 457.732 534.99 457.568 534.99 457.376C534.99 457.184 535.054 457.024 535.182 456.896C535.318 456.76 535.486 456.692 535.686 456.692C535.878 456.692 536.038 456.76 536.166 456.896C536.302 457.024 536.37 457.184 536.37 457.376C536.37 457.568 536.302 457.732 536.166 457.868C536.038 457.996 535.878 458.06 535.686 458.06ZM535.686 453.272C535.486 453.272 535.318 453.208 535.182 453.08C535.054 452.944 534.99 452.78 534.99 452.588C534.99 452.396 535.054 452.236 535.182 452.108C535.318 451.972 535.486 451.904 535.686 451.904C535.878 451.904 536.038 451.972 536.166 452.108C536.302 452.236 536.37 452.396 536.37 452.588C536.37 452.78 536.302 452.944 536.166 453.08C536.038 453.208 535.878 453.272 535.686 453.272ZM540.404 458.144C539.868 458.144 539.384 458.048 538.952 457.856C538.52 457.656 538.172 457.36 537.908 456.968C537.652 456.576 537.516 456.088 537.5 455.504H538.52C538.528 455.984 538.696 456.4 539.024 456.752C539.352 457.096 539.812 457.268 540.404 457.268C540.996 457.268 541.44 457.104 541.736 456.776C542.04 456.448 542.192 456.052 542.192 455.588C542.192 455.196 542.096 454.876 541.904 454.628C541.72 454.38 541.468 454.196 541.148 454.076C540.836 453.956 540.492 453.896 540.116 453.896H539.492V453.044H540.116C540.66 453.044 541.084 452.92 541.388 452.672C541.7 452.424 541.856 452.076 541.856 451.628C541.856 451.252 541.732 450.944 541.484 450.704C541.244 450.456 540.884 450.332 540.404 450.332C539.94 450.332 539.568 450.472 539.288 450.752C539.008 451.024 538.852 451.368 538.82 451.784H537.8C537.824 451.328 537.944 450.924 538.16 450.572C538.384 450.22 538.688 449.948 539.072 449.756C539.456 449.556 539.9 449.456 540.404 449.456C540.948 449.456 541.4 449.552 541.76 449.744C542.128 449.936 542.404 450.192 542.588 450.512C542.78 450.832 542.876 451.184 542.876 451.568C542.876 451.992 542.76 452.38 542.528 452.732C542.296 453.076 541.948 453.308 541.484 453.428C541.98 453.532 542.392 453.768 542.72 454.136C543.048 454.504 543.212 454.988 543.212 455.588C543.212 456.052 543.104 456.48 542.888 456.872C542.68 457.256 542.368 457.564 541.952 457.796C541.536 458.028 541.02 458.144 540.404 458.144ZM548.119 458.144C547.375 458.144 546.731 457.964 546.187 457.604C545.651 457.236 545.239 456.728 544.951 456.08C544.663 455.424 544.519 454.664 544.519 453.8C544.519 452.936 544.663 452.18 544.951 451.532C545.239 450.876 545.651 450.368 546.187 450.008C546.731 449.64 547.375 449.456 548.119 449.456C548.863 449.456 549.503 449.64 550.039 450.008C550.575 450.368 550.987 450.876 551.275 451.532C551.563 452.18 551.707 452.936 551.707 453.8C551.707 454.664 551.563 455.424 551.275 456.08C550.987 456.728 550.575 457.236 550.039 457.604C549.503 457.964 548.863 458.144 548.119 458.144ZM548.119 457.256C548.607 457.256 549.043 457.12 549.427 456.848C549.819 456.568 550.123 456.172 550.339 455.66C550.563 455.14 550.675 454.52 550.675 453.8C550.675 453.08 550.563 452.464 550.339 451.952C550.123 451.44 549.819 451.048 549.427 450.776C549.043 450.496 548.607 450.356 548.119 450.356C547.623 450.356 547.183 450.496 546.799 450.776C546.415 451.048 546.111 451.44 545.887 451.952C545.663 452.464 545.551 453.08 545.551 453.8C545.551 454.52 545.663 455.14 545.887 455.66C546.111 456.172 546.415 456.568 546.799 456.848C547.183 457.12 547.623 457.256 548.119 457.256ZM556.339 458V449.6H559.099C559.755 449.6 560.295 449.708 560.719 449.924C561.143 450.14 561.455 450.432 561.655 450.8C561.863 451.168 561.967 451.584 561.967 452.048C561.967 452.504 561.867 452.916 561.667 453.284C561.467 453.652 561.155 453.948 560.731 454.172C560.307 454.388 559.763 454.496 559.099 454.496H557.347V458H556.339ZM557.347 453.644H559.075C559.747 453.644 560.223 453.504 560.503 453.224C560.791 452.936 560.935 452.544 560.935 452.048C560.935 451.544 560.791 451.152 560.503 450.872C560.223 450.584 559.747 450.44 559.075 450.44H557.347V453.644ZM563.288 458V449.6H564.464L567.488 455.456L570.488 449.6H571.676V458H570.668V451.4L567.86 456.8H567.104L564.296 451.412V458H563.288Z" fill="#68718B"/>
<path d="M421.168 458.144C420.424 458.144 419.78 457.964 419.236 457.604C418.7 457.236 418.288 456.728 418 456.08C417.712 455.424 417.568 454.664 417.568 453.8C417.568 452.936 417.712 452.18 418 451.532C418.288 450.876 418.7 450.368 419.236 450.008C419.78 449.64 420.424 449.456 421.168 449.456C421.912 449.456 422.552 449.64 423.088 450.008C423.624 450.368 424.036 450.876 424.324 451.532C424.612 452.18 424.756 452.936 424.756 453.8C424.756 454.664 424.612 455.424 424.324 456.08C424.036 456.728 423.624 457.236 423.088 457.604C422.552 457.964 421.912 458.144 421.168 458.144ZM421.168 457.256C421.656 457.256 422.092 457.12 422.476 456.848C422.868 456.568 423.172 456.172 423.388 455.66C423.612 455.14 423.724 454.52 423.724 453.8C423.724 453.08 423.612 452.464 423.388 451.952C423.172 451.44 422.868 451.048 422.476 450.776C422.092 450.496 421.656 450.356 421.168 450.356C420.672 450.356 420.232 450.496 419.848 450.776C419.464 451.048 419.16 451.44 418.936 451.952C418.712 452.464 418.6 453.08 418.6 453.8C418.6 454.52 418.712 455.14 418.936 455.66C419.16 456.172 419.464 456.568 419.848 456.848C420.232 457.12 420.672 457.256 421.168 457.256ZM427.04 458V450.728L425.684 451.028V450.332L427.376 449.6H428.06V458H427.04ZM430.121 458.06C429.921 458.06 429.753 457.996 429.617 457.868C429.489 457.732 429.425 457.568 429.425 457.376C429.425 457.184 429.489 457.024 429.617 456.896C429.753 456.76 429.921 456.692 430.121 456.692C430.313 456.692 430.473 456.76 430.601 456.896C430.737 457.024 430.805 457.184 430.805 457.376C430.805 457.568 430.737 457.732 430.601 457.868C430.473 457.996 430.313 458.06 430.121 458.06ZM430.121 453.272C429.921 453.272 429.753 453.208 429.617 453.08C429.489 452.944 429.425 452.78 429.425 452.588C429.425 452.396 429.489 452.236 429.617 452.108C429.753 451.972 429.921 451.904 430.121 451.904C430.313 451.904 430.473 451.972 430.601 452.108C430.737 452.236 430.805 452.396 430.805 452.588C430.805 452.78 430.737 452.944 430.601 453.08C430.473 453.208 430.313 453.272 430.121 453.272ZM434.84 458.144C434.304 458.144 433.82 458.048 433.388 457.856C432.956 457.656 432.608 457.36 432.344 456.968C432.088 456.576 431.952 456.088 431.936 455.504H432.956C432.964 455.984 433.132 456.4 433.46 456.752C433.788 457.096 434.248 457.268 434.84 457.268C435.432 457.268 435.876 457.104 436.172 456.776C436.476 456.448 436.628 456.052 436.628 455.588C436.628 455.196 436.532 454.876 436.34 454.628C436.156 454.38 435.904 454.196 435.584 454.076C435.272 453.956 434.928 453.896 434.552 453.896H433.928V453.044H434.552C435.096 453.044 435.52 452.92 435.824 452.672C436.136 452.424 436.292 452.076 436.292 451.628C436.292 451.252 436.168 450.944 435.92 450.704C435.68 450.456 435.32 450.332 434.84 450.332C434.376 450.332 434.004 450.472 433.724 450.752C433.444 451.024 433.288 451.368 433.256 451.784H432.236C432.26 451.328 432.38 450.924 432.596 450.572C432.82 450.22 433.124 449.948 433.508 449.756C433.892 449.556 434.336 449.456 434.84 449.456C435.384 449.456 435.836 449.552 436.196 449.744C436.564 449.936 436.84 450.192 437.024 450.512C437.216 450.832 437.312 451.184 437.312 451.568C437.312 451.992 437.196 452.38 436.964 452.732C436.732 453.076 436.384 453.308 435.92 453.428C436.416 453.532 436.828 453.768 437.156 454.136C437.484 454.504 437.648 454.988 437.648 455.588C437.648 456.052 437.54 456.48 437.324 456.872C437.116 457.256 436.804 457.564 436.388 457.796C435.972 458.028 435.456 458.144 434.84 458.144ZM442.555 458.144C441.811 458.144 441.167 457.964 440.623 457.604C440.087 457.236 439.675 456.728 439.387 456.08C439.099 455.424 438.955 454.664 438.955 453.8C438.955 452.936 439.099 452.18 439.387 451.532C439.675 450.876 440.087 450.368 440.623 450.008C441.167 449.64 441.811 449.456 442.555 449.456C443.299 449.456 443.939 449.64 444.475 450.008C445.011 450.368 445.423 450.876 445.711 451.532C445.999 452.18 446.143 452.936 446.143 453.8C446.143 454.664 445.999 455.424 445.711 456.08C445.423 456.728 445.011 457.236 444.475 457.604C443.939 457.964 443.299 458.144 442.555 458.144ZM442.555 457.256C443.043 457.256 443.479 457.12 443.863 456.848C444.255 456.568 444.559 456.172 444.775 455.66C444.999 455.14 445.111 454.52 445.111 453.8C445.111 453.08 444.999 452.464 444.775 451.952C444.559 451.44 444.255 451.048 443.863 450.776C443.479 450.496 443.043 450.356 442.555 450.356C442.059 450.356 441.619 450.496 441.235 450.776C440.851 451.048 440.547 451.44 440.323 451.952C440.099 452.464 439.987 453.08 439.987 453.8C439.987 454.52 440.099 455.14 440.323 455.66C440.547 456.172 440.851 456.568 441.235 456.848C441.619 457.12 442.059 457.256 442.555 457.256ZM450.775 458V449.6H453.535C454.191 449.6 454.731 449.708 455.155 449.924C455.579 450.14 455.891 450.432 456.091 450.8C456.299 451.168 456.403 451.584 456.403 452.048C456.403 452.504 456.303 452.916 456.103 453.284C455.903 453.652 455.591 453.948 455.167 454.172C454.743 454.388 454.199 454.496 453.535 454.496H451.783V458H450.775ZM451.783 453.644H453.511C454.183 453.644 454.659 453.504 454.939 453.224C455.227 452.936 455.371 452.544 455.371 452.048C455.371 451.544 455.227 451.152 454.939 450.872C454.659 450.584 454.183 450.44 453.511 450.44H451.783V453.644ZM457.724 458V449.6H458.9L461.924 455.456L464.924 449.6H466.112V458H465.104V451.4L462.296 456.8H461.54L458.732 451.412V458H457.724Z" fill="#68718B"/>
<path d="M316.937 458V450.728L315.581 451.028V450.332L317.273 449.6H317.957V458H316.937ZM319.598 458V457.292C320.166 456.844 320.702 456.392 321.206 455.936C321.718 455.472 322.17 455.016 322.562 454.568C322.962 454.12 323.274 453.68 323.498 453.248C323.73 452.816 323.846 452.4 323.846 452C323.846 451.704 323.794 451.428 323.69 451.172C323.594 450.916 323.434 450.712 323.21 450.56C322.986 450.4 322.682 450.32 322.298 450.32C321.93 450.32 321.622 450.404 321.374 450.572C321.126 450.732 320.938 450.948 320.81 451.22C320.69 451.492 320.63 451.784 320.63 452.096H319.658C319.658 451.544 319.774 451.072 320.006 450.68C320.238 450.28 320.554 449.976 320.954 449.768C321.354 449.56 321.806 449.456 322.31 449.456C323.054 449.456 323.662 449.668 324.134 450.092C324.614 450.508 324.854 451.132 324.854 451.964C324.854 452.46 324.73 452.952 324.482 453.44C324.234 453.92 323.918 454.388 323.534 454.844C323.15 455.292 322.738 455.712 322.298 456.104C321.866 456.496 321.462 456.848 321.086 457.16H325.142V458H319.598ZM326.885 458.06C326.685 458.06 326.517 457.996 326.381 457.868C326.253 457.732 326.189 457.568 326.189 457.376C326.189 457.184 326.253 457.024 326.381 456.896C326.517 456.76 326.685 456.692 326.885 456.692C327.077 456.692 327.237 456.76 327.365 456.896C327.501 457.024 327.569 457.184 327.569 457.376C327.569 457.568 327.501 457.732 327.365 457.868C327.237 457.996 327.077 458.06 326.885 458.06ZM326.885 453.272C326.685 453.272 326.517 453.208 326.381 453.08C326.253 452.944 326.189 452.78 326.189 452.588C326.189 452.396 326.253 452.236 326.381 452.108C326.517 451.972 326.685 451.904 326.885 451.904C327.077 451.904 327.237 451.972 327.365 452.108C327.501 452.236 327.569 452.396 327.569 452.588C327.569 452.78 327.501 452.944 327.365 453.08C327.237 453.208 327.077 453.272 326.885 453.272ZM331.604 458.144C331.068 458.144 330.584 458.048 330.152 457.856C329.72 457.656 329.372 457.36 329.108 456.968C328.852 456.576 328.716 456.088 328.7 455.504H329.72C329.728 455.984 329.896 456.4 330.224 456.752C330.552 457.096 331.012 457.268 331.604 457.268C332.196 457.268 332.64 457.104 332.936 456.776C333.24 456.448 333.392 456.052 333.392 455.588C333.392 455.196 333.296 454.876 333.104 454.628C332.92 454.38 332.668 454.196 332.348 454.076C332.036 453.956 331.692 453.896 331.316 453.896H330.692V453.044H331.316C331.86 453.044 332.284 452.92 332.588 452.672C332.9 452.424 333.056 452.076 333.056 451.628C333.056 451.252 332.932 450.944 332.684 450.704C332.444 450.456 332.084 450.332 331.604 450.332C331.14 450.332 330.768 450.472 330.488 450.752C330.208 451.024 330.052 451.368 330.02 451.784H329C329.024 451.328 329.144 450.924 329.36 450.572C329.584 450.22 329.888 449.948 330.272 449.756C330.656 449.556 331.1 449.456 331.604 449.456C332.148 449.456 332.6 449.552 332.96 449.744C333.328 449.936 333.604 450.192 333.788 450.512C333.98 450.832 334.076 451.184 334.076 451.568C334.076 451.992 333.96 452.38 333.728 452.732C333.496 453.076 333.148 453.308 332.684 453.428C333.18 453.532 333.592 453.768 333.92 454.136C334.248 454.504 334.412 454.988 334.412 455.588C334.412 456.052 334.304 456.48 334.088 456.872C333.88 457.256 333.568 457.564 333.152 457.796C332.736 458.028 332.22 458.144 331.604 458.144ZM339.318 458.144C338.574 458.144 337.93 457.964 337.386 457.604C336.85 457.236 336.438 456.728 336.15 456.08C335.862 455.424 335.718 454.664 335.718 453.8C335.718 452.936 335.862 452.18 336.15 451.532C336.438 450.876 336.85 450.368 337.386 450.008C337.93 449.64 338.574 449.456 339.318 449.456C340.062 449.456 340.702 449.64 341.238 450.008C341.774 450.368 342.186 450.876 342.474 451.532C342.762 452.18 342.906 452.936 342.906 453.8C342.906 454.664 342.762 455.424 342.474 456.08C342.186 456.728 341.774 457.236 341.238 457.604C340.702 457.964 340.062 458.144 339.318 458.144ZM339.318 457.256C339.806 457.256 340.242 457.12 340.626 456.848C341.018 456.568 341.322 456.172 341.538 455.66C341.762 455.14 341.874 454.52 341.874 453.8C341.874 453.08 341.762 452.464 341.538 451.952C341.322 451.44 341.018 451.048 340.626 450.776C340.242 450.496 339.806 450.356 339.318 450.356C338.822 450.356 338.382 450.496 337.998 450.776C337.614 451.048 337.31 451.44 337.086 451.952C336.862 452.464 336.75 453.08 336.75 453.8C336.75 454.52 336.862 455.14 337.086 455.66C337.31 456.172 337.614 456.568 337.998 456.848C338.382 457.12 338.822 457.256 339.318 457.256ZM347.01 458L350.106 449.6H351.174L354.258 458H353.19L352.422 455.84H348.846L348.066 458H347.01ZM349.146 455.024H352.122L350.634 450.872L349.146 455.024ZM355.507 458V449.6H356.683L359.707 455.456L362.707 449.6H363.895V458H362.887V451.4L360.079 456.8H359.323L356.515 451.412V458H355.507Z" fill="#68718B"/>
<path d="M223.06 458V450.728L221.704 451.028V450.332L223.396 449.6H224.08V458H223.06ZM226.681 458V450.728L225.325 451.028V450.332L227.017 449.6H227.701V458H226.681ZM229.762 458.06C229.562 458.06 229.394 457.996 229.258 457.868C229.13 457.732 229.066 457.568 229.066 457.376C229.066 457.184 229.13 457.024 229.258 456.896C229.394 456.76 229.562 456.692 229.762 456.692C229.954 456.692 230.114 456.76 230.242 456.896C230.378 457.024 230.446 457.184 230.446 457.376C230.446 457.568 230.378 457.732 230.242 457.868C230.114 457.996 229.954 458.06 229.762 458.06ZM229.762 453.272C229.562 453.272 229.394 453.208 229.258 453.08C229.13 452.944 229.066 452.78 229.066 452.588C229.066 452.396 229.13 452.236 229.258 452.108C229.394 451.972 229.562 451.904 229.762 451.904C229.954 451.904 230.114 451.972 230.242 452.108C230.378 452.236 230.446 452.396 230.446 452.588C230.446 452.78 230.378 452.944 230.242 453.08C230.114 453.208 229.954 453.272 229.762 453.272ZM234.481 458.144C233.945 458.144 233.461 458.048 233.029 457.856C232.597 457.656 232.249 457.36 231.985 456.968C231.729 456.576 231.593 456.088 231.577 455.504H232.597C232.605 455.984 232.773 456.4 233.101 456.752C233.429 457.096 233.889 457.268 234.481 457.268C235.073 457.268 235.517 457.104 235.813 456.776C236.117 456.448 236.269 456.052 236.269 455.588C236.269 455.196 236.173 454.876 235.981 454.628C235.797 454.38 235.545 454.196 235.225 454.076C234.913 453.956 234.569 453.896 234.193 453.896H233.569V453.044H234.193C234.737 453.044 235.161 452.92 235.465 452.672C235.777 452.424 235.933 452.076 235.933 451.628C235.933 451.252 235.809 450.944 235.561 450.704C235.321 450.456 234.961 450.332 234.481 450.332C234.017 450.332 233.645 450.472 233.365 450.752C233.085 451.024 232.929 451.368 232.897 451.784H231.877C231.901 451.328 232.021 450.924 232.237 450.572C232.461 450.22 232.765 449.948 233.149 449.756C233.533 449.556 233.977 449.456 234.481 449.456C235.025 449.456 235.477 449.552 235.837 449.744C236.205 449.936 236.481 450.192 236.665 450.512C236.857 450.832 236.953 451.184 236.953 451.568C236.953 451.992 236.837 452.38 236.605 452.732C236.373 453.076 236.025 453.308 235.561 453.428C236.057 453.532 236.469 453.768 236.797 454.136C237.125 454.504 237.289 454.988 237.289 455.588C237.289 456.052 237.181 456.48 236.965 456.872C236.757 457.256 236.445 457.564 236.029 457.796C235.613 458.028 235.097 458.144 234.481 458.144ZM242.195 458.144C241.451 458.144 240.807 457.964 240.263 457.604C239.727 457.236 239.315 456.728 239.027 456.08C238.739 455.424 238.595 454.664 238.595 453.8C238.595 452.936 238.739 452.18 239.027 451.532C239.315 450.876 239.727 450.368 240.263 450.008C240.807 449.64 241.451 449.456 242.195 449.456C242.939 449.456 243.579 449.64 244.115 450.008C244.651 450.368 245.063 450.876 245.351 451.532C245.639 452.18 245.783 452.936 245.783 453.8C245.783 454.664 245.639 455.424 245.351 456.08C245.063 456.728 244.651 457.236 244.115 457.604C243.579 457.964 242.939 458.144 242.195 458.144ZM242.195 457.256C242.683 457.256 243.119 457.12 243.503 456.848C243.895 456.568 244.199 456.172 244.415 455.66C244.639 455.14 244.751 454.52 244.751 453.8C244.751 453.08 244.639 452.464 244.415 451.952C244.199 451.44 243.895 451.048 243.503 450.776C243.119 450.496 242.683 450.356 242.195 450.356C241.699 450.356 241.259 450.496 240.875 450.776C240.491 451.048 240.187 451.44 239.963 451.952C239.739 452.464 239.627 453.08 239.627 453.8C239.627 454.52 239.739 455.14 239.963 455.66C240.187 456.172 240.491 456.568 240.875 456.848C241.259 457.12 241.699 457.256 242.195 457.256ZM249.887 458L252.983 449.6H254.051L257.135 458H256.067L255.299 455.84H251.723L250.943 458H249.887ZM252.023 455.024H254.999L253.511 450.872L252.023 455.024ZM258.384 458V449.6H259.56L262.584 455.456L265.584 449.6H266.772V458H265.764V451.4L262.956 456.8H262.2L259.392 451.412V458H258.384Z" fill="#68718B"/>
<rect x="112" y="111" width="48" height="48" rx="10" fill="#006EEA"/>
<path fill-rule="evenodd" clip-rule="evenodd" d="M142.667 123.667C142.667 123.299 142.367 123 142 123H138.667C134.984 123 132 125.687 132 129V132.6H128.667C128.299 132.6 128 132.899 128 133.267V136.733C128 137.101 128.299 137.4 128.667 137.4H132V146.333C132 146.701 132.299 147 132.667 147H136.667C137.033 147 137.333 146.701 137.333 146.333V137.4H140.825C141.125 137.4 141.388 137.2 141.469 136.912L142.431 133.445C142.549 133.021 142.229 132.6 141.789 132.6H137.333V129C137.333 128.337 137.929 127.8 138.667 127.8H142C142.367 127.8 142.667 127.501 142.667 127.133V123.667Z" fill="#03133D"/>
<mask id="mask0_271_888" style="mask-type:luminance" maskUnits="userSpaceOnUse" x="128" y="123" width="15" height="24">
<path fill-rule="evenodd" clip-rule="evenodd" d="M142.667 123.667C142.667 123.299 142.367 123 142 123H138.667C134.984 123 132 125.687 132 129V132.6H128.667C128.299 132.6 128 132.899 128 133.267V136.733C128 137.101 128.299 137.4 128.667 137.4H132V146.333C132 146.701 132.299 147 132.667 147H136.667C137.033 147 137.333 146.701 137.333 146.333V137.4H140.825C141.125 137.4 141.388 137.2 141.469 136.912L142.431 133.445C142.549 133.021 142.229 132.6 141.789 132.6H137.333V129C137.333 128.337 137.929 127.8 138.667 127.8H142C142.367 127.8 142.667 127.501 142.667 127.133V123.667Z" fill="white"/>
</mask>
<g mask="url(#mask0_271_888)">
<rect x="120" y="119" width="32" height="32" fill="white"/>
</g>
<rect x="220" y="205" width="48" height="48" rx="10" fill="#0298EB"/>
<path fill-rule="evenodd" clip-rule="evenodd" d="M238.769 239.667C248.431 239.667 254.02 232.166 254.02 225.047C254.02 224.851 255.393 223.672 255.981 221.215C256.101 220.716 255.616 220.323 255.159 220.532C253.985 221.071 252.795 220.644 252.277 220.031C250.288 217.862 246.961 217.758 244.845 219.798C243.481 221.114 242.903 223.074 243.325 224.944C238.857 225.263 235.789 223.146 233.267 220.243C232.941 219.866 232.337 220.064 232.269 220.563C231.896 223.339 231.779 230.088 238.467 233.964C237.305 235.634 235.032 236.619 232.501 237.042C231.941 237.136 231.808 237.912 232.32 238.163C234.325 239.15 236.529 239.666 238.769 239.663" fill="#03133D"/>
<mask id="mask1_271_888" style="mask-type:luminance" maskUnits="userSpaceOnUse" x="232" y="218" width="24" height="22">
<path fill-rule="evenodd" clip-rule="evenodd" d="M238.769 239.667C248.431 239.667 254.02 232.166 254.02 225.047C254.02 224.851 255.393 223.672 255.981 221.215C256.101 220.716 255.616 220.323 255.159 220.532C253.985 221.071 252.795 220.644 252.277 220.031C250.288 217.862 246.961 217.758 244.845 219.798C243.481 221.114 242.903 223.074 243.325 224.944C238.857 225.263 235.789 223.146 233.267 220.243C232.941 219.866 232.337 220.064 232.269 220.563C231.896 223.339 231.779 230.088 238.467 233.964C237.305 235.634 235.032 236.619 232.501 237.042C231.941 237.136 231.808 237.912 232.32 238.163C234.325 239.15 236.529 239.666 238.769 239.663" fill="white"/>
</mask>
<g mask="url(#mask1_271_888)">
<rect x="228" y="213" width="32" height="32" fill="white"/>
</g>
<rect x="355" y="72" width="194" height="205" rx="10" fill="url(#paint1_linear_271_888)"/>
<path d="M410.852 156.411C404.761 161.896 399.858 168.57 396.446 176.023C393.034 183.476 391.185 191.549 391.013 199.743C390.842 207.938 392.351 216.081 395.448 223.67C398.545 231.259 403.164 238.133 409.02 243.868L417.416 235.295C412.731 230.707 409.036 225.208 406.558 219.136C404.081 213.065 402.873 206.551 403.011 199.995C403.148 193.439 404.627 186.981 407.357 181.019C410.086 175.056 414.009 169.717 418.882 165.329L410.852 156.411Z" fill="#0097FE"/>
<path d="M406.411 241.148C414.89 250.564 426.131 257.054 438.525 259.689C450.919 262.323 463.829 260.966 475.404 255.813C486.98 250.659 496.626 241.973 502.962 231C509.297 220.027 511.996 207.33 510.671 194.728L498.737 195.983C499.797 206.064 497.638 216.221 492.569 225C487.501 233.779 479.784 240.727 470.523 244.85C461.263 248.973 450.935 250.059 441.02 247.951C431.105 245.844 422.112 240.651 415.329 233.118L406.411 241.148Z" fill="#FFCC5E"/>
<path d="M515 201C515 188.171 511.144 175.638 503.933 165.027C496.722 154.416 486.488 146.217 474.56 141.494C462.632 136.772 449.559 135.743 437.039 138.541C424.519 141.34 413.128 147.837 404.346 157.189L418.342 170.332C424.49 163.786 432.463 159.238 441.227 157.279C449.991 155.32 459.142 156.04 467.492 159.346C475.842 162.652 483.005 168.391 488.053 175.819C493.101 183.246 495.8 192.019 495.8 201H515Z" fill="white"/>
<path d="M421.063 191V181.2H427.027V182.166H422.239V185.61H426.313V186.562H422.239V191H421.063ZM430.303 191.168C429.725 191.168 429.244 191.07 428.861 190.874C428.479 190.678 428.194 190.417 428.007 190.09C427.821 189.763 427.727 189.409 427.727 189.026C427.727 188.317 427.998 187.771 428.539 187.388C429.081 187.005 429.818 186.814 430.751 186.814H432.627V186.73C432.627 186.123 432.469 185.666 432.151 185.358C431.834 185.041 431.409 184.882 430.877 184.882C430.42 184.882 430.023 184.999 429.687 185.232C429.361 185.456 429.155 185.787 429.071 186.226H427.867C427.914 185.722 428.082 185.297 428.371 184.952C428.67 184.607 429.039 184.345 429.477 184.168C429.916 183.981 430.383 183.888 430.877 183.888C431.848 183.888 432.576 184.149 433.061 184.672C433.556 185.185 433.803 185.871 433.803 186.73V191H432.753L432.683 189.754C432.487 190.146 432.198 190.482 431.815 190.762C431.442 191.033 430.938 191.168 430.303 191.168ZM430.485 190.174C430.933 190.174 431.316 190.057 431.633 189.824C431.96 189.591 432.207 189.287 432.375 188.914C432.543 188.541 432.627 188.149 432.627 187.738V187.724H430.849C430.159 187.724 429.669 187.845 429.379 188.088C429.099 188.321 428.959 188.615 428.959 188.97C428.959 189.334 429.09 189.628 429.351 189.852C429.622 190.067 430 190.174 430.485 190.174ZM438.76 191.168C438.097 191.168 437.5 191.019 436.968 190.72C436.445 190.412 436.03 189.987 435.722 189.446C435.423 188.895 435.274 188.256 435.274 187.528C435.274 186.8 435.423 186.165 435.722 185.624C436.03 185.073 436.445 184.649 436.968 184.35C437.5 184.042 438.097 183.888 438.76 183.888C439.581 183.888 440.272 184.103 440.832 184.532C441.401 184.961 441.76 185.535 441.91 186.254H440.706C440.612 185.825 440.384 185.493 440.02 185.26C439.656 185.017 439.231 184.896 438.746 184.896C438.354 184.896 437.985 184.994 437.64 185.19C437.294 185.386 437.014 185.68 436.8 186.072C436.585 186.464 436.478 186.949 436.478 187.528C436.478 188.107 436.585 188.592 436.8 188.984C437.014 189.376 437.294 189.675 437.64 189.88C437.985 190.076 438.354 190.174 438.746 190.174C439.231 190.174 439.656 190.057 440.02 189.824C440.384 189.581 440.612 189.241 440.706 188.802H441.91C441.77 189.502 441.415 190.071 440.846 190.51C440.276 190.949 439.581 191.168 438.76 191.168ZM446.674 191.168C446.011 191.168 445.423 191.019 444.91 190.72C444.397 190.412 443.991 189.987 443.692 189.446C443.403 188.905 443.258 188.265 443.258 187.528C443.258 186.8 443.403 186.165 443.692 185.624C443.981 185.073 444.383 184.649 444.896 184.35C445.419 184.042 446.021 183.888 446.702 183.888C447.374 183.888 447.953 184.042 448.438 184.35C448.933 184.649 449.311 185.045 449.572 185.54C449.833 186.035 449.964 186.567 449.964 187.136C449.964 187.239 449.959 187.341 449.95 187.444C449.95 187.547 449.95 187.663 449.95 187.794H444.42C444.448 188.326 444.569 188.769 444.784 189.124C445.008 189.469 445.283 189.731 445.61 189.908C445.946 190.085 446.301 190.174 446.674 190.174C447.159 190.174 447.565 190.062 447.892 189.838C448.219 189.614 448.457 189.311 448.606 188.928H449.768C449.581 189.572 449.222 190.109 448.69 190.538C448.167 190.958 447.495 191.168 446.674 191.168ZM446.674 184.882C446.114 184.882 445.615 185.055 445.176 185.4C444.747 185.736 444.499 186.231 444.434 186.884H448.802C448.774 186.259 448.559 185.769 448.158 185.414C447.757 185.059 447.262 184.882 446.674 184.882ZM455.233 191.168C454.663 191.168 454.155 191.051 453.707 190.818C453.268 190.585 452.932 190.258 452.699 189.838L452.587 191H451.523V180.92H452.699V185.204C452.923 184.868 453.24 184.565 453.651 184.294C454.071 184.023 454.603 183.888 455.247 183.888C455.937 183.888 456.539 184.047 457.053 184.364C457.566 184.681 457.963 185.115 458.243 185.666C458.532 186.217 458.677 186.842 458.677 187.542C458.677 188.242 458.532 188.867 458.243 189.418C457.963 189.959 457.561 190.389 457.039 190.706C456.525 191.014 455.923 191.168 455.233 191.168ZM455.107 190.146C455.573 190.146 455.984 190.039 456.339 189.824C456.693 189.6 456.973 189.292 457.179 188.9C457.384 188.508 457.487 188.051 457.487 187.528C457.487 187.005 457.384 186.548 457.179 186.156C456.973 185.764 456.693 185.461 456.339 185.246C455.984 185.022 455.573 184.91 455.107 184.91C454.64 184.91 454.229 185.022 453.875 185.246C453.52 185.461 453.24 185.764 453.035 186.156C452.829 186.548 452.727 187.005 452.727 187.528C452.727 188.051 452.829 188.508 453.035 188.9C453.24 189.292 453.52 189.6 453.875 189.824C454.229 190.039 454.64 190.146 455.107 190.146ZM463.478 191.168C462.824 191.168 462.236 191.019 461.714 190.72C461.191 190.421 460.776 190.001 460.468 189.46C460.169 188.909 460.02 188.265 460.02 187.528C460.02 186.791 460.174 186.151 460.482 185.61C460.79 185.059 461.205 184.635 461.728 184.336C462.26 184.037 462.852 183.888 463.506 183.888C464.159 183.888 464.747 184.037 465.27 184.336C465.792 184.635 466.203 185.059 466.502 185.61C466.81 186.151 466.964 186.791 466.964 187.528C466.964 188.265 466.81 188.909 466.502 189.46C466.194 190.001 465.774 190.421 465.242 190.72C464.719 191.019 464.131 191.168 463.478 191.168ZM463.478 190.16C463.879 190.16 464.252 190.062 464.598 189.866C464.943 189.67 465.223 189.376 465.438 188.984C465.652 188.592 465.76 188.107 465.76 187.528C465.76 186.949 465.652 186.464 465.438 186.072C465.232 185.68 464.957 185.386 464.612 185.19C464.266 184.994 463.898 184.896 463.506 184.896C463.104 184.896 462.731 184.994 462.386 185.19C462.04 185.386 461.76 185.68 461.546 186.072C461.331 186.464 461.224 186.949 461.224 187.528C461.224 188.107 461.331 188.592 461.546 188.984C461.76 189.376 462.036 189.67 462.372 189.866C462.717 190.062 463.086 190.16 463.478 190.16ZM471.763 191.168C471.109 191.168 470.521 191.019 469.999 190.72C469.476 190.421 469.061 190.001 468.753 189.46C468.454 188.909 468.305 188.265 468.305 187.528C468.305 186.791 468.459 186.151 468.767 185.61C469.075 185.059 469.49 184.635 470.013 184.336C470.545 184.037 471.137 183.888 471.791 183.888C472.444 183.888 473.032 184.037 473.555 184.336C474.077 184.635 474.488 185.059 474.787 185.61C475.095 186.151 475.249 186.791 475.249 187.528C475.249 188.265 475.095 188.909 474.787 189.46C474.479 190.001 474.059 190.421 473.527 190.72C473.004 191.019 472.416 191.168 471.763 191.168ZM471.763 190.16C472.164 190.16 472.537 190.062 472.883 189.866C473.228 189.67 473.508 189.376 473.723 188.984C473.937 188.592 474.045 188.107 474.045 187.528C474.045 186.949 473.937 186.464 473.723 186.072C473.517 185.68 473.242 185.386 472.897 185.19C472.551 184.994 472.183 184.896 471.791 184.896C471.389 184.896 471.016 184.994 470.671 185.19C470.325 185.386 470.045 185.68 469.831 186.072C469.616 186.464 469.509 186.949 469.509 187.528C469.509 188.107 469.616 188.592 469.831 188.984C470.045 189.376 470.321 189.67 470.657 189.866C471.002 190.062 471.371 190.16 471.763 190.16ZM476.884 191V180.92H478.06V186.982L480.902 184.056H482.344L479.264 187.192L482.736 191H481.238L478.06 187.402V191H476.884Z" fill="white"/>
<path d="M434.235 221.288C433.131 221.288 432.131 221.096 431.235 220.712C430.339 220.312 429.619 219.704 429.075 218.888C428.531 218.072 428.243 217.048 428.211 215.816H431.235C431.251 216.632 431.515 217.32 432.027 217.88C432.555 218.424 433.291 218.696 434.235 218.696C435.131 218.696 435.819 218.448 436.299 217.952C436.779 217.456 437.019 216.832 437.019 216.08C437.019 215.2 436.699 214.536 436.059 214.088C435.435 213.624 434.627 213.392 433.635 213.392H432.387V210.872H433.659C434.475 210.872 435.155 210.68 435.699 210.296C436.243 209.912 436.515 209.344 436.515 208.592C436.515 207.968 436.307 207.472 435.891 207.104C435.491 206.72 434.931 206.528 434.211 206.528C433.427 206.528 432.811 206.76 432.363 207.224C431.931 207.688 431.691 208.256 431.643 208.928H428.643C428.707 207.376 429.243 206.152 430.251 205.256C431.275 204.36 432.595 203.912 434.211 203.912C435.363 203.912 436.331 204.12 437.115 204.536C437.915 204.936 438.515 205.472 438.915 206.144C439.331 206.816 439.539 207.56 439.539 208.376C439.539 209.32 439.275 210.12 438.747 210.776C438.235 211.416 437.595 211.848 436.827 212.072C437.771 212.264 438.539 212.728 439.131 213.464C439.723 214.184 440.019 215.096 440.019 216.2C440.019 217.128 439.795 217.976 439.347 218.744C438.899 219.512 438.243 220.128 437.379 220.592C436.531 221.056 435.483 221.288 434.235 221.288ZM448.628 221.288C447.364 221.288 446.3 221.056 445.436 220.592C444.572 220.128 443.876 219.504 443.348 218.72C442.82 217.936 442.436 217.064 442.196 216.104C441.972 215.144 441.86 214.16 441.86 213.152C441.86 211.28 442.124 209.656 442.652 208.28C443.18 206.888 443.94 205.816 444.932 205.064C445.924 204.296 447.124 203.912 448.532 203.912C449.684 203.912 450.66 204.144 451.46 204.608C452.276 205.056 452.908 205.648 453.356 206.384C453.804 207.12 454.068 207.912 454.148 208.76H451.292C451.148 208.024 450.836 207.456 450.356 207.056C449.876 206.656 449.26 206.456 448.508 206.456C447.436 206.456 446.572 206.952 445.916 207.944C445.26 208.92 444.908 210.416 444.86 212.432C445.244 211.776 445.82 211.232 446.588 210.8C447.356 210.368 448.212 210.152 449.156 210.152C450.084 210.152 450.956 210.376 451.772 210.824C452.588 211.272 453.244 211.904 453.74 212.72C454.252 213.536 454.508 214.496 454.508 215.6C454.508 216.608 454.26 217.544 453.764 218.408C453.284 219.272 452.596 219.968 451.7 220.496C450.82 221.024 449.796 221.288 448.628 221.288ZM448.46 218.648C449.356 218.648 450.092 218.376 450.668 217.832C451.26 217.272 451.556 216.568 451.556 215.72C451.556 214.824 451.26 214.104 450.668 213.56C450.076 213.016 449.324 212.744 448.412 212.744C447.82 212.744 447.284 212.88 446.804 213.152C446.34 213.408 445.972 213.76 445.7 214.208C445.428 214.64 445.292 215.128 445.292 215.672C445.292 216.536 445.588 217.248 446.18 217.808C446.788 218.368 447.548 218.648 448.46 218.648ZM460.052 212.456C459.284 212.456 458.588 212.288 457.964 211.952C457.34 211.6 456.844 211.104 456.476 210.464C456.108 209.824 455.924 209.064 455.924 208.184C455.924 207.304 456.108 206.544 456.476 205.904C456.844 205.264 457.34 204.776 457.964 204.44C458.588 204.088 459.292 203.912 460.076 203.912C460.844 203.912 461.532 204.088 462.14 204.44C462.764 204.776 463.26 205.264 463.628 205.904C463.996 206.544 464.18 207.304 464.18 208.184C464.18 209.064 463.996 209.824 463.628 210.464C463.26 211.104 462.764 211.6 462.14 211.952C461.516 212.288 460.82 212.456 460.052 212.456ZM459.14 221L468.62 204.2H471.62L462.14 221H459.14ZM460.052 210.32C460.516 210.32 460.916 210.144 461.252 209.792C461.588 209.424 461.756 208.888 461.756 208.184C461.756 207.48 461.588 206.944 461.252 206.576C460.932 206.208 460.532 206.024 460.052 206.024C459.572 206.024 459.164 206.208 458.828 206.576C458.508 206.944 458.348 207.48 458.348 208.184C458.348 208.888 458.508 209.424 458.828 209.792C459.164 210.144 459.572 210.32 460.052 210.32ZM470.804 221.288C470.036 221.288 469.34 221.12 468.716 220.784C468.092 220.432 467.596 219.936 467.228 219.296C466.86 218.656 466.676 217.896 466.676 217.016C466.676 216.136 466.86 215.384 467.228 214.76C467.596 214.12 468.092 213.632 468.716 213.296C469.34 212.944 470.044 212.768 470.828 212.768C471.596 212.768 472.284 212.944 472.892 213.296C473.516 213.632 474.012 214.12 474.38 214.76C474.748 215.384 474.932 216.136 474.932 217.016C474.932 217.896 474.748 218.656 474.38 219.296C474.012 219.936 473.516 220.432 472.892 220.784C472.284 221.12 471.588 221.288 470.804 221.288ZM470.804 219.152C471.284 219.152 471.684 218.976 472.004 218.624C472.34 218.256 472.508 217.72 472.508 217.016C472.508 216.312 472.34 215.776 472.004 215.408C471.684 215.04 471.284 214.856 470.804 214.856C470.324 214.856 469.916 215.04 469.58 215.408C469.26 215.776 469.1 216.312 469.1 217.016C469.1 217.72 469.26 218.256 469.58 218.624C469.916 218.976 470.324 219.152 470.804 219.152Z" fill="white"/>
<path d="M394.554 102V91.254H390.882V89.4H400.548V91.254H396.858V102H394.554ZM401.322 102V93.072H403.374L403.59 94.746C403.914 94.17 404.352 93.714 404.904 93.378C405.468 93.03 406.128 92.856 406.884 92.856V95.286H406.236C405.732 95.286 405.282 95.364 404.886 95.52C404.49 95.676 404.178 95.946 403.95 96.33C403.734 96.714 403.626 97.248 403.626 97.932V102H401.322ZM411.537 102.216C410.769 102.216 410.139 102.096 409.647 101.856C409.155 101.604 408.789 101.274 408.549 100.866C408.309 100.458 408.189 100.008 408.189 99.516C408.189 98.688 408.513 98.016 409.161 97.5C409.809 96.984 410.781 96.726 412.077 96.726H414.345V96.51C414.345 95.898 414.171 95.448 413.823 95.16C413.475 94.872 413.043 94.728 412.527 94.728C412.059 94.728 411.651 94.842 411.303 95.07C410.955 95.286 410.739 95.61 410.655 96.042H408.405C408.465 95.394 408.681 94.83 409.053 94.35C409.437 93.87 409.929 93.504 410.529 93.252C411.129 92.988 411.801 92.856 412.545 92.856C413.817 92.856 414.819 93.174 415.551 93.81C416.283 94.446 416.649 95.346 416.649 96.51V102H414.687L414.471 100.56C414.207 101.04 413.835 101.436 413.355 101.748C412.887 102.06 412.281 102.216 411.537 102.216ZM412.059 100.416C412.719 100.416 413.229 100.2 413.589 99.768C413.961 99.336 414.195 98.802 414.291 98.166H412.329C411.717 98.166 411.279 98.28 411.015 98.508C410.751 98.724 410.619 98.994 410.619 99.318C410.619 99.666 410.751 99.936 411.015 100.128C411.279 100.32 411.627 100.416 412.059 100.416ZM419.262 102V94.998H418.038V93.072H419.262V92.028C419.262 90.948 419.532 90.18 420.072 89.724C420.624 89.268 421.368 89.04 422.304 89.04H423.294V91.002H422.664C422.268 91.002 421.986 91.08 421.818 91.236C421.65 91.392 421.566 91.656 421.566 92.028V93.072H423.492V94.998H421.566V102H419.262ZM425.73 102V94.998H424.506V93.072H425.73V92.028C425.73 90.948 426 90.18 426.54 89.724C427.092 89.268 427.836 89.04 428.772 89.04H429.762V91.002H429.132C428.736 91.002 428.454 91.08 428.286 91.236C428.118 91.392 428.034 91.656 428.034 92.028V93.072H433.794V102H431.49V94.998H428.034V102H425.73ZM432.66 91.794C432.24 91.794 431.892 91.668 431.616 91.416C431.352 91.164 431.22 90.846 431.22 90.462C431.22 90.078 431.352 89.766 431.616 89.526C431.892 89.274 432.24 89.148 432.66 89.148C433.08 89.148 433.422 89.274 433.686 89.526C433.962 89.766 434.1 90.078 434.1 90.462C434.1 90.846 433.962 91.164 433.686 91.416C433.422 91.668 433.08 91.794 432.66 91.794ZM440.607 102.216C439.695 102.216 438.891 102.018 438.195 101.622C437.499 101.226 436.947 100.674 436.539 99.966C436.143 99.258 435.945 98.448 435.945 97.536C435.945 96.624 436.143 95.814 436.539 95.106C436.947 94.398 437.499 93.846 438.195 93.45C438.891 93.054 439.695 92.856 440.607 92.856C441.747 92.856 442.707 93.156 443.487 93.756C444.267 94.344 444.765 95.16 444.98 96.204H442.551C442.431 95.772 442.191 95.436 441.831 95.196C441.483 94.944 441.069 94.818 440.589 94.818C439.953 94.818 439.413 95.058 438.969 95.538C438.525 96.018 438.303 96.684 438.303 97.536C438.303 98.388 438.525 99.054 438.969 99.534C439.413 100.014 439.953 100.254 440.589 100.254C441.069 100.254 441.483 100.134 441.831 99.894C442.191 99.654 442.431 99.312 442.551 98.868H444.98C444.765 99.876 444.267 100.686 443.487 101.298C442.707 101.91 441.747 102.216 440.607 102.216ZM456.877 102.216C455.689 102.216 454.651 101.946 453.763 101.406C452.875 100.866 452.185 100.116 451.693 99.156C451.201 98.184 450.955 97.056 450.955 95.772C450.955 94.476 451.207 93.336 451.711 92.352C452.227 91.356 452.953 90.582 453.889 90.03C454.837 89.466 455.959 89.184 457.255 89.184C458.731 89.184 459.955 89.538 460.927 90.246C461.899 90.954 462.529 91.932 462.817 93.18H460.243C460.051 92.592 459.703 92.136 459.199 91.812C458.695 91.476 458.047 91.308 457.255 91.308C455.995 91.308 455.023 91.71 454.339 92.514C453.655 93.306 453.313 94.398 453.313 95.79C453.313 97.182 453.649 98.262 454.321 99.03C455.005 99.786 455.929 100.164 457.093 100.164C458.233 100.164 459.091 99.858 459.667 99.246C460.255 98.622 460.609 97.806 460.729 96.798H457.543V95.07H463.051V102H460.927L460.747 100.344C460.339 100.944 459.829 101.406 459.217 101.73C458.605 102.054 457.825 102.216 456.877 102.216ZM465.236 102V93.072H467.288L467.504 94.746C467.828 94.17 468.266 93.714 468.818 93.378C469.382 93.03 470.042 92.856 470.798 92.856V95.286H470.15C469.646 95.286 469.196 95.364 468.8 95.52C468.404 95.676 468.092 95.946 467.864 96.33C467.648 96.714 467.54 97.248 467.54 97.932V102H465.236ZM476.499 102.216C475.635 102.216 474.855 102.018 474.159 101.622C473.475 101.226 472.929 100.68 472.521 99.984C472.125 99.276 471.927 98.46 471.927 97.536C471.927 96.612 472.131 95.802 472.539 95.106C472.947 94.398 473.493 93.846 474.177 93.45C474.873 93.054 475.653 92.856 476.517 92.856C477.369 92.856 478.137 93.054 478.821 93.45C479.517 93.846 480.063 94.398 480.459 95.106C480.867 95.802 481.071 96.612 481.071 97.536C481.071 98.46 480.867 99.276 480.459 99.984C480.063 100.68 479.517 101.226 478.821 101.622C478.125 102.018 477.351 102.216 476.499 102.216ZM476.499 100.218C477.099 100.218 477.621 99.996 478.065 99.552C478.509 99.096 478.731 98.424 478.731 97.536C478.731 96.648 478.509 95.982 478.065 95.538C477.621 95.082 477.105 94.854 476.517 94.854C475.905 94.854 475.377 95.082 474.933 95.538C474.501 95.982 474.285 96.648 474.285 97.536C474.285 98.424 474.501 99.096 474.933 99.552C475.377 99.996 475.899 100.218 476.499 100.218ZM484.561 102L481.951 93.072H484.237L485.785 99.498L487.585 93.072H490.141L491.941 99.498L493.507 93.072H495.793L493.165 102H490.771L488.863 95.322L486.955 102H484.561ZM501.224 102C500.288 102 499.538 101.772 498.974 101.316C498.41 100.86 498.128 100.05 498.128 98.886V94.998H496.598V93.072H498.128L498.398 90.678H500.432V93.072H502.844V94.998H500.432V98.904C500.432 99.336 500.522 99.636 500.702 99.804C500.894 99.96 501.218 100.038 501.674 100.038H502.79V102H501.224ZM504.822 102V89.04H507.126V94.44C507.426 93.948 507.828 93.564 508.332 93.288C508.848 93 509.436 92.856 510.096 92.856C511.2 92.856 512.052 93.204 512.652 93.9C513.264 94.596 513.57 95.616 513.57 96.96V102H511.284V97.176C511.284 96.408 511.128 95.82 510.816 95.412C510.516 95.004 510.036 94.8 509.376 94.8C508.728 94.8 508.188 95.028 507.756 95.484C507.336 95.94 507.126 96.576 507.126 97.392V102H504.822Z" fill="white"/>
<path d="M382.194 125V117.428H379.686V116.6H385.71V117.428H383.202V125H382.194ZM388.515 125.144C387.955 125.144 387.451 125.016 387.003 124.76C386.555 124.504 386.199 124.144 385.935 123.68C385.679 123.208 385.551 122.656 385.551 122.024C385.551 121.392 385.683 120.844 385.947 120.38C386.211 119.908 386.567 119.544 387.015 119.288C387.471 119.032 387.979 118.904 388.539 118.904C389.099 118.904 389.603 119.032 390.051 119.288C390.499 119.544 390.851 119.908 391.107 120.38C391.371 120.844 391.503 121.392 391.503 122.024C391.503 122.656 391.371 123.208 391.107 123.68C390.843 124.144 390.483 124.504 390.027 124.76C389.579 125.016 389.075 125.144 388.515 125.144ZM388.515 124.28C388.859 124.28 389.179 124.196 389.475 124.028C389.771 123.86 390.011 123.608 390.195 123.272C390.379 122.936 390.471 122.52 390.471 122.024C390.471 121.528 390.379 121.112 390.195 120.776C390.019 120.44 389.783 120.188 389.487 120.02C389.191 119.852 388.875 119.768 388.539 119.768C388.195 119.768 387.875 119.852 387.579 120.02C387.283 120.188 387.043 120.44 386.859 120.776C386.675 121.112 386.583 121.528 386.583 122.024C386.583 122.52 386.675 122.936 386.859 123.272C387.043 123.608 387.279 123.86 387.567 124.028C387.863 124.196 388.179 124.28 388.515 124.28ZM395.022 125C394.478 125 394.05 124.868 393.738 124.604C393.426 124.34 393.27 123.864 393.27 123.176V119.9H392.238V119.048H393.27L393.402 117.62H394.278V119.048H396.03V119.9H394.278V123.176C394.278 123.552 394.354 123.808 394.506 123.944C394.658 124.072 394.926 124.136 395.31 124.136H395.934V125H395.022ZM399.29 125.144C398.794 125.144 398.382 125.06 398.054 124.892C397.726 124.724 397.482 124.5 397.322 124.22C397.162 123.94 397.082 123.636 397.082 123.308C397.082 122.7 397.314 122.232 397.778 121.904C398.242 121.576 398.874 121.412 399.674 121.412H401.282V121.34C401.282 120.82 401.146 120.428 400.874 120.164C400.602 119.892 400.238 119.756 399.782 119.756C399.39 119.756 399.05 119.856 398.762 120.056C398.482 120.248 398.306 120.532 398.234 120.908H397.202C397.242 120.476 397.386 120.112 397.634 119.816C397.89 119.52 398.206 119.296 398.582 119.144C398.958 118.984 399.358 118.904 399.782 118.904C400.614 118.904 401.238 119.128 401.654 119.576C402.078 120.016 402.29 120.604 402.29 121.34V125H401.39L401.33 123.932C401.162 124.268 400.914 124.556 400.586 124.796C400.266 125.028 399.834 125.144 399.29 125.144ZM399.446 124.292C399.83 124.292 400.158 124.192 400.43 123.992C400.71 123.792 400.922 123.532 401.066 123.212C401.21 122.892 401.282 122.556 401.282 122.204V122.192H399.758C399.166 122.192 398.746 122.296 398.498 122.504C398.258 122.704 398.138 122.956 398.138 123.26C398.138 123.572 398.25 123.824 398.474 124.016C398.706 124.2 399.03 124.292 399.446 124.292ZM403.803 125V116.36H404.811V125H403.803ZM411.991 125C411.447 125 411.019 124.868 410.707 124.604C410.395 124.34 410.239 123.864 410.239 123.176V119.9H409.207V119.048H410.239L410.371 117.62H411.247V119.048H412.999V119.9H411.247V123.176C411.247 123.552 411.323 123.808 411.475 123.944C411.627 124.072 411.895 124.136 412.279 124.136H412.903V125H411.991ZM414.279 125V119.048H415.191L415.275 120.188C415.459 119.796 415.739 119.484 416.115 119.252C416.491 119.02 416.955 118.904 417.507 118.904V119.96H417.231C416.879 119.96 416.555 120.024 416.259 120.152C415.963 120.272 415.727 120.48 415.551 120.776C415.375 121.072 415.287 121.48 415.287 122V125H414.279ZM420.619 125.144C420.123 125.144 419.711 125.06 419.383 124.892C419.055 124.724 418.811 124.5 418.651 124.22C418.491 123.94 418.411 123.636 418.411 123.308C418.411 122.7 418.643 122.232 419.107 121.904C419.571 121.576 420.203 121.412 421.003 121.412H422.611V121.34C422.611 120.82 422.475 120.428 422.203 120.164C421.931 119.892 421.567 119.756 421.111 119.756C420.719 119.756 420.379 119.856 420.091 120.056C419.811 120.248 419.635 120.532 419.563 120.908H418.531C418.571 120.476 418.715 120.112 418.963 119.816C419.219 119.52 419.535 119.296 419.911 119.144C420.287 118.984 420.687 118.904 421.111 118.904C421.943 118.904 422.567 119.128 422.983 119.576C423.407 120.016 423.619 120.604 423.619 121.34V125H422.719L422.659 123.932C422.491 124.268 422.243 124.556 421.915 124.796C421.595 125.028 421.163 125.144 420.619 125.144ZM420.775 124.292C421.159 124.292 421.487 124.192 421.759 123.992C422.039 123.792 422.251 123.532 422.395 123.212C422.539 122.892 422.611 122.556 422.611 122.204V122.192H421.087C420.495 122.192 420.075 122.296 419.827 122.504C419.587 122.704 419.467 122.956 419.467 123.26C419.467 123.572 419.579 123.824 419.803 124.016C420.035 124.2 420.359 124.292 420.775 124.292ZM425.455 125V119.9H424.555V119.048H425.455V118.016C425.455 117.44 425.599 117.02 425.887 116.756C426.175 116.492 426.595 116.36 427.147 116.36H427.747V117.224H427.303C426.999 117.224 426.783 117.288 426.655 117.416C426.527 117.536 426.463 117.744 426.463 118.04V119.048H427.927V119.9H426.463V125H425.455ZM429.451 125V119.9H428.551V119.048H429.451V118.016C429.451 117.44 429.595 117.02 429.883 116.756C430.171 116.492 430.591 116.36 431.143 116.36H431.743V117.224H431.299C430.995 117.224 430.779 117.288 430.651 117.416C430.523 117.536 430.459 117.744 430.459 118.04V119.048H434.155V125H433.147V119.9H430.459V125H429.451ZM433.663 117.908C433.471 117.908 433.307 117.844 433.171 117.716C433.035 117.58 432.967 117.412 432.967 117.212C432.967 117.02 433.035 116.86 433.171 116.732C433.307 116.604 433.471 116.54 433.663 116.54C433.863 116.54 434.027 116.604 434.155 116.732C434.291 116.86 434.359 117.02 434.359 117.212C434.359 117.412 434.291 117.58 434.155 117.716C434.027 117.844 433.863 117.908 433.663 117.908ZM438.671 125.144C438.103 125.144 437.591 125.016 437.135 124.76C436.687 124.496 436.331 124.132 436.067 123.668C435.811 123.196 435.683 122.648 435.683 122.024C435.683 121.4 435.811 120.856 436.067 120.392C436.331 119.92 436.687 119.556 437.135 119.3C437.591 119.036 438.103 118.904 438.671 118.904C439.375 118.904 439.967 119.088 440.447 119.456C440.935 119.824 441.243 120.316 441.371 120.932H440.339C440.259 120.564 440.063 120.28 439.751 120.08C439.439 119.872 439.075 119.768 438.659 119.768C438.323 119.768 438.007 119.852 437.711 120.02C437.415 120.188 437.175 120.44 436.991 120.776C436.807 121.112 436.715 121.528 436.715 122.024C436.715 122.52 436.807 122.936 436.991 123.272C437.175 123.608 437.415 123.864 437.711 124.04C438.007 124.208 438.323 124.292 438.659 124.292C439.075 124.292 439.439 124.192 439.751 123.992C440.063 123.784 440.259 123.492 440.339 123.116H441.371C441.251 123.716 440.947 124.204 440.459 124.58C439.971 124.956 439.375 125.144 438.671 125.144ZM448.307 123.128C447.971 123.128 447.663 123.084 447.383 122.996L446.783 123.56C446.871 123.624 446.979 123.68 447.107 123.728C447.243 123.768 447.435 123.808 447.683 123.848C447.931 123.88 448.279 123.916 448.727 123.956C449.527 124.012 450.099 124.196 450.443 124.508C450.787 124.82 450.959 125.228 450.959 125.732C450.959 126.076 450.863 126.404 450.671 126.716C450.487 127.028 450.199 127.284 449.807 127.484C449.423 127.684 448.927 127.784 448.319 127.784C447.783 127.784 447.307 127.712 446.891 127.568C446.475 127.432 446.151 127.22 445.919 126.932C445.687 126.652 445.571 126.296 445.571 125.864C445.571 125.64 445.631 125.396 445.751 125.132C445.871 124.876 446.095 124.632 446.423 124.4C446.247 124.328 446.095 124.252 445.967 124.172C445.847 124.084 445.735 123.988 445.631 123.884V123.608L446.651 122.6C446.179 122.2 445.943 121.672 445.943 121.016C445.943 120.624 446.035 120.268 446.219 119.948C446.403 119.628 446.671 119.376 447.023 119.192C447.375 119 447.803 118.904 448.307 118.904C448.651 118.904 448.963 118.952 449.243 119.048H451.439V119.804L450.323 119.852C450.555 120.188 450.671 120.576 450.671 121.016C450.671 121.408 450.575 121.764 450.383 122.084C450.199 122.404 449.931 122.66 449.579 122.852C449.235 123.036 448.811 123.128 448.307 123.128ZM448.307 122.3C448.731 122.3 449.067 122.192 449.315 121.976C449.571 121.752 449.699 121.432 449.699 121.016C449.699 120.608 449.571 120.296 449.315 120.08C449.067 119.856 448.731 119.744 448.307 119.744C447.875 119.744 447.531 119.856 447.275 120.08C447.027 120.296 446.903 120.608 446.903 121.016C446.903 121.432 447.027 121.752 447.275 121.976C447.531 122.192 447.875 122.3 448.307 122.3ZM446.555 125.768C446.555 126.168 446.723 126.464 447.059 126.656C447.395 126.856 447.815 126.956 448.319 126.956C448.815 126.956 449.211 126.848 449.507 126.632C449.811 126.416 449.963 126.128 449.963 125.768C449.963 125.512 449.859 125.288 449.651 125.096C449.443 124.912 449.059 124.804 448.499 124.772C448.059 124.74 447.679 124.7 447.359 124.652C447.031 124.828 446.815 125.016 446.711 125.216C446.607 125.424 446.555 125.608 446.555 125.768ZM452.576 125V119.048H453.488L453.572 120.188C453.756 119.796 454.036 119.484 454.412 119.252C454.788 119.02 455.252 118.904 455.804 118.904V119.96H455.528C455.176 119.96 454.852 120.024 454.556 120.152C454.26 120.272 454.024 120.48 453.848 120.776C453.672 121.072 453.584 121.48 453.584 122V125H452.576ZM459.425 125.144C458.865 125.144 458.361 125.016 457.913 124.76C457.465 124.504 457.109 124.144 456.845 123.68C456.589 123.208 456.461 122.656 456.461 122.024C456.461 121.392 456.593 120.844 456.857 120.38C457.121 119.908 457.477 119.544 457.925 119.288C458.381 119.032 458.889 118.904 459.449 118.904C460.009 118.904 460.513 119.032 460.961 119.288C461.409 119.544 461.761 119.908 462.017 120.38C462.281 120.844 462.413 121.392 462.413 122.024C462.413 122.656 462.281 123.208 462.017 123.68C461.753 124.144 461.393 124.504 460.937 124.76C460.489 125.016 459.985 125.144 459.425 125.144ZM459.425 124.28C459.769 124.28 460.089 124.196 460.385 124.028C460.681 123.86 460.921 123.608 461.105 123.272C461.289 122.936 461.381 122.52 461.381 122.024C461.381 121.528 461.289 121.112 461.105 120.776C460.929 120.44 460.693 120.188 460.397 120.02C460.101 119.852 459.785 119.768 459.449 119.768C459.105 119.768 458.785 119.852 458.489 120.02C458.193 120.188 457.953 120.44 457.769 120.776C457.585 121.112 457.493 121.528 457.493 122.024C457.493 122.52 457.585 122.936 457.769 123.272C457.953 123.608 458.189 123.86 458.477 124.028C458.773 124.196 459.089 124.28 459.425 124.28ZM464.792 125L463.052 119.048H464.06L465.32 123.716L466.712 119.048H467.852L469.256 123.716L470.504 119.048H471.524L469.784 125H468.752L467.288 120.092L465.824 125H464.792ZM474.991 125C474.447 125 474.019 124.868 473.707 124.604C473.395 124.34 473.239 123.864 473.239 123.176V119.9H472.207V119.048H473.239L473.371 117.62H474.247V119.048H475.999V119.9H474.247V123.176C474.247 123.552 474.323 123.808 474.475 123.944C474.627 124.072 474.895 124.136 475.279 124.136H475.903V125H474.991ZM477.279 125V116.36H478.287V120.068C478.487 119.7 478.771 119.416 479.139 119.216C479.507 119.008 479.907 118.904 480.339 118.904C481.027 118.904 481.579 119.12 481.995 119.552C482.411 119.976 482.619 120.632 482.619 121.52V125H481.623V121.628C481.623 120.388 481.123 119.768 480.123 119.768C479.603 119.768 479.167 119.956 478.815 120.332C478.463 120.7 478.287 121.228 478.287 121.916V125H477.279ZM490.034 125.144C489.474 125.144 488.97 125.016 488.522 124.76C488.074 124.504 487.718 124.144 487.454 123.68C487.198 123.208 487.07 122.656 487.07 122.024C487.07 121.392 487.202 120.844 487.466 120.38C487.73 119.908 488.086 119.544 488.534 119.288C488.99 119.032 489.498 118.904 490.058 118.904C490.618 118.904 491.122 119.032 491.57 119.288C492.018 119.544 492.37 119.908 492.626 120.38C492.89 120.844 493.022 121.392 493.022 122.024C493.022 122.656 492.89 123.208 492.626 123.68C492.362 124.144 492.002 124.504 491.546 124.76C491.098 125.016 490.594 125.144 490.034 125.144ZM490.034 124.28C490.378 124.28 490.698 124.196 490.994 124.028C491.29 123.86 491.53 123.608 491.714 123.272C491.898 122.936 491.99 122.52 491.99 122.024C491.99 121.528 491.898 121.112 491.714 120.776C491.538 120.44 491.302 120.188 491.006 120.02C490.71 119.852 490.394 119.768 490.058 119.768C489.714 119.768 489.394 119.852 489.098 120.02C488.802 120.188 488.562 120.44 488.378 120.776C488.194 121.112 488.102 121.528 488.102 122.024C488.102 122.52 488.194 122.936 488.378 123.272C488.562 123.608 488.798 123.86 489.086 124.028C489.382 124.196 489.698 124.28 490.034 124.28ZM494.748 125V119.9H493.848V119.048H494.748V118.016C494.748 117.44 494.892 117.02 495.18 116.756C495.468 116.492 495.888 116.36 496.44 116.36H497.04V117.224H496.596C496.292 117.224 496.076 117.288 495.948 117.416C495.82 117.536 495.756 117.744 495.756 118.04V119.048H497.22V119.9H495.756V125H494.748ZM505.46 125V123.2H501.2V122.42L505.28 116.6H506.456V122.312H507.704V123.2H506.456V125H505.46ZM502.316 122.312H505.508V117.716L502.316 122.312ZM511.777 125.144C511.201 125.144 510.701 125.04 510.277 124.832C509.853 124.624 509.513 124.34 509.257 123.98C509.009 123.612 508.857 123.196 508.801 122.732H509.785C509.881 123.196 510.105 123.572 510.457 123.86C510.809 124.14 511.253 124.28 511.789 124.28C512.189 124.28 512.533 124.188 512.821 124.004C513.109 123.812 513.329 123.556 513.481 123.236C513.641 122.916 513.721 122.56 513.721 122.168C513.721 121.544 513.545 121.04 513.193 120.656C512.841 120.272 512.385 120.08 511.825 120.08C511.361 120.08 510.965 120.184 510.637 120.392C510.309 120.6 510.069 120.872 509.917 121.208H508.957L509.677 116.6H514.081V117.476H510.457L509.965 120.032C510.157 119.8 510.421 119.608 510.757 119.456C511.101 119.304 511.493 119.228 511.933 119.228C512.485 119.228 512.965 119.356 513.373 119.612C513.789 119.868 514.113 120.216 514.345 120.656C514.577 121.096 514.693 121.596 514.693 122.156C514.693 122.692 514.577 123.188 514.345 123.644C514.121 124.1 513.789 124.464 513.349 124.736C512.917 125.008 512.393 125.144 511.777 125.144ZM517.781 120.5C517.421 120.5 517.093 120.42 516.797 120.26C516.509 120.092 516.281 119.86 516.113 119.564C515.945 119.26 515.861 118.9 515.861 118.484C515.861 118.068 515.945 117.712 516.113 117.416C516.289 117.112 516.521 116.88 516.809 116.72C517.105 116.552 517.433 116.468 517.793 116.468C518.153 116.468 518.477 116.552 518.765 116.72C519.053 116.88 519.281 117.112 519.449 117.416C519.617 117.712 519.701 118.068 519.701 118.484C519.701 118.9 519.613 119.26 519.437 119.564C519.269 119.86 519.041 120.092 518.753 120.26C518.465 120.42 518.141 120.5 517.781 120.5ZM517.037 125L521.921 116.6H522.929L518.045 125H517.037ZM517.781 119.72C518.061 119.72 518.305 119.616 518.513 119.408C518.729 119.2 518.837 118.892 518.837 118.484C518.837 118.068 518.733 117.756 518.525 117.548C518.317 117.332 518.073 117.224 517.793 117.224C517.513 117.224 517.261 117.332 517.037 117.548C516.821 117.756 516.713 118.068 516.713 118.484C516.713 118.892 516.821 119.2 517.037 119.408C517.253 119.616 517.501 119.72 517.781 119.72ZM522.269 125.144C521.909 125.144 521.581 125.064 521.285 124.904C520.997 124.736 520.769 124.504 520.601 124.208C520.433 123.904 520.349 123.544 520.349 123.128C520.349 122.712 520.433 122.356 520.601 122.06C520.777 121.756 521.009 121.524 521.297 121.364C521.585 121.196 521.909 121.112 522.269 121.112C522.629 121.112 522.953 121.196 523.241 121.364C523.529 121.524 523.757 121.756 523.925 122.06C524.093 122.356 524.177 122.712 524.177 123.128C524.177 123.544 524.093 123.904 523.925 124.208C523.757 124.504 523.529 124.736 523.241 124.904C522.953 125.064 522.629 125.144 522.269 125.144ZM522.257 124.364C522.545 124.364 522.793 124.26 523.001 124.052C523.217 123.844 523.325 123.536 523.325 123.128C523.325 122.712 523.221 122.4 523.013 122.192C522.805 121.984 522.557 121.88 522.269 121.88C521.989 121.88 521.741 121.984 521.525 122.192C521.309 122.4 521.201 122.712 521.201 123.128C521.201 123.536 521.305 123.844 521.513 124.052C521.729 124.26 521.977 124.364 522.257 124.364Z" fill="white"/>
</g>
<defs>
<filter id="filter0_d_271_888" x="0" y="0" width="701" height="598" filterUnits="userSpaceOnUse" color-interpolation-filters="sRGB">
<feFlood flood-opacity="0" result="BackgroundImageFix"/>
<feColorMatrix in="SourceAlpha" type="matrix" values="0 0 0 0 0 0 0 0 0 0 0 0 0 0 0 0 0 0 127 0" result="hardAlpha"/>
<feOffset dx="8" dy="24"/>
<feGaussianBlur stdDeviation="48"/>
<feComposite in2="hardAlpha" operator="out"/>
<feColorMatrix type="matrix" values="0 0 0 0 0.494118 0 0 0 0 0.541176 0 0 0 0 0.992157 0 0 0 0.08 0"/>
<feBlend mode="normal" in2="BackgroundImageFix" result="effect1_dropShadow_271_888"/>
<feBlend mode="normal" in="SourceGraphic" in2="effect1_dropShadow_271_888" result="shape"/>
</filter>
<linearGradient id="paint0_linear_271_888" x1="367.838" y1="199.106" x2="367.838" y2="445.729" gradientUnits="userSpaceOnUse">
<stop stop-color="#F3F0FF"/>
<stop offset="1" stop-color="#F1EDFF" stop-opacity="0"/>
</linearGradient>
<linearGradient id="paint1_linear_271_888" x1="355" y1="72" x2="559.689" y2="265.705" gradientUnits="userSpaceOnUse">
<stop stop-color="#AC60E5"/>
<stop offset="1" stop-color="#0C87F0"/>
</linearGradient>
</defs>
</svg>
